<svg width="65" height="68" viewBox="0 0 65 68" fill="none" xmlns="http://www.w3.org/2000/svg">
<path opacity="0.5" fill-rule="evenodd" clip-rule="evenodd" d="M20.1113 50.2158C20.1113 47.4544 17.8728 45.2158 15.1113 45.2158C12.3499 45.2158 10.1113 47.4544 10.1113 50.2158C10.1113 52.9772 12.3499 55.2158 15.1113 55.2158C17.8728 55.2158 20.1113 52.9772 20.1113 50.2158ZM15.1113 47.2158C16.7682 47.2158 18.1113 48.559 18.1113 50.2158C18.1113 51.8727 16.7682 53.2158 15.1113 53.2158C13.4545 53.2158 12.1113 51.8727 12.1113 50.2158C12.1113 48.559 13.4545 47.2158 15.1113 47.2158Z" fill="#D500E6"/>
<path fill-rule="evenodd" clip-rule="evenodd" d="M53.1113 60.2119C53.1113 59.6596 52.6636 59.2119 52.1113 59.2119L49.9238 59.2119C49.3715 59.2119 48.9238 59.6596 48.9238 60.2119C48.9238 60.7642 49.3715 61.2119 49.9238 61.2119L52.1113 61.2119C52.6636 61.2119 53.1113 60.7642 53.1113 60.2119ZM46.5488 60.2119C46.5488 59.6596 46.1011 59.2119 45.5488 59.2119L41.1738 59.2119C40.6215 59.2119 40.1738 59.6596 40.1738 60.2119C40.1738 60.7642 40.6215 61.2119 41.1738 61.2119L45.5488 61.2119C46.1011 61.2119 46.5488 60.7642 46.5488 60.2119ZM37.7988 60.2119C37.7988 59.6596 37.3511 59.2119 36.7988 59.2119L32.4238 59.2119C31.8715 59.2119 31.4238 59.6596 31.4238 60.2119C31.4238 60.7642 31.8715 61.2119 32.4238 61.2119L36.7988 61.2119C37.3511 61.2119 37.7988 60.7642 37.7988 60.2119ZM29.0488 60.2119C29.0488 59.6596 28.6011 59.2119 28.0488 59.2119L23.6738 59.2119C23.1215 59.2119 22.6738 59.6596 22.6738 60.2119C22.6738 60.7642 23.1215 61.2119 23.6738 61.2119L28.0488 61.2119C28.6011 61.2119 29.0488 60.7642 29.0488 60.2119ZM20.2988 60.2119C20.2988 59.6596 19.8511 59.2119 19.2988 59.2119L17.1113 59.2119C16.559 59.2119 16.1113 58.7642 16.1113 58.2119L16.1113 56.7119C16.1113 56.1596 15.6636 55.7119 15.1113 55.7119C14.559 55.7119 14.1113 56.1596 14.1113 56.7119L14.1113 58.2119C14.1113 59.8688 15.4545 61.2119 17.1113 61.2119L19.2988 61.2119C19.8511 61.2119 20.2988 60.7642 20.2988 60.2119ZM15.1113 54.7119C15.6636 54.7119 16.1113 54.2642 16.1113 53.7119L16.1113 52.2119C16.1113 51.6596 15.6636 51.2119 15.1113 51.2119C14.559 51.2119 14.1113 51.6596 14.1113 52.2119L14.1113 53.7119C14.1113 54.2642 14.559 54.7119 15.1113 54.7119Z" fill="black"/>
<path fill-rule="evenodd" clip-rule="evenodd" d="M15.1113 49.2158C15.6636 49.2158 16.1113 49.6635 16.1113 50.2158C16.1113 50.7681 15.6636 51.2158 15.1113 51.2158C14.559 51.2158 14.1113 50.7681 14.1113 50.2158C14.1113 49.6635 14.559 49.2158 15.1113 49.2158ZM15.1113 47.2158C16.7682 47.2158 18.1113 48.559 18.1113 50.2158C18.1113 51.8727 16.7682 53.2158 15.1113 53.2158C13.4545 53.2158 12.1113 51.8727 12.1113 50.2158C12.1113 48.559 13.4545 47.2158 15.1113 47.2158Z" fill="black"/>
<path opacity="0.5" fill-rule="evenodd" clip-rule="evenodd" d="M54.1113 30.2119C54.1113 27.4505 56.3499 25.2119 59.1113 25.2119C61.8728 25.2119 64.1113 27.4505 64.1113 30.2119C64.1113 32.9733 61.8728 35.2119 59.1113 35.2119C56.3499 35.2119 54.1113 32.9733 54.1113 30.2119ZM59.1113 27.2119C57.4545 27.2119 56.1113 28.5551 56.1113 30.2119C56.1113 31.8688 57.4545 33.2119 59.1113 33.2119C60.7682 33.2119 62.1113 31.8688 62.1113 30.2119C62.1113 28.5551 60.7682 27.2119 59.1113 27.2119Z" fill="#D500E6"/>
<path fill-rule="evenodd" clip-rule="evenodd" d="M57.1113 19.2119L34.1113 19.2119L34.1113 21.2119L57.1113 21.2119C57.6636 21.2119 58.1113 21.6596 58.1113 22.2119L58.1113 28.2119L60.1113 28.2119L60.1113 22.2119C60.1113 20.5551 58.7682 19.2119 57.1113 19.2119Z" fill="black"/>
<path fill-rule="evenodd" clip-rule="evenodd" d="M59.1113 29.2119C58.559 29.2119 58.1113 29.6596 58.1113 30.2119C58.1113 30.7642 58.559 31.2119 59.1113 31.2119C59.6636 31.2119 60.1113 30.7642 60.1113 30.2119C60.1113 29.6596 59.6636 29.2119 59.1113 29.2119ZM59.1113 27.2119C57.4545 27.2119 56.1113 28.5551 56.1113 30.2119C56.1113 31.8688 57.4545 33.2119 59.1113 33.2119C60.7682 33.2119 62.1113 31.8688 62.1113 30.2119C62.1113 28.5551 60.7682 27.2119 59.1113 27.2119Z" fill="black"/>
<path fill-rule="evenodd" clip-rule="evenodd" d="M60.1113 32.2119L60.1113 38.2158C60.1113 39.8727 58.7682 41.2158 57.1113 41.2158L17.1113 41.2158C16.559 41.2158 16.1113 41.6635 16.1113 42.2158L16.1113 48.2158L14.1113 48.2158L14.1113 42.2158C14.1113 40.559 15.4545 39.2158 17.1113 39.2158L57.1113 39.2158C57.6636 39.2158 58.1113 38.7681 58.1113 38.2158L58.1113 32.2119L60.1113 32.2119Z" fill="black"/>
<path fill-rule="evenodd" clip-rule="evenodd" d="M47.0605 53.8477C47.451 53.4572 48.0842 53.4572 48.4747 53.8477L54.8386 60.2117L48.4747 66.5757C48.0842 66.9662 47.451 66.9662 47.0605 66.5757C46.6699 66.1851 46.6699 65.552 47.0605 65.1614L52.0102 60.2117L47.0605 55.2619C46.6699 54.8714 46.6699 54.2383 47.0605 53.8477Z" fill="black"/>
<path fill-rule="evenodd" clip-rule="evenodd" d="M21.5562 2.64942C22.0692 2.45133 22.4332 1.9534 22.4332 1.37047C22.4332 0.61358 21.8196 0 21.0627 0C20.3058 0 19.6923 0.61358 19.6923 1.37047C19.6923 1.95034 20.0524 2.4461 20.5612 2.64627V6.99742H6.51999C5.09126 6.99742 3.93306 8.15562 3.93306 9.58434V16.2786H3.08441C1.38094 16.2786 0 17.6596 0 19.363V21.8224C0 23.5259 1.38094 24.9068 3.08441 24.9068H3.93306V30.6251C3.93306 32.0538 5.09126 33.212 6.51998 33.212H35.614C37.0428 33.212 38.201 32.0538 38.201 30.6251V24.9068H39.0263C40.7297 24.9068 42.1107 23.5259 42.1107 21.8224V19.363C42.1107 17.6596 40.7297 16.2786 39.0263 16.2786H38.201V9.58434C38.201 8.15562 37.0428 6.99742 35.614 6.99742H21.5562V2.64942ZM16.3751 20.6159C17.929 20.6159 19.1887 19.3562 19.1887 17.8023C19.1887 16.2485 17.929 14.9888 16.3751 14.9888C14.8212 14.9888 13.5616 16.2485 13.5616 17.8023C13.5616 19.3562 14.8212 20.6159 16.3751 20.6159ZM28.5652 17.8023C28.5652 19.3562 27.3056 20.6159 25.7517 20.6159C24.1978 20.6159 22.9382 19.3562 22.9382 17.8023C22.9382 16.2485 24.1978 14.9888 25.7517 14.9888C27.3056 14.9888 28.5652 16.2485 28.5652 17.8023ZM17.7509 24.4873L24.3783 24.4873C24.9278 24.4873 25.3733 24.0418 25.3733 23.4923C25.3733 22.9428 24.9278 22.4973 24.3783 22.4973L17.7509 22.4973C17.2014 22.4973 16.7559 22.9428 16.7559 23.4923C16.7559 24.0418 17.2014 24.4873 17.7509 24.4873Z" fill="#D500E6"/>
</svg>
