<svg width="67" height="64" viewBox="0 0 67 64" fill="none" xmlns="http://www.w3.org/2000/svg">
<circle opacity="0.5" cx="44.7822" cy="31.4585" r="4" transform="rotate(90 44.7822 31.4585)" stroke="#D500E6" stroke-width="2"/>
<mask id="path-2-inside-1_1259_2152" fill="white">
<path fill-rule="evenodd" clip-rule="evenodd" d="M23.2218 11.4585H20.2218V15.9016H20.2207V22.5693C20.2224 22.5693 20.2242 22.5693 20.2259 22.5693C25.1351 22.5693 29.1148 26.549 29.1148 31.4582C29.1148 36.3674 25.1351 40.3471 20.2259 40.3471C20.2242 40.3471 20.2224 40.3471 20.2207 40.3471L20.2207 47.0127H20.2218V51.4585H23.2218C24.3264 51.4585 25.2218 50.5631 25.2218 49.4585V46.1869C26.1359 45.8765 27.0199 45.4815 27.8618 45.0067L30.2956 47.4405C31.0767 48.2216 32.343 48.2216 33.124 47.4405L36.581 43.9836C37.3621 43.2025 37.3621 41.9362 36.581 41.1551L34.0348 38.6089C34.3935 37.916 34.6995 37.1971 34.9503 36.4585H38.2218C39.3264 36.4585 40.2218 35.5631 40.2218 34.4585V28.4585C40.2218 27.3539 39.3264 26.4585 38.2218 26.4585H34.9513C34.6407 25.5434 34.2454 24.6586 33.7702 23.8159L36.2063 21.3798C36.9873 20.5987 36.9873 19.3324 36.2062 18.5514L32.7493 15.0944C31.9682 14.3133 30.7019 14.3133 29.9209 15.0944L27.3723 17.643C26.6793 17.2843 25.9604 16.9782 25.2218 16.7274V13.4585C25.2218 12.3539 24.3264 11.4585 23.2218 11.4585Z"/>
</mask>
<path fill-rule="evenodd" clip-rule="evenodd" d="M23.2218 11.4585H20.2218V15.9016H20.2207V22.5693C20.2224 22.5693 20.2242 22.5693 20.2259 22.5693C25.1351 22.5693 29.1148 26.549 29.1148 31.4582C29.1148 36.3674 25.1351 40.3471 20.2259 40.3471C20.2242 40.3471 20.2224 40.3471 20.2207 40.3471L20.2207 47.0127H20.2218V51.4585H23.2218C24.3264 51.4585 25.2218 50.5631 25.2218 49.4585V46.1869C26.1359 45.8765 27.0199 45.4815 27.8618 45.0067L30.2956 47.4405C31.0767 48.2216 32.343 48.2216 33.124 47.4405L36.581 43.9836C37.3621 43.2025 37.3621 41.9362 36.581 41.1551L34.0348 38.6089C34.3935 37.916 34.6995 37.1971 34.9503 36.4585H38.2218C39.3264 36.4585 40.2218 35.5631 40.2218 34.4585V28.4585C40.2218 27.3539 39.3264 26.4585 38.2218 26.4585H34.9513C34.6407 25.5434 34.2454 24.6586 33.7702 23.8159L36.2063 21.3798C36.9873 20.5987 36.9873 19.3324 36.2062 18.5514L32.7493 15.0944C31.9682 14.3133 30.7019 14.3133 29.9209 15.0944L27.3723 17.643C26.6793 17.2843 25.9604 16.9782 25.2218 16.7274V13.4585C25.2218 12.3539 24.3264 11.4585 23.2218 11.4585Z" fill="black"/>
<path d="M20.2218 11.4585V9.4585H18.2218V11.4585H20.2218ZM20.2218 15.9016V17.9016H22.2218V15.9016H20.2218ZM20.2207 15.9016V13.9016H18.2207V15.9016H20.2207ZM20.2207 22.5693H18.2207V24.5693H20.2207V22.5693ZM20.2207 40.3471V38.3471H18.2207L18.2207 40.3471H20.2207ZM20.2207 47.0127H18.2207L18.2207 49.0127H20.2207V47.0127ZM20.2218 47.0127H22.2218V45.0127H20.2218V47.0127ZM20.2218 51.4585H18.2218V53.4585H20.2218V51.4585ZM25.2218 46.1869L24.5788 44.2931L23.2218 44.7538V46.1869H25.2218ZM27.8618 45.0067L29.276 43.5925L28.2022 42.5187L26.8794 43.2646L27.8618 45.0067ZM30.2956 47.4405L28.8814 48.8547H28.8814L30.2956 47.4405ZM33.124 47.4405L34.5383 48.8547H34.5383L33.124 47.4405ZM36.581 43.9836L37.9952 45.3978L37.9952 45.3978L36.581 43.9836ZM34.0348 38.6089L32.2587 37.6894L31.5861 38.9886L32.6206 40.0231L34.0348 38.6089ZM34.9503 36.4585V34.4585H33.5173L33.0565 35.8154L34.9503 36.4585ZM34.9513 26.4585L33.0573 27.1012L33.518 28.4585H34.9513V26.4585ZM33.7702 23.8159L32.3559 22.4017L31.2821 23.4755L32.0281 24.7983L33.7702 23.8159ZM36.2063 21.3798L34.792 19.9656L34.792 19.9656L36.2063 21.3798ZM36.2062 18.5514L37.6205 17.1371L37.6205 17.1371L36.2062 18.5514ZM32.7493 15.0944L31.3351 16.5086L31.3351 16.5086L32.7493 15.0944ZM29.9209 15.0944L28.5066 13.6802V13.6802L29.9209 15.0944ZM27.3723 17.643L26.4528 19.4191L27.752 20.0917L28.7865 19.0572L27.3723 17.643ZM25.2218 16.7274H23.2218V18.1605L24.5788 18.6212L25.2218 16.7274ZM20.2218 13.4585H23.2218V9.4585H20.2218V13.4585ZM22.2218 15.9016V11.4585H18.2218V15.9016H22.2218ZM20.2207 17.9016H20.2218V13.9016H20.2207V17.9016ZM22.2207 22.5693V15.9016H18.2207V22.5693H22.2207ZM20.2207 24.5693C20.2222 24.5693 20.2236 24.5693 20.2244 24.5693C20.2254 24.5693 20.2257 24.5693 20.2259 24.5693V20.5693C20.2244 20.5693 20.223 20.5693 20.2222 20.5693C20.2212 20.5693 20.2209 20.5693 20.2207 20.5693V24.5693ZM20.2259 24.5693C24.0305 24.5693 27.1148 27.6536 27.1148 31.4582H31.1148C31.1148 25.4445 26.2397 20.5693 20.2259 20.5693V24.5693ZM27.1148 31.4582C27.1148 35.2629 24.0305 38.3471 20.2259 38.3471V42.3471C26.2397 42.3471 31.1148 37.472 31.1148 31.4582H27.1148ZM20.2259 38.3471C20.2257 38.3471 20.2254 38.3471 20.2244 38.3471C20.2236 38.3471 20.2222 38.3471 20.2207 38.3471V42.3471C20.2209 42.3471 20.2212 42.3471 20.2222 42.3471C20.223 42.3471 20.2244 42.3471 20.2259 42.3471V38.3471ZM22.2207 47.0127L22.2207 40.3471H18.2207L18.2207 47.0127H22.2207ZM20.2218 45.0127H20.2207V49.0127H20.2218V45.0127ZM22.2218 51.4585V47.0127H18.2218V51.4585H22.2218ZM23.2218 49.4585H20.2218V53.4585H23.2218V49.4585ZM23.2218 49.4585V53.4585C25.4309 53.4585 27.2218 51.6676 27.2218 49.4585H23.2218ZM23.2218 46.1869V49.4585H27.2218V46.1869H23.2218ZM26.8794 43.2646C26.1457 43.6783 25.3754 44.0226 24.5788 44.2931L25.8648 48.0807C26.8964 47.7304 27.894 47.2846 28.8442 46.7488L26.8794 43.2646ZM31.7098 46.0263L29.276 43.5925L26.4476 46.4209L28.8814 48.8547L31.7098 46.0263ZM31.7098 46.0263H31.7098L28.8814 48.8547C30.4435 50.4168 32.9762 50.4168 34.5383 48.8547L31.7098 46.0263ZM35.1668 42.5693L31.7098 46.0263L34.5383 48.8547L37.9952 45.3978L35.1668 42.5693ZM35.1668 42.5693L35.1668 42.5693L37.9952 45.3978C39.5573 43.8357 39.5573 41.303 37.9952 39.7409L35.1668 42.5693ZM32.6206 40.0231L35.1668 42.5693L37.9952 39.7409L35.449 37.1947L32.6206 40.0231ZM33.0565 35.8154C32.838 36.4591 32.5713 37.0856 32.2587 37.6894L35.8109 39.5283C36.2157 38.7463 36.5611 37.9351 36.8441 37.1016L33.0565 35.8154ZM38.2218 34.4585H34.9503V38.4585H38.2218V34.4585ZM38.2218 34.4585V38.4585C40.4309 38.4585 42.2218 36.6676 42.2218 34.4585H38.2218ZM38.2218 28.4585V34.4585H42.2218V28.4585H38.2218ZM38.2218 28.4585H42.2218C42.2218 26.2494 40.4309 24.4585 38.2218 24.4585V28.4585ZM34.9513 28.4585H38.2218V24.4585H34.9513V28.4585ZM32.0281 24.7983C32.4422 25.5327 32.7867 26.3038 33.0573 27.1012L36.8452 25.8158C36.4947 24.7831 36.0486 23.7846 35.5122 22.8335L32.0281 24.7983ZM34.792 19.9656L32.3559 22.4017L35.1844 25.2301L37.6205 22.794L34.792 19.9656ZM34.792 19.9656L34.792 19.9656L37.6205 22.794C39.1826 21.2319 39.1826 18.6992 37.6205 17.1371L34.792 19.9656ZM31.3351 16.5086L34.792 19.9656L37.6205 17.1371L34.1635 13.6802L31.3351 16.5086ZM31.3351 16.5086V16.5086L34.1635 13.6802C32.6014 12.1181 30.0687 12.1181 28.5066 13.6802L31.3351 16.5086ZM28.7865 19.0572L31.3351 16.5086L28.5066 13.6802L25.9581 16.2288L28.7865 19.0572ZM24.5788 18.6212C25.2224 18.8398 25.8489 19.1065 26.4528 19.4191L28.2917 15.8668C27.5097 15.462 26.6984 15.1166 25.8648 14.8336L24.5788 18.6212ZM23.2218 13.4585V16.7274H27.2218V13.4585H23.2218ZM23.2218 13.4585H23.2218H27.2218C27.2218 11.2494 25.4309 9.4585 23.2218 9.4585V13.4585Z" fill="black" mask="url(#path-2-inside-1_1259_2152)"/>
<path opacity="0.5" d="M20.2822 24.4585C21.1358 24.4585 21.9811 24.6396 22.7697 24.9913C23.5583 25.3431 24.2748 25.8587 24.8784 26.5087C25.482 27.1588 25.9608 27.9304 26.2874 28.7797C26.6141 29.629 26.7822 30.5392 26.7822 31.4585C26.7822 32.3777 26.6141 33.288 26.2874 34.1373C25.9608 34.9866 25.482 35.7582 24.8784 36.4082C24.2748 37.0583 23.5583 37.5739 22.7697 37.9257C21.9811 38.2774 21.1358 38.4585 20.2822 38.4585L20.2822 31.4585L20.2822 24.4585Z" fill="#D500E6"/>
<circle opacity="0.5" cx="61.7822" cy="13.4585" r="4" transform="rotate(90 61.7822 13.4585)" fill="#D500E6" stroke="#D500E6" stroke-width="2"/>
<circle opacity="0.5" r="4" transform="matrix(1.31134e-07 -1 -1 -1.31134e-07 61.7822 49.4585)" fill="#D500E6" stroke="#D500E6" stroke-width="2"/>
<circle opacity="0.5" r="4" transform="matrix(1.31134e-07 -1 -1 -1.31134e-07 61.7822 31.4585)" fill="#D500E6" stroke="#D500E6" stroke-width="2"/>
<path d="M44.7822 29.4585L44.7822 15.4585C44.7822 14.3539 45.6777 13.4585 46.7822 13.4585L60.7822 13.4585" stroke="black" stroke-width="2" stroke-linecap="round"/>
<path d="M44.7822 33.4585L44.7822 47.4585C44.7822 48.5631 45.6777 49.4585 46.7822 49.4585L60.7822 49.4585" stroke="black" stroke-width="2" stroke-linecap="round"/>
<path d="M46.7822 31.4585L60.7822 31.4585" stroke="black" stroke-width="2" stroke-linecap="round"/>
<circle cx="44.7822" cy="31.4585" r="2" transform="rotate(90 44.7822 31.4585)" stroke="black" stroke-width="2"/>
<path d="M39.7822 31.4585L43.7822 31.4585" stroke="black" stroke-width="2"/>
<path d="M20.8184 50.4624C15.7792 50.4624 10.9465 48.4606 7.38333 44.8974C3.82014 41.3342 1.81836 36.5015 1.81836 31.4624C1.81836 26.4233 3.82014 21.5906 7.38333 18.0274C10.9465 14.4642 15.7792 12.4624 20.8184 12.4624" stroke="black" stroke-width="2"/>
<path d="M20.8184 50.4624C18.4218 50.4624 15.8945 48.7191 13.9164 45.1226C11.9519 41.5508 10.8184 36.638 10.8184 31.4624C10.8184 26.2868 11.9519 21.374 13.9164 17.8022C15.8945 14.2057 18.4218 12.4624 20.8184 12.4624" stroke="black" stroke-width="2"/>
<path d="M7.14447 45.5565C8.90734 44.587 11.0221 43.8065 13.3731 43.2708C15.7229 42.7355 18.2489 42.4585 20.8047 42.4585" stroke="black" stroke-width="2"/>
<path d="M7.12201 18.3605C8.88488 19.33 10.9996 20.1105 13.3507 20.6462C15.7004 21.1815 18.2264 21.4585 20.7822 21.4585" stroke="black" stroke-width="2"/>
<path d="M1.81836 31.4624L20.8184 31.4624" stroke="black" stroke-width="2"/>
<path d="M19.8183 12.4624L19.8184 50.9624" stroke="black" stroke-width="2"/>
</svg>
