<svg width="61" height="64" viewBox="0 0 61 64" fill="none" xmlns="http://www.w3.org/2000/svg">
<path d="M10.987 42.9465C9.47889 42.9446 7.9907 42.6015 6.63389 41.943C5.27707 41.2846 4.08677 40.3277 3.15208 39.1441C2.21738 37.9605 1.56251 36.5809 1.23647 35.1084C0.910433 33.6359 0.921678 32.1087 1.26936 30.6412C1.61705 29.1736 2.29217 27.8037 3.2442 26.634C4.19622 25.4643 5.40048 24.5251 6.76685 23.8867C8.13321 23.2483 9.62628 22.9272 11.1343 22.9474C12.6423 22.9677 14.1262 23.3288 15.475 24.0037" stroke="#D500E6" stroke-width="2" stroke-linecap="round"/>
<path d="M38.915 18.2788C40.628 17.1154 42.5856 16.3616 44.6365 16.0758C46.6875 15.7899 48.7766 15.9797 50.7425 16.6305C52.7083 17.2812 54.4981 18.3755 55.9734 19.8285C57.4486 21.2816 58.5699 23.0546 59.2503 25.0104C59.9308 26.9661 60.1522 29.0522 59.8975 31.1072C59.6427 33.1622 58.9187 35.1311 57.7813 36.8615C56.644 38.5919 55.1238 40.0375 53.3384 41.0864C51.553 42.1353 49.5502 42.7595 47.485 42.9106" stroke="#D500E6" stroke-width="2" stroke-linecap="round"/>
<path d="M11.4171 22.6892C10.9181 20.4781 10.8663 18.1896 11.2647 15.9583C11.6631 13.7269 12.5038 11.5977 13.7372 9.69603C14.9706 7.79433 16.5718 6.15848 18.4467 4.88471C20.3216 3.61095 22.4323 2.72498 24.6547 2.27894C26.877 1.8329 29.1661 1.83578 31.3873 2.28742C33.6085 2.73905 35.717 3.63033 37.5887 4.90881C39.4604 6.1873 41.0575 7.82717 42.2861 9.73198C43.5147 11.6368 44.35 13.768 44.7428 16.0004" stroke="#D500E6" stroke-width="2" stroke-linecap="round"/>
<circle opacity="0.5" cx="47" cy="53.9465" r="4" transform="rotate(180 47 53.9465)" fill="#D500E6" stroke="#D500E6" stroke-width="2"/>
<circle opacity="0.5" r="4" transform="matrix(1 1.74846e-07 1.74846e-07 -1 11 53.9465)" fill="#D500E6" stroke="#D500E6" stroke-width="2"/>
<circle opacity="0.5" r="4" transform="matrix(1 1.74846e-07 1.74846e-07 -1 29 58.782)" fill="#D500E6" stroke="#D500E6" stroke-width="2"/>
<path d="M39 35.9465L45 35.9465C46.1046 35.9465 47 36.842 47 37.9465L47 53.9465" stroke="black" stroke-width="2" stroke-linecap="round"/>
<path d="M19 35.9465L13 35.9465C11.8954 35.9465 11 36.842 11 37.9465L11 53.9465" stroke="black" stroke-width="2" stroke-linecap="round"/>
<path d="M29 49.782V58.782" stroke="black" stroke-width="2" stroke-linecap="round"/>
<path fill-rule="evenodd" clip-rule="evenodd" d="M26.5467 21.1799C26.2705 21.1799 26.0467 21.4038 26.0467 21.6799V24.5054C24.9623 24.7845 23.9382 25.2137 22.9978 25.7696L20.999 23.7708C20.8037 23.5755 20.4871 23.5755 20.2919 23.7708L16.8223 27.2403C16.6271 27.4355 16.6271 27.7521 16.8223 27.9474L18.8216 29.9467C18.2665 30.8864 17.8378 31.9097 17.5589 32.9932H14.7334C14.4573 32.9932 14.2334 33.2171 14.2334 33.4932V38.3999C14.2334 38.676 14.4573 38.8999 14.7334 38.8999H17.5589C17.8379 39.984 18.267 41.008 18.8227 41.9482L16.8246 43.9463C16.6293 44.1416 16.6293 44.4582 16.8246 44.6534L20.2941 48.123C20.4893 48.3182 20.8059 48.3182 21.0012 48.123L22.9996 46.1246C23.9395 46.6799 24.963 47.1087 26.0467 47.3876V50.2131C26.0467 50.4893 26.2705 50.7131 26.5467 50.7131H31.4533C31.7295 50.7131 31.9533 50.4893 31.9533 50.2131V47.3876C33.0368 47.1088 34.0601 46.6801 34.9999 46.1249L36.9984 48.1234C37.1936 48.3187 37.5102 48.3187 37.7055 48.1234L41.175 44.6539C41.3702 44.4586 41.3702 44.142 41.175 43.9468L39.177 41.9488C39.7328 41.0084 40.162 39.9842 40.4411 38.8999H43.2666C43.5427 38.8999 43.7666 38.676 43.7666 38.3999V33.4932C43.7666 33.2171 43.5427 32.9932 43.2666 32.9932H40.4411C40.1622 31.9095 39.7334 30.886 39.178 29.9461L41.1772 27.9469C41.3725 27.7517 41.3725 27.4351 41.1772 27.2398L37.7077 23.7703C37.5124 23.575 37.1959 23.575 37.0006 23.7703L35.0017 25.7692C34.0614 25.2136 33.0375 24.7845 31.9533 24.5054V21.6799C31.9533 21.4038 31.7295 21.1799 31.4533 21.1799H26.5467ZM29 44.8065C33.8932 44.8065 37.86 40.8398 37.86 35.9465C37.86 31.0533 33.8932 27.0866 29 27.0866C24.1068 27.0866 20.14 31.0533 20.14 35.9465C20.14 40.8398 24.1068 44.8065 29 44.8065Z" fill="black"/>
<circle opacity="0.5" cx="28.9997" cy="35.9465" r="5.42998" transform="rotate(180 28.9997 35.9465)" stroke="#D500E6" stroke-width="2"/>
<circle cx="29" cy="35.9465" r="2" transform="rotate(180 29 35.9465)" stroke="black" stroke-width="2"/>
</svg>
