<svg width="50" height="50" viewBox="0 0 50 50" fill="none" xmlns="http://www.w3.org/2000/svg">
<path fill-rule="evenodd" clip-rule="evenodd" d="M36 8.5498C36.5523 8.5498 37 8.99752 37 9.5498V11.5498H39C39.5523 11.5498 40 11.9975 40 12.5498C40 13.1021 39.5523 13.5498 39 13.5498H37V15.5498C37 16.1021 36.5523 16.5498 36 16.5498C35.4477 16.5498 35 16.1021 35 15.5498V13.5498H33C32.4477 13.5498 32 13.1021 32 12.5498C32 11.9975 32.4477 11.5498 33 11.5498H35V9.5498C35 8.99752 35.4477 8.5498 36 8.5498Z" fill="#D500E6" fill-opacity="0.5"/>
<path fill-rule="evenodd" clip-rule="evenodd" d="M41.8183 1.31731C42.2088 0.926783 42.842 0.926783 43.2325 1.31731L44.2932 2.37797C44.6837 2.76849 44.6837 3.40166 44.2932 3.79218C43.9026 4.18271 43.2695 4.18271 42.8789 3.79218L41.8183 2.73152C41.4278 2.341 41.4278 1.70783 41.8183 1.31731ZM48.1822 1.31731C48.5728 1.70783 48.5728 2.341 48.1822 2.73152L47.1216 3.79218C46.7311 4.18271 46.0979 4.18271 45.7074 3.79218C45.3168 3.40166 45.3168 2.76849 45.7074 2.37797L46.768 1.31731C47.1586 0.926783 47.7917 0.926783 48.1822 1.31731ZM44.2932 5.20639C44.6837 5.59692 44.6837 6.23008 44.2932 6.62061L43.2325 7.68127C42.842 8.07179 42.2088 8.07179 41.8183 7.68127C41.4278 7.29074 41.4278 6.65758 41.8183 6.26706L42.8789 5.20639C43.2695 4.81587 43.9026 4.81587 44.2932 5.20639ZM45.7074 5.20639C46.0979 4.81587 46.7311 4.81587 47.1216 5.20639L48.1822 6.26706C48.5728 6.65758 48.5728 7.29074 48.1822 7.68127C47.7917 8.07179 47.1586 8.07179 46.768 7.68127L45.7074 6.62061C45.3168 6.23008 45.3168 5.59692 45.7074 5.20639Z" fill="#D500E6" fill-opacity="0.5"/>
<path fill-rule="evenodd" clip-rule="evenodd" d="M28.5 0C29.0523 0 29.5 0.447715 29.5 1V2.5C29.5 3.05228 29.0523 3.5 28.5 3.5C27.9477 3.5 27.5 3.05228 27.5 2.5V1C27.5 0.447715 27.9477 0 28.5 0ZM24 4.5C24 3.94772 24.4477 3.5 25 3.5H26.5C27.0523 3.5 27.5 3.94772 27.5 4.5C27.5 5.05228 27.0523 5.5 26.5 5.5H25C24.4477 5.5 24 5.05228 24 4.5ZM29.5 4.5C29.5 3.94772 29.9477 3.5 30.5 3.5H32C32.5523 3.5 33 3.94772 33 4.5C33 5.05228 32.5523 5.5 32 5.5H30.5C29.9477 5.5 29.5 5.05228 29.5 4.5ZM28.5 5.5C29.0523 5.5 29.5 5.94772 29.5 6.5V8C29.5 8.55228 29.0523 9 28.5 9C27.9477 9 27.5 8.55228 27.5 8V6.5C27.5 5.94772 27.9477 5.5 28.5 5.5Z" fill="#D500E6" fill-opacity="0.5"/>
<path fill-rule="evenodd" clip-rule="evenodd" d="M6.89474 13.5498C6.39232 13.5498 6 13.9512 6 14.428V39.7842C6 40.261 6.39232 40.6624 6.89474 40.6624H18.5711C20.4857 40.6624 22.2237 41.7832 23 43.5258C23.7763 41.7832 25.5143 40.6624 27.4289 40.6624H39.1053C39.6077 40.6624 40 40.261 40 39.7842V29.2888C40 28.7365 40.4477 28.2888 41 28.2888C41.5523 28.2888 42 28.7365 42 29.2888V39.7842C42 41.382 40.6957 42.6624 39.1053 42.6624H27.4289C26.2865 42.6624 25.2602 43.3371 24.8144 44.3682C24.4634 45.18 23.7131 45.5582 23 45.5496C22.2869 45.5582 21.5366 45.18 21.1856 44.3682C20.7398 43.3371 19.7135 42.6624 18.5711 42.6624H6.89474C5.30428 42.6624 4 41.382 4 39.7842V14.428C4 12.8302 5.30428 11.5498 6.89474 11.5498H18.2632C20.1133 11.5498 21.7894 12.2967 23 13.5035C24.2106 12.2967 25.8867 11.5498 27.7368 11.5498H29C29.5523 11.5498 30 11.9975 30 12.5498C30 13.1021 29.5523 13.5498 29 13.5498H27.7368C26.1046 13.5498 24.6697 14.3746 23.8305 15.6257L23 16.8639L22.1695 15.6257C21.3303 14.3746 19.8954 13.5498 18.2632 13.5498H6.89474Z" fill="black"/>
<path fill-rule="evenodd" clip-rule="evenodd" d="M23 14.5498C23.5523 14.5498 24 14.9975 24 15.5498V39.5498C24 40.1021 23.5523 40.5498 23 40.5498C22.4477 40.5498 22 40.1021 22 39.5498V15.5498C22 14.9975 22.4477 14.5498 23 14.5498Z" fill="black"/>
<path fill-rule="evenodd" clip-rule="evenodd" d="M0 16.4927C0 15.4061 0.889579 14.5498 1.95652 14.5498H5C5.55228 14.5498 6 14.9975 6 15.5498C6 16.1021 5.55228 16.5498 5 16.5498H2V44.7212H16.3043C17.1423 44.7212 17.8261 45.0933 18.3444 45.5087C18.8568 45.9193 19.2839 46.4345 19.6128 46.846C19.9546 47.2737 20.4857 47.5498 21.087 47.5498H24.913C25.5143 47.5498 26.0454 47.2737 26.3872 46.846C26.7161 46.4345 27.1432 45.9193 27.6556 45.5087C28.1739 45.0933 28.8577 44.7212 29.6957 44.7212H44V25.5498C44 24.9975 44.4477 24.5498 45 24.5498C45.5523 24.5498 46 24.9975 46 25.5498V44.7784C46 45.8649 45.1104 46.7212 44.0435 46.7212H29.6957C29.4771 46.7212 29.2242 46.8146 28.9064 47.0693C28.5827 47.3287 28.2745 47.6881 27.9495 48.0947C27.2404 48.9818 26.1416 49.5498 24.913 49.5498H21.087C19.8584 49.5498 18.7596 48.9818 18.0505 48.0947C17.7255 47.6881 17.4173 47.3287 17.0936 47.0693C16.7758 46.8146 16.5229 46.7212 16.3043 46.7212H1.95652C0.889579 46.7212 0 45.8649 0 44.7784V16.4927Z" fill="black"/>
<path fill-rule="evenodd" clip-rule="evenodd" d="M46.5666 16.146L45.1524 14.7318C44.9571 14.5365 44.6405 14.5365 44.4453 14.7318L32.3667 26.8103L31.003 30.2954L34.488 28.9317L46.5666 16.8531C46.7619 16.6578 46.7619 16.3413 46.5666 16.146ZM46.5666 13.3176C45.5903 12.3413 44.0074 12.3413 43.0311 13.3176L30.8046 25.544C30.7071 25.6416 30.6307 25.7583 30.5805 25.8867L28.3076 31.6951C27.9899 32.5072 28.7912 33.3085 29.6033 32.9908L35.4116 30.7179C35.5401 30.6676 35.6568 30.5913 35.7544 30.4938L47.9808 18.2673C48.9571 17.291 48.9571 15.7081 47.9808 14.7318L46.5666 13.3176Z" fill="#D500E6"/>
<path fill-rule="evenodd" clip-rule="evenodd" d="M41.2636 15.085C41.6541 14.6945 42.2873 14.6945 42.6778 15.085L46.2133 18.6206C46.6039 19.0111 46.6039 19.6443 46.2133 20.0348C45.8228 20.4253 45.1897 20.4253 44.7991 20.0348L41.2636 16.4992C40.8731 16.1087 40.8731 15.4756 41.2636 15.085Z" fill="#D500E6"/>
</svg>
