<svg width="64" height="56" viewBox="0 0 64 56" fill="none" xmlns="http://www.w3.org/2000/svg">
<path opacity="0.5" d="M50 49C50 45.134 53.134 42 57 42V42C60.866 42 64 45.134 64 49V49C64 52.866 60.866 56 57 56V56C53.134 56 50 52.866 50 49V49Z" fill="#D500E6"/>
<path opacity="0.5" d="M25 49C25 45.134 28.134 42 32 42V42C35.866 42 39 45.134 39 49V49C39 52.866 35.866 56 32 56V56C28.134 56 25 52.866 25 49V49Z" fill="#D500E6"/>
<path opacity="0.5" d="M0 49C0 45.134 3.13401 42 7 42V42C10.866 42 14 45.134 14 49V49C14 52.866 10.866 56 7 56V56C3.13401 56 0 52.866 0 49V49Z" fill="#D500E6"/>
<path fill-rule="evenodd" clip-rule="evenodd" d="M27.8421 2.65517C32.5523 1.22219 37.7431 2.17891 41.4435 5.13554ZM41.4438 5.13579C45.1343 8.08736 46.7687 12.554 45.8119 16.8547C45.746 17.1509 45.8181 17.4609 46.0079 17.6975C46.1977 17.9342 46.4847 18.0719 46.788 18.0719H49.428C53.9713 18.0719 57.6654 21.7784 57.6654 26.3679C57.6654 30.9601 53.9713 34.6666 49.4254 34.6666H17.7507C11.4081 34.6666 6.33203 29.7267 6.33203 23.7119C6.33203 17.6999 11.4079 12.7599 17.7507 12.7599C18.2191 12.7599 18.6247 12.4348 18.7267 11.9776C19.688 7.66752 23.1329 4.08982 27.8418 2.65526M27.2596 0.741868C32.5759 -0.875638 38.4567 0.188902 42.6923 3.57334L42.6926 3.5736C46.6003 6.69874 48.5718 11.3734 47.9764 16.0719H49.428C55.0875 16.0719 59.6654 20.6854 59.6654 26.3679C59.6654 32.053 55.0875 36.6666 49.4254 36.6666H17.7507C10.376 36.6666 4.33203 30.9024 4.33203 23.7119C4.33203 16.78 9.95317 11.1724 16.9678 10.7817C18.3181 6.04934 22.2043 2.28184 27.2593 0.741966L27.2596 0.741868Z" fill="black"/>
<path fill-rule="evenodd" clip-rule="evenodd" d="M32 35C32.5523 35 33 35.4477 33 36V47C33 47.5523 32.5523 48 32 48C31.4477 48 31 47.5523 31 47V36C31 35.4477 31.4477 35 32 35Z" fill="black"/>
<path fill-rule="evenodd" clip-rule="evenodd" d="M42.666 34.667C43.2183 34.667 43.666 35.1147 43.666 35.667V46.3337C43.666 47.2541 44.4122 48.0003 45.3327 48.0003H54.4993C55.0516 48.0003 55.4993 48.448 55.4993 49.0003C55.4993 49.5526 55.0516 50.0003 54.4993 50.0003H45.3327C43.3076 50.0003 41.666 48.3587 41.666 46.3337V35.667C41.666 35.1147 42.1137 34.667 42.666 34.667Z" fill="black"/>
<path fill-rule="evenodd" clip-rule="evenodd" d="M21.3333 34.667C21.8856 34.667 22.3333 35.1147 22.3333 35.667V46.3337C22.3333 48.3587 20.6917 50.0003 18.6667 50.0003H9C8.44772 50.0003 8 49.5526 8 49.0003C8 48.448 8.44772 48.0003 9 48.0003H18.6667C19.5871 48.0003 20.3333 47.2541 20.3333 46.3337V35.667C20.3333 35.1147 20.781 34.667 21.3333 34.667Z" fill="black"/>
<path fill-rule="evenodd" clip-rule="evenodd" d="M57 50C57.5523 50 58 49.5523 58 49C58 48.4477 57.5523 48 57 48C56.4477 48 56 48.4477 56 49C56 49.5523 56.4477 50 57 50ZM57 52C58.6569 52 60 50.6569 60 49C60 47.3431 58.6569 46 57 46C55.3431 46 54 47.3431 54 49C54 50.6569 55.3431 52 57 52Z" fill="black"/>
<path fill-rule="evenodd" clip-rule="evenodd" d="M32 50C32.5523 50 33 49.5523 33 49C33 48.4477 32.5523 48 32 48C31.4477 48 31 48.4477 31 49C31 49.5523 31.4477 50 32 50ZM32 52C33.6569 52 35 50.6569 35 49C35 47.3431 33.6569 46 32 46C30.3431 46 29 47.3431 29 49C29 50.6569 30.3431 52 32 52Z" fill="black"/>
<path fill-rule="evenodd" clip-rule="evenodd" d="M7 50C7.55228 50 8 49.5523 8 49C8 48.4477 7.55228 48 7 48C6.44772 48 6 48.4477 6 49C6 49.5523 6.44772 50 7 50ZM7 52C8.65685 52 10 50.6569 10 49C10 47.3431 8.65685 46 7 46C5.34315 46 4 47.3431 4 49C4 50.6569 5.34315 52 7 52Z" fill="black"/>
<path fill-rule="evenodd" clip-rule="evenodd" d="M37 28.6603C40.094 26.8739 42 23.5727 42 20C42 14.4772 37.5228 10 32 10C26.4772 10 22 14.4772 22 20C22 23.5727 23.906 26.8739 27 28.6603C30.094 30.4466 33.906 30.4466 37 28.6603ZM38 30.3923C41.7128 28.2487 44 24.2872 44 20C44 13.3726 38.6274 8 32 8C25.3726 8 20 13.3726 20 20C20 24.2872 22.2872 28.2487 26 30.3923C29.7128 32.5359 34.2872 32.5359 38 30.3923Z" fill="#D500E6"/>
<path fill-rule="evenodd" clip-rule="evenodd" d="M32 28C36.4183 28 40 24.4183 40 20C40 15.5817 36.4183 12 32 12C27.5817 12 24 15.5817 24 20C24 24.4183 27.5817 28 32 28ZM32 30C37.5228 30 42 25.5228 42 20C42 14.4772 37.5228 10 32 10C26.4772 10 22 14.4772 22 20C22 25.5228 26.4772 30 32 30Z" fill="black"/>
<path fill-rule="evenodd" clip-rule="evenodd" d="M36.16 19.6716C36.2792 19.7377 36.3532 19.8633 36.3532 19.9996C36.3532 20.136 36.2792 20.2615 36.16 20.3276L30.557 23.4406C30.4408 23.5051 30.2992 23.5033 30.1847 23.4359C30.0702 23.3685 30 23.2455 30 23.1126V16.8866C30 16.6006 30.307 16.4206 30.557 16.5596L36.16 19.6716Z" stroke="black" stroke-width="1.5" stroke-linecap="round" stroke-linejoin="round"/>
</svg>
