<svg width="56" height="56" viewBox="0 0 56 56" fill="none" xmlns="http://www.w3.org/2000/svg">
<path fill-rule="evenodd" clip-rule="evenodd" d="M8 27C8.55228 27 9 27.4477 9 28C9 32.1825 10.3801 36.2482 12.9263 39.5665C15.4725 42.8847 19.0424 45.2701 23.0824 46.3526C27.1225 47.4351 31.4068 47.1543 35.271 45.5537C39.1352 43.9531 42.3632 41.1222 44.4545 37.5C44.7306 37.0217 45.3422 36.8578 45.8205 37.134C46.2988 37.4101 46.4627 38.0217 46.1865 38.5C43.8751 42.5035 40.3073 45.6324 36.0364 47.4015C31.7654 49.1705 27.0301 49.4809 22.5648 48.2844C18.0995 47.088 14.1538 44.4515 11.3396 40.784C8.52539 37.1165 7 32.6228 7 28C7 27.4477 7.44772 27 8 27Z" fill="#D500E6"/>
<path d="M7.5662 22.75C7.75865 22.4167 8.23978 22.4167 8.43223 22.75L11.0303 27.25C11.2228 27.5833 10.9822 28 10.5973 28H5.40114C5.01624 28 4.77567 27.5833 4.96812 27.25L7.5662 22.75Z" fill="#D500E6"/>
<path fill-rule="evenodd" clip-rule="evenodd" d="M48 29C47.4477 29 47 28.5523 47 28C47 23.8175 45.6199 19.7518 43.0737 16.4335C40.5275 13.1153 36.9576 10.7299 32.9176 9.64741C28.8775 8.56489 24.5932 8.8457 20.729 10.4463C16.8648 12.0469 13.6368 14.8778 11.5455 18.5C11.2694 18.9783 10.6578 19.1422 10.1795 18.866C9.7012 18.5899 9.53732 17.9783 9.81347 17.5C12.1249 13.4965 15.6927 10.3676 19.9636 8.59853C24.2346 6.82945 28.9699 6.51909 33.4352 7.71556C37.9005 8.91203 41.8462 11.5485 44.6604 15.216C47.4746 18.8835 49 23.3772 49 28C49 28.5523 48.5523 29 48 29Z" fill="#D500E6"/>
<path fill-rule="evenodd" clip-rule="evenodd" d="M27 1C27 0.447715 27.4477 0 28 0C28.5251 0 29.0486 0.0147479 29.5701 0.0440157C30.1215 0.0749635 30.5434 0.547063 30.5125 1.09848C30.4815 1.6499 30.0094 2.07182 29.458 2.04087C28.9738 2.0137 28.4876 2 28 2C27.4477 2 27 1.55228 27 1ZM35.9737 2.18484C36.1561 1.66356 36.7266 1.38885 37.2479 1.57127C38.2365 1.91723 39.205 2.3184 40.1487 2.77284C40.6463 3.01246 40.8554 3.61009 40.6158 4.10768C40.3762 4.60528 39.7786 4.81441 39.281 4.5748C38.4047 4.1528 37.5053 3.78028 36.5873 3.45902C36.066 3.2766 35.7913 2.70613 35.9737 2.18484ZM45.2457 7.20117C45.6137 6.78937 46.2459 6.75389 46.6577 7.12192C47.0471 7.46997 47.4277 7.82974 47.799 8.20101C48.1703 8.57228 48.53 8.95291 48.8781 9.34235C49.2461 9.75414 49.2106 10.3863 48.7988 10.7543C48.387 11.1224 47.7549 11.0869 47.3868 10.6751C47.0637 10.3135 46.7296 9.96001 46.3848 9.61522C46.04 9.27044 45.6865 8.93635 45.3249 8.61316C44.9131 8.24513 44.8776 7.61296 45.2457 7.20117ZM51.8923 15.3842C52.3899 15.1446 52.9875 15.3537 53.2272 15.8513C53.6816 16.795 54.0828 17.7635 54.4287 18.7521C54.6112 19.2734 54.3364 19.8439 53.8152 20.0263C53.2939 20.2087 52.7234 19.934 52.541 19.4127C52.2197 18.4947 51.8472 17.5953 51.4252 16.719C51.1856 16.2214 51.3947 15.6238 51.8923 15.3842ZM54.9015 25.4875C55.4529 25.4566 55.925 25.8785 55.956 26.4299C55.9853 26.9514 56 27.4749 56 28C56 28.5251 55.9853 29.0486 55.956 29.5701C55.925 30.1215 55.4529 30.5434 54.9015 30.5125C54.3501 30.4815 53.9282 30.0094 53.9591 29.458C53.9863 28.9738 54 28.4876 54 28C54 27.5124 53.9863 27.0262 53.9591 26.542C53.9282 25.9906 54.3501 25.5185 54.9015 25.4875ZM53.8152 35.9737C54.3364 36.1561 54.6112 36.7266 54.4287 37.2479C54.0828 38.2365 53.6816 39.205 53.2272 40.1487C52.9875 40.6463 52.3899 40.8554 51.8923 40.6158C51.3947 40.3762 51.1856 39.7786 51.4252 39.281C51.8472 38.4047 52.2197 37.5053 52.541 36.5873C52.7234 36.066 53.2939 35.7913 53.8152 35.9737ZM48.7988 45.2457C49.2106 45.6137 49.2461 46.2459 48.8781 46.6576C48.53 47.0471 48.1703 47.4277 47.799 47.799C47.4277 48.1703 47.0471 48.53 46.6577 48.8781C46.2459 49.2461 45.6137 49.2106 45.2457 48.7988C44.8776 48.387 44.9131 47.7549 45.3249 47.3868C45.6865 47.0637 46.04 46.7296 46.3848 46.3848C46.7296 46.04 47.0637 45.6865 47.3868 45.3249C47.7549 44.9131 48.387 44.8776 48.7988 45.2457ZM40.6158 51.8923C40.8554 52.3899 40.6463 52.9875 40.1487 53.2272C39.205 53.6816 38.2365 54.0828 37.2479 54.4287C36.7266 54.6112 36.1561 54.3364 35.9737 53.8152C35.7913 53.2939 36.066 52.7234 36.5873 52.541C37.5053 52.2197 38.4047 51.8472 39.281 51.4252C39.7786 51.1856 40.3762 51.3947 40.6158 51.8923ZM30.5125 54.9015C30.5434 55.4529 30.1215 55.925 29.5701 55.956C29.0486 55.9853 28.5251 56 28 56C27.4477 56 27 55.5523 27 55C27 54.4477 27.4477 54 28 54C28.4876 54 28.9738 53.9863 29.458 53.9591C30.0094 53.9282 30.4815 54.3501 30.5125 54.9015Z" fill="#D500E6" fill-opacity="0.5"/>
<path d="M48.4338 33.25C48.2413 33.5833 47.7602 33.5833 47.5678 33.25L44.9697 28.75C44.7772 28.4167 45.0178 28 45.4027 28L50.5989 28C50.9838 28 51.2243 28.4167 51.0319 28.75L48.4338 33.25Z" fill="#D500E6"/>
<path fill-rule="evenodd" clip-rule="evenodd" d="M28 2C21.1044 2 14.4912 4.73928 9.61522 9.61522C4.73928 14.4912 2 21.1044 2 28C2 34.8956 4.73928 41.5088 9.61522 46.3848C14.4912 51.2607 21.1044 54 28 54C28.5523 54 29 54.4477 29 55C29 55.5523 28.5523 56 28 56C20.5739 56 13.452 53.05 8.20101 47.799C2.94999 42.548 0 35.4261 0 28C0 20.5739 2.94999 13.452 8.20101 8.20101C13.452 2.94999 20.5739 0 28 0C28.5523 0 29 0.447715 29 1C29 1.55228 28.5523 2 28 2Z" fill="black"/>
<path opacity="0.5" fill-rule="evenodd" clip-rule="evenodd" d="M33 36.6603C36.094 34.8739 38 31.5727 38 28C38 22.4772 33.5228 18 28 18C22.4772 18 18 22.4772 18 28C18 31.5727 19.906 34.8739 23 36.6603C26.094 38.4466 29.906 38.4466 33 36.6603ZM34 38.3923C37.7128 36.2487 40 32.2872 40 28C40 21.3726 34.6274 16 28 16C21.3726 16 16 21.3726 16 28C16 32.2872 18.2872 36.2487 22 38.3923C25.7128 40.5359 30.2872 40.5359 34 38.3923Z" fill="#D500E6"/>
<path d="M30.6912 27.9997L27 25.9496V30.0505L30.6912 27.9997Z" fill="black"/>
<path fill-rule="evenodd" clip-rule="evenodd" d="M28 38C33.5228 38 38 33.5228 38 28C38 22.4772 33.5228 18 28 18C22.4772 18 18 22.4772 18 28C18 33.5228 22.4772 38 28 38ZM25 24.8866C25 23.8355 26.1284 23.1775 27.0426 23.6854L32.6447 26.797C33.0815 27.0394 33.3532 27.5001 33.3532 27.9996C33.3532 28.4991 33.0823 28.9593 32.6457 29.2018L32.6447 29.2023L27.0427 32.3148C26.6167 32.5512 26.0971 32.5448 25.6773 32.2976C25.2576 32.0504 25 31.5997 25 31.1126V24.8866Z" fill="black"/>
</svg>
