<svg width="54" height="44" fill="none" xmlns="http://www.w3.org/2000/svg"><path opacity=".498" fill-rule="evenodd" clip-rule="evenodd" d="M44.734 13.633L40.39 15.91a.784.784 0 01-1.136-.82l.83-4.821-3.514-3.414a.778.778 0 01.434-1.33l4.856-.704L44.032.435a.784.784 0 011.404 0l2.171 4.385 4.856.704a.78.78 0 01.434 1.33l-3.514 3.414.828 4.82a.78.78 0 01-1.134.821l-4.343-2.276zm-36 0L4.39 15.91a.784.784 0 01-1.136-.82l.83-4.821L.571 6.854a.778.778 0 01.433-1.33L5.86 4.82 8.032.435a.784.784 0 011.403 0l2.172 4.385 4.856.704a.78.78 0 01.434 1.33l-3.514 3.414.828 4.82a.78.78 0 01-1.134.821l-4.343-2.276zm18 0L22.39 15.91a.784.784 0 01-1.136-.82l.83-4.821-3.514-3.414a.778.778 0 01.434-1.33l4.856-.704L26.032.435a.784.784 0 011.404 0l2.171 4.385 4.856.704a.78.78 0 01.434 1.33l-3.514 3.414.828 4.82a.78.78 0 01-1.134.821l-4.343-2.276z" fill="#D500E6"/><path d="M37.583 31.858L26.333 43l-11.25-11.142a7.5 7.5 0 1111.25-9.849 7.5 7.5 0 1111.25 9.858" stroke="#000" stroke-width="2" stroke-linecap="round" stroke-linejoin="round"/><path d="M26.333 22l-4.94 4.94a1.5 1.5 0 000 2.12l.815.815a2.653 2.653 0 003.75 0l1.5-1.5a4.773 4.773 0 016.75 0l3.375 3.375m-10.5 4.5l3 3m.75-6.75l3 3" stroke="#000" stroke-width="2" stroke-linecap="round" stroke-linejoin="round"/></svg>