<svg width="48" height="48" fill="none" xmlns="http://www.w3.org/2000/svg"><path d="M13.314 32C8.17 32 4 27.986 4 23.034c0-4.95 4.17-8.964 9.314-8.964.786-3.524 3.588-6.4 7.35-7.546 3.76-1.144 7.912-.386 10.888 1.992 2.976 2.38 4.324 6.014 3.54 9.538h1.98c3.826 0 6.928 3.12 6.928 6.972C44 28.88 40.898 32 37.07 32H13.314M24 32v10m8-10v8a2 2 0 002 2h8M16 32v8a2 2 0 01-2 2H6" stroke="#000" stroke-width="2" stroke-linecap="round" stroke-linejoin="round"/><rect opacity=".5" x="1" y="37" width="10" height="10" rx="5" fill="#D500E6"/><rect opacity=".5" x="19" y="37" width="10" height="10" rx="5" fill="#D500E6"/><rect opacity=".5" x="38" y="37" width="10" height="10" rx="5" fill="#D500E6"/></svg>