<svg width="48" height="61" viewBox="0 0 48 61" fill="none" xmlns="http://www.w3.org/2000/svg">
<path opacity="0.5" fill-rule="evenodd" clip-rule="evenodd" d="M10 31.1533C10 38.8853 16.268 45.1533 24 45.1533C31.732 45.1533 38 38.8853 38 31.1533C38 23.4213 31.732 17.1533 24 17.1533C16.268 17.1533 10 23.4213 10 31.1533ZM24 43.1533C17.3726 43.1533 12 37.7807 12 31.1533C12 24.5259 17.3726 19.1533 24 19.1533C30.6274 19.1533 36 24.5259 36 31.1533C36 37.7807 30.6274 43.1533 24 43.1533Z" fill="#D500E6"/>
<path fill-rule="evenodd" clip-rule="evenodd" d="M24 41.1533C18.4772 41.1533 14 36.6762 14 31.1533C14 25.6305 18.4772 21.1533 24 21.1533C29.5228 21.1533 34 25.6305 34 31.1533C34 36.6762 29.5228 41.1533 24 41.1533ZM24 43.1533C17.3726 43.1533 12 37.7807 12 31.1533C12 24.5259 17.3726 19.1533 24 19.1533C30.6274 19.1533 36 24.5259 36 31.1533C36 37.7807 30.6274 43.1533 24 43.1533Z" fill="black"/>
<path fill-rule="evenodd" clip-rule="evenodd" d="M30.75 29.8544C31.75 30.4318 31.75 31.8752 30.75 32.4525L21.75 37.6487C20.75 38.226 19.5 37.5043 19.5 36.3496L19.5 25.9573C19.5 24.8026 20.75 24.0809 21.75 24.6583L30.75 29.8544ZM29 31.1535L21.5 26.8233L21.5 35.4836L29 31.1535Z" fill="#D500E6"/>
<path fill-rule="evenodd" clip-rule="evenodd" d="M44.3832 11.0594C37.2766 9.48361 30.3847 6.39335 24.7032 2.22824C24.2881 1.92392 23.7119 1.92392 23.2968 2.22824C17.6153 6.39335 10.7234 9.48361 3.61677 11.0594C3.17375 11.1576 2.92656 11.463 2.87469 11.7378C1.02149 21.5548 2.13637 31.931 5.99638 40.717C9.94641 49.7079 16.3845 56.1743 23.7865 58.9552C23.9242 59.0069 24.0758 59.0069 24.2135 58.9552C31.6155 56.1743 38.0536 49.7079 42.0036 40.717C45.8636 31.931 46.9785 21.5548 45.1253 11.7378C45.0734 11.463 44.8262 11.1576 44.3832 11.0594ZM25.8857 0.615254C24.7667 -0.205084 23.2333 -0.205085 22.1143 0.615254C16.6644 4.61058 10.0297 7.58887 3.18382 9.10681C2.04639 9.35901 1.12551 10.222 0.909397 11.3668C-1.01525 21.5622 0.13586 32.3498 4.1653 41.5215C8.28691 50.9029 15.0805 57.8209 23.0831 60.8274C23.6743 61.0495 24.3257 61.0495 24.9169 60.8274C32.9195 57.8209 39.7131 50.9029 43.8347 41.5215C47.8641 32.3498 49.0152 21.5622 47.0906 11.3668C46.8745 10.222 45.9536 9.35901 44.8162 9.10681C37.9703 7.58887 31.3356 4.61058 25.8857 0.615254Z" fill="black"/>
</svg>
