<svg width="280" height="138" fill="none" xmlns="http://www.w3.org/2000/svg"><path d="M65.141 12.616a8.64 8.64 0 00-.605-2.23 1.019 1.019 0 00-.534-.631 1.14 1.14 0 00-.529-.006l-2.716.4a1.07 1.07 0 00-.62.232c-.354.358-.005.934-.016 1.428-.012.556-.525 1.007-1.081 1.156a4.247 4.247 0 01-1.718-.02l-3.799-.569a6.282 6.282 0 002.874-1.845c.5-.57.766-1.633.043-1.903a1.84 1.84 0 00-.66-.051c-1.72.013-3.075-1.37-4.686-1.952-2.115-.715-4.468-.04-5.831 1.673l2.023.094a.93.93 0 01.54.138c.443.35-.108 1.024-.046 1.573.081.713 1.065.865 1.807.937.742.072 1.683.652 1.326 1.282-3.728 1.236-7.523-2.415-11.439-1.966-.99.114-1.927.489-2.894.724-5.912 1.44-12.023-2.4-18.061-1.587-1.343.22-2.662.555-3.943 1-.822.26-1.679.54-2.276 1.143-.597.602-.824 1.632-.259 2.261a13.716 13.716 0 01-4.636-.424 2.488 2.488 0 011.336 2.203 28.31 28.31 0 00-7.047 2.067c.418.67.907 1.296 1.458 1.87L.07 21.517c1.042.252 1.58 1.618.974 2.471 1.08-.462 1.75-1.657 2.904-1.9.756-.158 1.526.14 2.243.419.718.28 1.507.55 2.25.34.742-.209 1.29-1.136.818-1.726a39.828 39.828 0 019.763-1.468c.255-.03.513.017.739.135.43.288.317.908.294 1.412-.023.503.385 1.165.852.938-.55.46-.08 1.323.448 1.806.528.483 1.165 1.15.841 1.777-.084.164-.227.295-.308.46-.24.489.14 1.058.59 1.382.448.324.998.551 1.31 1 .31.449.17 1.235-.388 1.297l-1.584-1.935a3.92 3.92 0 00-1.07 1.951c1.68 1.322 1.932 4.01.526 5.6-.719.813-1.74 1.306-2.632 1.94-.893.634-1.718 1.536-1.716 2.603.004 1.843-.152 3.555.566 5.264a79.786 79.786 0 004.575 9.184c.453.78 1.038 1.633 1.954 1.767a105.902 105.902 0 01-3.129-8.27c.604.002 1.302.049 1.656.52.294.39.23.92.322 1.393.116.459.309.896.572 1.294l5.534 9.485c.458.786.985 1.63 1.861 1.948.56.204 1.21.166 1.725.459.405.23.677.637 1.09.853 1.165.612 2.786-.561 3.876.17.311.208.51.54.796.78 1.006.838 2.657.277 3.818.902.749.403 1.137 1.21 1.536 1.94 1 1.83 2.619 3.622 4.762 3.768.673.046 1.36-.077 2.02.067.657.144 1.305.697 1.2 1.338-.182 1.1.383 2.304.231 3.408-.276 2.01-3.24 2.894-3.494 4.907-.056.44.031.896-.078 1.327-.134.529-.546.96-.693 1.485-.278.996.464 1.987 1.278 2.658.815.67 1.787 1.248 2.233 2.186.47.991.24 2.147.392 3.227.334 2.358 2.451 4.106 4.63 5.233.663.344 1.376.676 1.805 1.272.561.778.505 1.803.692 2.732.459 2.275 2.45 4.15 2.506 6.467.04 1.647-.911 3.141-1.48 4.695a10.584 10.584 0 00.93 9.08c.425.691.934 1.342 1.234 2.091.537 1.337.363 2.856.858 4.207.654 1.786 2.452 3.262 2.28 5.149.816 1.631 2.618 2.432 4.43 2.917l3.249.87c.621.167 1.271.335 1.905.214.633-.121 1.237-.627 1.221-1.247-1.593-.346-3.237-.714-4.55-1.648-1.313-.933-2.212-2.596-1.714-4.093.231-.693.723-1.495.255-2.068-.267-.328-.756-.414-1.058-.713-.47-.467-.31-1.252.03-1.815.338-.563.827-1.067.963-1.704a1.753 1.753 0 00-.866-1.849 4.616 4.616 0 001.608-.993c.423-.464.618-1.181.285-1.709.988.121 2.154.18 2.802-.547.518-.581.482-1.448.278-2.188-.205-.739-.55-1.457-.561-2.222 2.278.104 4.561.03 6.827-.222a4.297 4.297 0 00-2.076-2.502c1.026-.167 1.961-1.349 2.285-2.3.325-.952.242-1.988.042-2.971a1.534 1.534 0 01-.031-.778c.115-.355.477-.571.812-.756l5.093-2.814a2.98 2.98 0 00.815-.579c.534-.603.455-1.513.181-2.26-.273-.748-.71-1.45-.816-2.236-.315-2.35 2.3-4.035 3.181-6.247.346-.868.417-1.811.484-2.739.072-.996.077-2.153-.718-2.794-.761-.616-1.952-.479-2.75-1.05-.73-.526-.982-1.545-1.781-1.968-.725-.385-1.635-.14-2.441-.322-1.42-.318-2.314-1.893-3.764-2.04-.819-.081-1.745.304-2.416-.155-.59-.404-.614-1.216-.727-1.905-.403-2.194-2.185-3.913-4.463-4.309-.844-.13-1.762-.08-2.48-.527-.727-.451-1.06-1.297-1.631-1.923-.92-1.008-2.37-1.366-3.727-1.673l-5.522-1.25c-.98-.221-2.244-.339-2.77.487a3.714 3.714 0 00-.327.992c-.405 1.274-1.617 2.152-3.001 2.173a3.533 3.533 0 00-2.093-1.558c-.56-.15-1.16-.166-1.693-.387a2.317 2.317 0 01-1.227-1.374 2.212 2.212 0 01.194-1.801 2.77 2.77 0 00-.505-3.427c-.94-.81-2.298-1.007-3.557-.926-.33-.692.222-1.473.816-1.977.594-.503 1.316-.997 1.445-1.749.203-1.181-1.364-2.08-2.554-1.727-1.19.353-1.95 1.465-2.451 2.561-.289.63-.533 1.291-.988 1.822-.454.53-1.186.91-1.878.74-.98-.241-1.358-1.361-1.575-2.312-.291-1.275-.584-2.568-.523-3.872.06-1.305.518-2.644 1.518-3.527 1.628-1.439 4.127-1.298 6.325-1.068-.519-.563-.39-1.512.165-2.042a2.482 2.482 0 012.187-.517c.662.133 1.26.476 1.694.975.625.732.803 1.722 1.275 2.554.472.832 1.534 1.541 2.403 1.095.75-.386.87-1.387.683-2.186-.187-.799-.584-1.575-.516-2.391.129-1.557 1.806-2.495 3.287-3.136 1.48-.641 3.175-1.504 3.41-3.05a2.69 2.69 0 01.175-.886 1.78 1.78 0 01.663-.6c4.32-2.746 8.713-5.527 13.651-7.029.257-.078.287.01.55-.052.365-.204.123-.767-.229-.994-.351-.228-.82-.402-.91-.8-.065-.293.114-.58.16-.876.115-.727-.79-1.399-1.492-1.108-.396-.505.389-1.093 1.023-1.26a28.783 28.783 0 015.836-.918 1.08 1.08 0 01.664.109c.331.22.29.727.054 1.043-.235.315-.6.513-.893.78A2.285 2.285 0 0076 32.03c1.03.504 2.15 1.023 3.291.846 1.141-.178 2.154-1.412 1.618-2.397-.5-.917-2-1.124-2.258-2.13-.302-1.177 1.43-2.224 1.04-3.377-.171-.505-.694-.803-1.096-1.167a3.08 3.08 0 01-.72-3.512 4.257 4.257 0 01-3.641-1.096c-.871-.846-1.566-2.18-2.803-2.142-1.135.034-2.113 1.309-3.174.92-.261-.096-.536-.29-.79-.176a.624.624 0 00-.294.47c-.27 1.24.194 2.654-.508 3.726-.765 1.167-2.534 1.329-3.461 2.38-.504.572-.699 1.341-1.161 1.944-.463.602-1.445.984-2 .46.562-1.112.252-2.45-.748-3.225a7.478 7.478 0 00-1.654-.774 9.924 9.924 0 01-1.848-.99 1.78 1.78 0 01-.678-.699 1.535 1.535 0 01.046-1.104c.574-1.583 2.012-2.73 3.735-2.978.739-.097 1.6-.063 2.088-.605.26-.286.395-.72.77-.836.241-.047.49-.017.712.084l2.759.934c.308.134.647.188.983.157a.648.648 0 00.576-.674c-.088-.441-.793-.652-.73-1.097a.727.727 0 01.232-.374c2.016-2.064 4.885-3.154 7.823-2.972.348.55-.203 1.202-.66 1.671-.459.47-.827 1.31-.273 1.671.227.112.48.167.734.16.68.088 1.34.28 1.956.57.953.4 1.888.836 2.805 1.31-.08-.581-.158-1.194.07-1.738.23-.544.881-.97 1.45-.758.548.204.83.902 1.413.966.78.086 1.087-1.022.761-1.708-.325-.687-.97-1.261-1.023-2.014-.036-.508.164-1.137-.257-1.445a1.18 1.18 0 00-.497-.168L70.063 8.281c-.625-.11-1.528-.026-1.556.585-.016.34.301.678.16.992-.149.334-.64.304-.999.422-.555.184-.834.819-.78 1.381.097.56.322 1.091.659 1.557-.685-.275-1.721-.326-2.406-.602zM56.743 4.02c-1.36-.433-2.855-.002-3.743 1.079-.174.22-.32.522-.174.76.208.34.738.206 1.129.084a2.947 2.947 0 011.783-.04c.367.12.695.335 1.063.451.366.147.786.088 1.092-.153.253-.249.27-.634.27-.982a.77.77 0 00-.21-.649 1.104 1.104 0 00-.483-.137 1.68 1.68 0 01-.975-.548m4.043-.882a.879.879 0 00-.762.361.807.807 0 00-.076.814c.456.12.933.15 1.401.088a1.18 1.18 0 00.98-.864 2.329 2.329 0 01-1.597-.293m12.788-1.804a16.556 16.556 0 00-3.593 1.175c1.108.41 1.808 1.469 1.724 2.608a1.31 1.31 0 00.016.645c.132.308.514.424.85.503a5.814 5.814 0 001.866.229 1.911 1.911 0 001.544-.908 6.33 6.33 0 01.321-.73c.806-1.181 3.2.247 4.065-.895.305-.402.277-1.007.674-1.325a1.55 1.55 0 01.693-.255 50.468 50.468 0 015.264-.721c.838-.07 1.929-.36 1.936-1.168a15.096 15.096 0 00-9.302 1.204c-1.037.5-2.408 1.55-3.407.888-.374-.248-.355-.916-.87-1.195-.526-.285-1.223-.169-1.781-.055z" fill="#F0F4F5"/><path d="M83.585 3.161l1.48.274A1.958 1.958 0 0083.598 4a1.805 1.805 0 00-.528 1.435c1.387.446 2.898.012 4.358.071 1.46.06 3.16 1.063 2.91 2.449-.075.419-.326.838-.195 1.244.091.285.352.487.5.749.306.546.061 1.237-.326 1.734-.388.497-.909.893-1.25 1.42-.845 1.313-.365 3.01.14 4.477a3.88 3.88 0 00.788 1.516c.747.764 1.964.83 3.054.845.793.011 1.701-.026 2.203-.617.655-.773.197-1.977.628-2.883.392-.823 1.39-1.176 2.293-1.426 1.656-.459 3.344-.849 4.909-1.542 1.944-.86 3.761-2.2 5.897-2.311.6-.031 1.214.037 1.791-.121.578-.158 1.126-.639 1.083-1.215-.038-.492-.471-.853-.809-1.224-.338-.372-.604-.942-.293-1.335l5.601-1.006c-.397-1.041-.707-2.412.206-3.09.329-.244.769-.342 1.05-.637.477-.504.237-1.372-.314-1.8-.552-.429-1.297-.528-2.003-.584-2.456-.197-4.926-.067-7.386.063l-14.428.76c-.969.052-2.087-.026-2.975.292-.751.269-1.286.763-2.145.936-1.588.32-3.334.104-4.77.961zm26.521 11.259a.615.615 0 00-.431.094.517.517 0 00-.14.32 2.042 2.042 0 00.319 1.51c.311.448.85.696 1.408.65.666-.081 1.157-.629 1.77-.896.945-.41 4.956-1.052 2.181-2.494-.956-.497-1.574-.058-2.328.269a5.471 5.471 0 01-2.779.547zM134.41 2.347a1.565 1.565 0 00-.771.645.638.638 0 00.254.865c.121.042.249.061.378.057l1.317.038c.56.016 1.259.13 1.409.65.112.385-.138.88.163 1.156a.87.87 0 00.449.168 3.17 3.17 0 001.327.041c.959-.247.455-.81.757-1.311.462-.767.382-.303 1.196-.743.601-.324 1.377-.913.876-1.74-.873-1.44-6.068-.444-7.355.174zm26.002-.723l-.765.098c-1.725.221-3.46.445-5.122.943a8.81 8.81 0 002.243.53c.424.02.844.077 1.257.172.733.21 1.473.753 2.182.475.439-.173.583-.613.947-.847.252-.16 1.205-.422 1.312-.584.862-1.315-1.392-.873-2.054-.787zm3.359 3.345a14.325 14.325 0 00-2.823 1.989c-.36.325-.727.73-.694 1.203.043.63.74.995 1.344 1.24l2.445.997c.297-.403.026-.958-.281-1.353-.307-.396-.671-.853-.536-1.329.155-.543.843-.728 1.42-.821.94-.153 3.476-.14 3.171-1.598-.359-1.718-3.102-.836-4.046-.328zm-.492 97.197c-.233.649-.255 1.413.148 1.979.452.635 1.356.872 2.139.711a3.868 3.868 0 001.985-1.228 6.56 6.56 0 001.142-1.685c.403-.958.687-1.959.847-2.98l.759-3.837c.17-.857.163-3.485-1.474-2.629-.448.234-1.483 2.081-1.952 2.605-.845.944-.957 1.86-1.402 3.003-.557 1.433-1.677 2.627-2.192 4.061zm86.492 19.63a12.291 12.291 0 01-1.556-.713 12.167 12.167 0 00-.789 4.136l3.666-1.996c.552-.3 1.177-.718 1.165-1.327a.415.415 0 00-.202-.382.502.502 0 00-.257-.029c-.544.044-1.04.301-1.553.48-.513.179-1.112.274-1.583.008m20.451 1.008a8.128 8.128 0 00-1.176.406c-.841.412-1.413 1.194-2.171 1.737-.724.519-1.596.804-2.453 1.081-.252.214-.136.646.138.834.294.161.631.234.968.209.89.019 1.827.028 2.606-.386.439-.274.85-.588 1.227-.937.911-.731 2.005-1.214 3.088-1.68a3.57 3.57 0 001.076-.619c.681-.645.729-1.641-.253-1.86-.793-.178-2.295.98-3.05 1.215zm8.546-5.372a2.883 2.883 0 00-.936-2.411c-.01.888-.038 1.834-.557 2.569-.37.523-.95.876-1.355 1.375-.405.498-.585 1.288-.11 1.726.304.222.674.345 1.056.35.946.107 2.041.166 2.705-.491.362-.359.538-.891.98-1.155.165-.066.312-.168.43-.296.183-.279-.107-.647-.434-.747-.326-.101-.685-.054-1.013-.149-.328-.096-.629-.45-.461-.738m-15.495-32.595a4.41 4.41 0 01-1.517.086c-.843-.149-1.498-.76-2.178-1.26a9.85 9.85 0 00-5.614-1.888c-1.848-.033-3.713.449-5.528.112.118.635.683 1.111 1.285 1.394.602.283 1.267.425 1.872.702a4.379 4.379 0 012.165 2.167c.195.438.317.914.612 1.297.604.78 1.748.952 2.757.888 1.316-.083 2.69-.447 3.915.025.936.36 1.606 1.15 2.388 1.763.782.613 1.884 1.068 2.782.626-1.915-.597-3.204-2.322-3.182-4.258.881.078 3.418.048 3.281-1.392-.116-1.22-2.281-.394-3.038-.262zm-11.52 9.928c.156-.825 1.011-1.553.745-2.352-.184-.553-.85-.825-1.453-.839-.602-.014-1.194.16-1.797.175a9.118 9.118 0 00-1.177.017c-1.196.189-1.934 1.395-3.061 1.824-.686.261-1.456.211-2.169.392-1.618.409-2.642 1.88-3.774 3.067a13.59 13.59 0 01-6.835 3.835c-.92.205-1.91.337-2.641.912-.969.761-1.207 2.067-1.423 3.252a52.068 52.068 0 01-2.718 9.6l3.843.472c.731.09 1.488.178 2.192-.03a6.46 6.46 0 001.442-.739 14.742 14.742 0 015.622-1.953c1.007-.133 2.062-.157 3.006.203.945.36 1.755 1.176 1.834 2.15a2.426 2.426 0 012.359.552c.602.59.996 1.347 1.127 2.164.101.506.202 1.112.69 1.324.398.173.855-.013 1.29-.047 1.478-.113 2.704 1.544 4.156 1.259 1.557-.306 1.94-2.551 3.459-3 .873-.258 2.097.056 2.515-.725.368-.689-.367-1.483-.291-2.254.093-.949 1.257-1.352 2.154-1.757 3.092-1.396 4.56-5.401 3.061-8.355-.888-1.75-2.635-3.127-2.957-5.05-.248-1.48.358-3.204-.623-4.368-.498-.593-1.342-.92-1.639-1.626-.187-.445-.112-.95-.212-1.42-.101-.47-.527-.961-1.009-.84-1.4.354-1.847 4.515-2.597 5.526-1.139 1.537-3.478.525-3.119-1.369zm-25.878-8.355c-.478-.13-1.001-.257-1.459-.072-.459.184-.726.832-.358 1.153 2.878-.108 5.774-.215 8.628.161 3.288.434 6.542 1.507 9.844 1.191a51.745 51.745 0 00-5.743-1.282l-3.233-.594a25.892 25.892 0 00-2.625-.39c-1.844-.147-3.24.322-5.054-.168zm2.882-9.646c-.239-.02-.535-.036-.658.162-.118.189.017.439-.047.65-.087.29-.48.364-.791.324-.31-.04-.646-.134-.92.01a.735.735 0 00-.302.853c.112.307.294.586.532.817.407.492.87.94 1.381 1.332.989.703 2.329 1.041 2.952 2.061.088.198.223.373.395.511.299.182.689.044 1.011-.098l1.129-.496c.203-.07.385-.19.528-.346.257-.336.099-.815-.117-1.178-.217-.362-.494-.738-.448-1.154.083-.741 1.074-1.025 1.482-1.66.41-.639.143-1.463.19-2.213.056-.878.629-2.019-.293-2.675-.784-.557-1.533-.042-2.095.573-1.187 1.297-1.748 2.702-3.929 2.527zm6.852-13.111c.385.71 1.189 1.133 1.609 1.825.456.75.404 1.718.898 2.444.507.745 1.527 1.141 1.812 1.989.31.925-.394 2.05.167 2.859a1.28 1.28 0 001.83.162 1.257 1.257 0 00-.055-1.802c-.333-.292-.81-.418-1.088-.758a1.555 1.555 0 01-.281-.66 4.16 4.16 0 01.07-2.07.89.89 0 00.054-.542c-.125-.35-.616-.374-.962-.536-.784-.368-.765-1.433-.628-2.262-.091.552-2.134-.386-2.348-.7-.425-.62-.194-1.818-.278-2.504-.917.425-1.271 1.686-.8 2.555zm-20.583 10.924c-.377-.406-.945-.831-1.451-.586-.386.187-.492.7-.341 1.09.185.377.468.703.823.943 1.054.836 2.188 1.59 3.107 2.563 1.645 1.739 2.517 4.086 4.306 5.688.359.372.835.62 1.355.706.521.047 1.107-.274 1.167-.775.049-.412-.25-.78-.542-1.086-.694-.727-1.455-1.397-2.111-2.157a1.784 1.784 0 01-.54-1.084c-.003-.41.384-.838.796-.736-.501-.124-.872-.927-1.608-1.078-.614-.126-.763.24-1.495-.062-1.395-.576-2.489-2.374-3.466-3.426zm32.781-39.552c-.4-.114-.794-.25-1.179-.405-1.036-.299-2.406.434-2.268 1.466.092.685.755 1.148 1.121 1.743.543.882.399 2 .113 2.989-.07.305-.203.595-.392.85a2.99 2.99 0 01-.928.642 12.3 12.3 0 00-3.633 2.97.844.844 0 00-.219.398c-.05.348.314.602.52.893.457.645.127 1.514.172 2.294a.642.642 0 00.284.57c.276.134.602-.095.752-.355.495-.864.122-2.251 1.052-2.668.176-.079.389-.112.506-.26.187-.236.007-.586.101-.867.142-.424.744-.443 1.205-.424a7.092 7.092 0 002.35-.3 1.59 1.59 0 00.777-.434c.278-.334.254-.809.198-1.233a16.276 16.276 0 00-2.052-6.024c.817.1 1.706.187 2.41-.222.395-.23.868-.915.673-1.382-.31-.739-.869-.117-1.563-.24zM142.289 46.87c.098.505.194 1.036.022 1.522-.171.486-.712.892-1.222.743-.396-.115-.625-.499-.906-.79-1.564-1.626-5.093-.685-6.059-2.695-.395-.82-.127-1.803-.396-2.669-.349-1.03-1.377-1.702-2.5-1.634a5.276 5.276 0 00-1.439.413 37.45 37.45 0 01-9.533 2.294 8.11 8.11 0 00-1.832.32c-1.343.47-2.261 1.667-2.914 2.89s-1.135 2.546-2.011 3.633c-.92 1.141-2.21 1.94-3.413 2.805a3.417 3.417 0 00-1.126 1.136c-.26.515-.246 1.114-.225 1.687l.245 6.955c.032.895.072 1.821.488 2.622.52 1 1.546 1.654 2.258 2.537a4.844 4.844 0 011.072 3.175c-.015.46-.063 1.005.31 1.294.227.141.492.215.762.21l9.779.77c1.72.136 3.626.359 4.749 1.62.53.595.956 1.45 1.767 1.515.349.027.687-.11 1.036-.137.878-.067 1.65.575 2.138 1.282a5.522 5.522 0 01.949 3.648c-.08.806-.34 1.59-.396 2.398-.213 3.075 2.496 5.747 2.549 8.828.031 1.813-.864 3.506-1.736 5.113 1.408 2.051.255 4.782.816 7.18.531 2.275 2.502 4.056 2.994 6.339.224 1.045.237 2.332 1.195 2.87.421.197.887.287 1.353.261 2.816.032 5.6-.578 8.124-1.78 1.184-.565 2.412-1.409 2.619-2.666.166-1.014-.368-2.147.176-3.03.641-1.04 2.282-.958 3.224-1.758 1.529-1.297.337-3.772.957-5.641.557-1.68 2.474-2.573 3.424-4.08a7.097 7.097 0 00.796-2.076c.435-1.737.706-3.508.809-5.292a30.86 30.86 0 01.249-3.242c1.025-6.125 7.318-10.226 9.361-16.11.195-.562.287-1.31-.233-1.628a1.54 1.54 0 00-.989-.1l-4.508.547c-.56.068-1.153.131-1.667-.092-.515-.224-.883-.85-.61-1.325.765-1.335-.81-3.02-1.509-4.388a64.436 64.436 0 00-6.701-10.457 1.045 1.045 0 01-.294-.614l1.279.041c-.432-1.49-1.144-3.122-2.65-3.668-.848-.307-1.788-.2-2.693-.153-2.592.136-5.372-.24-7.938-.622z" fill="#F0F4F5"/><path d="M150.229 13.271c.678.693 1.439 1.428 2.42 1.55 1.734.213 2.98-1.512 3.774-3.01.061.793.768 1.397 1.595 1.36.428-.07.836-.223 1.2-.451a24.368 24.368 0 0111.197-2.785c-.078-.591.32-1.143.923-1.28.796-.151 1.513.51 1.897 1.198.384.688.623 1.485 1.233 2 .61.515 1.791.492 2.032-.253.231-.716-.544-1.326-1.188-1.748-.643-.422-1.322-1.203-.888-1.825 3.289-.7 6.598-1.404 9.963-1.543a4.325 4.325 0 001.678-.278c.513-.243.921-.793.783-1.327-1.503.34-3.069-.228-3.964-1.438 4.67-.37 9.637-.687 13.775 1.427.497 1.026-2.034 1.88-1.357 2.805.216.295.649.33 1.024.336 2.876.052 5.768.102 8.612-.316 1.039-.152 2.088-.368 3.132-.244 1.737.206 3.223 1.322 4.933 1.685.696.148 1.476.153 2.062-.236.587-.39.839-1.276.358-1.782 1.61-1.518 4.281-1.142 6.405-.415 2.123.726 4.135 1.898 6.382 2.06 1.612.117 3.246-.3 4.839-.035 1 .166 1.932.594 2.91.858 1.85.497 3.806.392 5.727.416 4.901.064 9.748.99 14.301 2.735a4.296 4.296 0 011.59.903c.423.437.64 1.115.355 1.646l-4.705-.662c.443.84 1.59.983 2.521 1.273.932.29 1.897 1.28 1.338 2.052-1.01-.31-1.924.662-2.434 1.555-.51.893-1.131 1.963-2.189 2.017-.947.049-2.092-.727-2.709-.034a17.673 17.673 0 012.177 3.35c.61 1.222 1.044 2.762.22 3.862-.13.196-.326.343-.556.415-.673.164-1.111-.628-1.594-1.109-.608-.605-1.528-.776-2.352-1.06-.824-.284-1.692-.842-1.756-1.682-.04-.523.246-1.008.458-1.491.355-.814.51-1.695.453-2.576-.046-.71-.253-1.446-.782-1.942-.528-.495-1.442-.652-2.01-.198-.265.211-.477.55-.821.563-.608.022-1.075-.998-1.564-.65.057.371-.023.75-.226 1.07-1.46 1.221-3.702.704-5.584 1.136-.895.246-1.752.606-2.548 1.07a1.624 1.624 0 00-.728.588c-.235.44.024 1.002.438 1.294.439.26.933.422 1.445.475 2.294.418 4.622 1.065 6.433 2.483 1.811 1.418 2.999 3.762 2.426 5.94l-4.524-4.16c.171 1.746.269 3.498.292 5.254a2.29 2.29 0 01-.143 1.01c-.323.686-1.197.917-1.963 1.068a1.54 1.54 0 00-1.032.693c-.225.362-.279.8-.148 1.202.272.854.951 1.52 1.572 2.182.621.663 1.233 1.417 1.314 2.307.081.889-.616 1.892-1.542 1.83-.701-.047-1.222-.652-1.521-1.264-.3-.613-.478-1.295-.928-1.816-1.361-1.575-4.418-.9-5.638-2.58a2.578 2.578 0 00-.57 2.526c.567-.342 1.344-.024 1.77.472.426.497.627 1.133.962 1.691.452.753 1.171 1.42 1.234 2.287-.017.328-.011.656.017.983.112.525.573.903.893 1.342.745 1.021.708 2.425.228 3.584-.48 1.159-1.342 2.127-2.195 3.066-1.492 1.64-3.013 3.271-4.781 4.633-.505.389-1.043.77-1.357 1.314-.315.544-.331 1.306.152 1.72-.345.016-.965.18-1.31.196a28.11 28.11 0 01-.079-4.01c-1.364-.63-2.832 1.057-2.656 2.502.176 1.446 1.263 2.605 2.036 3.856.566.914.986 1.98.797 3.029-.188 1.048-1.161 2.016-2.263 1.923-1.752-.147-2.485-2.568-4.221-2.845a.735.735 0 00-.457.044c-.257.136-.302.468-.316.75-.071 1.386-.133 2.827.429 4.105.823 1.87 2.948 3.44 2.502 5.424-2.401-1.074-3.65-3.666-4.217-6.155-.566-2.489-.661-5.102-1.677-7.455-.772.952-2.394.165-3.099-.833-.668-.947-1.08-2.042-1.728-3-.649-.96-1.642-1.819-2.83-1.872-1.246-.055-2.326.767-3.276 1.545-.781.639-1.583 1.303-2.04 2.186-.664 1.285-.491 2.8-.523 4.236-.034 1.552-.376 3.189-1.475 4.325-1.099 1.136-3.128 1.532-4.34.508-.633-.535-.94-1.333-1.213-2.1a99.815 99.815 0 01-3.282-11.274c-.204.871-.998 1.993-1.757 1.48a1.508 1.508 0 01-.405-.502c-1.416-2.309-4.039-3.694-6.688-4.524-2.65-.83-5.437-1.218-8.057-2.131a20.72 20.72 0 01-4.18-2.003 3.061 3.061 0 00-.201 3.235c.581.99 1.896 1.563 3.022 1.217.582-.179 1.073-.567 1.651-.76.577-.191 1.352-.097 1.604.438.242.512-.123 1.132.058 1.667.276.814 1.552.877 1.999 1.618.332.552.059 1.284-.415 1.73-.475.444-1.108.688-1.687.998-1.878 1.005-3.214 2.721-4.856 4.056s-3.958 2.31-5.915 1.453c.467-2.272-2.347-3.94-2.864-6.202-.171-.745-.082-1.536-.326-2.261-.352-1.051-1.32-1.773-2.115-2.57-1.947-1.971-2.984-4.617-2.874-7.335.043-.935.221-1.885 0-2.796-.221-.911-1.005-1.793-1.977-1.752-2.219.094-5.015.253-6.179-1.567-.416-.65-.597-1.601.004-2.099.424-.351 1.049-.318 1.606-.265l5 .473c1.17.11 2.434.202 3.438-.386 1.003-.589 1.438-2.15.509-2.842-.679-.506-1.896-.478-2.093-1.283-.164-.67.606-1.429.19-1.989-.299-.4-.969-.29-1.376.011-.406.301-.701.741-1.156.969-.798.4-1.751.02-2.609-.24-.859-.258-2.01-.28-2.426.487-.466.858.413 1.983-.049 2.842-.611 1.137-2.68.49-3.538 1.468-.985 1.121.67 2.794.338 4.227a2.828 2.828 0 01-2.695-.145 2.483 2.483 0 01-1.131-2.345c.082-.645.431-1.303.197-1.912-.189-.493-.703-.786-1.181-1.04l-4.859-2.584c-.451.806.119 1.804.832 2.409.714.604 1.607 1.06 2.076 1.856.615 1.145.197 2.552-.953 3.212a.605.605 0 01-.482.081.648.648 0 01-.312-.404c-.858-2.111-2.145-4.193-4.203-5.295-2.058-1.103-5.015-.876-6.364.981-.321.441-.536.944-.815 1.41-1.484 2.48-4.664 3.653-7.636 3.576-.29.016-.579-.05-.833-.188-.48-.32-.458-.996-.385-1.553l.312-2.364c.063-.475.154-1 .544-1.296.551-.418 1.345-.154 2.046-.164 1.088-.05 2.028-.747 2.353-1.748a2.743 2.743 0 00-.814-2.795c-.321-.29-.752-.655-.582-1.047a.899.899 0 01.63-.408c1.259-.352 2.59-.444 3.828-.86 1.238-.415 2.439-1.264 2.732-2.494.09-.377.131-.833.483-1.02a1.5 1.5 0 01.558-.11c1.391-.19 2.401-1.371 2.328-2.721.593-.4 1.424-.106 1.998.318.575.425 1.081.985 1.78 1.168 1.302.341 2.56-.768 3.909-.773.567-.002 1.155.19 1.688.006.541-.188.864-.706 1.28-1.089.415-.383 1.144-.616 1.527-.204l-.326-2.327a4.91 4.91 0 003.87-.673l-4.221-1.372a.926.926 0 01-.394-.203c-.307-.318-.003-.814.247-1.175.597-.865.697-2.289-.284-2.719-.67-.294-1.439.059-2.083.404l-3.08 1.652c-.098.564.618.883 1.062 1.262a1.67 1.67 0 01.485 1.88c-.257.662-.911 1.105-1.646 1.114a2.07 2.07 0 01.396 1.81l-2.072.143a.928.928 0 01-.673-.127c-.221-.189-.191-.52-.242-.802-.124-.678-.815-1.153-1.519-1.275-.704-.122-1.424.034-2.122.188a1.312 1.312 0 01-.912-.02.88.88 0 01-.361-.438c-.306-.713-.02-1.552.471-2.162.491-.61 1.163-1.055 1.767-1.563a9.876 9.876 0 003.062-4.57c1.141-.46 2.322-1.085 3.463-1.545a10.955 10.955 0 015.696-1.062l3.864.071c1.144.021 2.319.048 3.377.468 1.057.42 1.987 1.327 2.06 2.426a.728.728 0 01-.248.68.939.939 0 01-.488.106c-1.067.036-1.522.292-2.589.328zm-30.797 11.651a1.06 1.06 0 00.309-1.094 2.178 2.178 0 00-2.19.398 3.583 3.583 0 00-.587.747c-.508.797-.957 1.748-.662 2.64a.753.753 0 00.356.469c.132.05.274.072.416.063a14.39 14.39 0 001.673-.1c.341-.04.737-.132.869-.438.173-.4-.246-.855-.124-1.273.081-.187.202-.355.357-.492a.637.637 0 00.211-.546c-.049-.196-.362-.308-.474-.137" fill="#F0F4F5"/><path d="M122.332 21.305a4.862 4.862 0 00-1.516-.092.68.68 0 00-.323.07.515.515 0 00-.199.278c-.223.686.14 1.421.834 1.689.182.04.356.108.517.2.429.32.155.974.236 1.49.092.58.675 1.067.568 1.645-.084.455-.589.815-.508 1.27.085.477.714.62 1.216.659.29.049.589.016.861-.095.272-.18.465-.45.543-.757a4.676 4.676 0 00.254-1.828 1.683 1.683 0 00-.214-.806 4.567 4.567 0 00-.5-.551c-.961-1.076.05-2.68-1.769-3.172z" fill="#F0F4F5"/><ellipse cx="39.381" cy="31.124" rx="3.223" ry="3.101" fill="#00A2E0" stroke="#00A2E0" stroke-width="3"/><ellipse cx="68.498" cy="97.421" rx="3.223" ry="3.101" fill="#00A2E0" stroke="#00A2E0" stroke-width="3"/><ellipse cx="191.968" cy="30.696" rx="3.223" ry="3.101" fill="#00A2E0" stroke="#00A2E0" stroke-width="3"/><ellipse cx="248.646" cy="108.114" rx="3.223" ry="3.101" fill="#00A2E0" stroke="#00A2E0" stroke-width="3"/><ellipse cx="143.403" cy="75.18" rx="3.223" ry="3.101" fill="#00A2E0" stroke="#00A2E0" stroke-width="3"/><path d="M39.187 31.048s23.904 23.5 29.1 66.5c86.263-49 180.32 10.5 180.32 10.5" stroke="#00A2E0"/><path d="M248.607 108.048c-17.148-23-91.459-76.5-209.42-77 24.423 5 52.485 7.5 104.45 44 10.913-19.5 16.629-26.5 48.328-44.5-48.328 1-113.804 41.5-123.678 67" stroke="#00A2E0" stroke-linejoin="round"/></svg>