<svg width="62" height="62" viewBox="0 0 62 62" fill="none" xmlns="http://www.w3.org/2000/svg">
<path fill-rule="evenodd" clip-rule="evenodd" d="M55.7071 6.29289C56.0976 6.68342 56.0976 7.31658 55.7071 7.70711L23.7071 39.7071C23.3166 40.0976 22.6834 40.0976 22.2929 39.7071C21.9024 39.3166 21.9024 38.6834 22.2929 38.2929L54.2929 6.29289C54.6834 5.90237 55.3166 5.90237 55.7071 6.29289Z" fill="#D500E6"/>
<path opacity="0.5" fill-rule="evenodd" clip-rule="evenodd" d="M16 41C16 43.7614 18.2386 46 21 46C23.7614 46 26 43.7614 26 41C26 38.2386 23.7614 36 21 36C18.2386 36 16 38.2386 16 41ZM21 44C19.3431 44 18 42.6569 18 41C18 39.3431 19.3431 38 21 38C22.6569 38 24 39.3431 24 41C24 42.6569 22.6569 44 21 44Z" fill="#D500E6"/>
<path fill-rule="evenodd" clip-rule="evenodd" d="M21 42C20.4477 42 20 41.5523 20 41C20 40.4477 20.4477 40 21 40C21.5523 40 22 40.4477 22 41C22 41.5523 21.5523 42 21 42ZM21 44C19.3431 44 18 42.6569 18 41C18 39.3431 19.3431 38 21 38C22.6569 38 24 39.3431 24 41C24 42.6569 22.6569 44 21 44Z" fill="black"/>
<path fill-rule="evenodd" clip-rule="evenodd" d="M0 43C0 41.3431 1.34315 40 3 40H4.97222C5.52451 40 5.97222 40.4477 5.97222 41C5.97222 41.5523 5.52451 42 4.97222 42H3C2.44772 42 2 42.4477 2 43V45C2 45.5523 1.55228 46 1 46C0.447715 46 0 45.5523 0 45V43ZM7.91667 41C7.91667 40.4477 8.36438 40 8.91667 40H12.8611C13.4134 40 13.8611 40.4477 13.8611 41C13.8611 41.5523 13.4134 42 12.8611 42H8.91667C8.36438 42 7.91667 41.5523 7.91667 41ZM15.8056 41C15.8056 40.4477 16.2533 40 16.8056 40H18.7778C19.3301 40 19.7778 40.4477 19.7778 41C19.7778 41.5523 19.3301 42 18.7778 42H16.8056C16.2533 42 15.8056 41.5523 15.8056 41ZM21 42.8571C21.5523 42.8571 22 43.3049 22 43.8571V45.75C22 46.3023 21.5523 46.75 21 46.75C20.4477 46.75 20 46.3023 20 45.75V43.8571C20 43.3049 20.4477 42.8571 21 42.8571ZM1 48C1.55228 48 2 48.4477 2 49V53C2 53.5523 1.55228 54 1 54C0.447715 54 0 53.5523 0 53V49C0 48.4477 0.447715 48 1 48ZM21 48.5357C21.5523 48.5357 22 48.9834 22 49.5357V53.3214C22 53.8737 21.5523 54.3214 21 54.3214C20.4477 54.3214 20 53.8737 20 53.3214V49.5357C20 48.9834 20.4477 48.5357 21 48.5357ZM1 56C1.55228 56 2 56.4477 2 57V59C2 59.5523 2.44772 60 3 60H5C5.55229 60 6 60.4477 6 61C6 61.5523 5.55229 62 5 62H3C1.34315 62 0 60.6569 0 59V57C0 56.4477 0.447715 56 1 56ZM21 56.1071C21.5523 56.1071 22 56.5549 22 57.1071V59C22 60.6569 20.6569 62 19 62H17C16.4477 62 16 61.5523 16 61C16 60.4477 16.4477 60 17 60H19C19.5523 60 20 59.5523 20 59V57.1071C20 56.5549 20.4477 56.1071 21 56.1071ZM8 61C8 60.4477 8.44772 60 9 60H13C13.5523 60 14 60.4477 14 61C14 61.5523 13.5523 62 13 62H9C8.44772 62 8 61.5523 8 61Z" fill="black"/>
<path fill-rule="evenodd" clip-rule="evenodd" d="M23.5806 40L59 40C59.5523 40 60 39.5523 60 39L60 3.00001C60 2.44772 59.5523 2.00001 59 2.00001L23 2C22.4477 2 22 2.44772 22 3L22 38.8378C22 39.3901 21.5523 39.8378 21 39.8378C20.4477 39.8378 20 39.3901 20 38.8378L20 3C20 1.34315 21.3431 4.07506e-06 23 4.21991e-06L59 7.36713e-06C60.6569 7.51197e-06 62 1.34315 62 3.00001L62 39C62 40.6569 60.6569 42 59 42L23.5806 42C23.0284 42 22.5806 41.5523 22.5806 41C22.5806 40.4477 23.0284 40 23.5806 40Z" fill="black"/>
<path fill-rule="evenodd" clip-rule="evenodd" d="M56 19C55.4477 19 55 18.5523 55 18L55 7L44 7C43.4477 7 43 6.55228 43 6C43 5.44771 43.4477 5 44 5L56 5C56.5523 5 57 5.44772 57 6L57 18C57 18.5523 56.5523 19 56 19Z" fill="#D500E6"/>
</svg>
