<svg width="46" height="62" viewBox="0 0 46 62" fill="none" xmlns="http://www.w3.org/2000/svg">
<path fill-rule="evenodd" clip-rule="evenodd" d="M15 0C15.5523 0 16 0.447715 16 1V8C16 8.55228 15.5523 9 15 9C14.4477 9 14 8.55228 14 8V1C14 0.447715 14.4477 0 15 0Z" fill="black"/>
<path fill-rule="evenodd" clip-rule="evenodd" d="M19 0C19.5523 0 20 0.447715 20 1V8C20 8.55228 19.5523 9 19 9C18.4477 9 18 8.55228 18 8V1C18 0.447715 18.4477 0 19 0Z" fill="black"/>
<path fill-rule="evenodd" clip-rule="evenodd" d="M15 22C15.5523 22 16 22.4477 16 23V27C16 27.5523 15.5523 28 15 28C14.4477 28 14 27.5523 14 27V23C14 22.4477 14.4477 22 15 22Z" fill="black"/>
<path fill-rule="evenodd" clip-rule="evenodd" d="M19 22C19.5523 22 20 22.4477 20 23V27C20 27.5523 19.5523 28 19 28C18.4477 28 18 27.5523 18 27V23C18 22.4477 18.4477 22 19 22Z" fill="black"/>
<path opacity="0.5" d="M28 1C28 0.447715 27.5523 0 27 0H23C22.4477 0 22 0.447716 22 1V9C22 9.55228 22.4477 10 23 10H27C27.5523 10 28 9.55228 28 9V1Z" fill="#D500E6"/>
<path opacity="0.5" d="M19 11H15C14.4477 11 14 11.4477 14 12V20C14 20.5523 14.4477 21 15 21H19C19.5523 21 20 20.5523 20 20V12C20 11.4477 19.5523 11 19 11Z" fill="#D500E6"/>
<path opacity="0.5" d="M27 12H23C22.4477 12 22 12.4477 22 13V17C22 17.5523 22.4477 18 23 18H27C27.5523 18 28 17.5523 28 17V13C28 12.4477 27.5523 12 27 12Z" fill="#D500E6"/>
<path opacity="0.5" d="M35 18H31C30.4477 18 30 18.4477 30 19V23C30 23.5523 30.4477 24 31 24H35C35.5523 24 36 23.5523 36 23V19C36 18.4477 35.5523 18 35 18Z" fill="#D500E6"/>
<path fill-rule="evenodd" clip-rule="evenodd" d="M35 0C35.5523 0 36 0.447715 36 1V11C36 11.5523 35.5523 12 35 12C34.4477 12 34 11.5523 34 11V1C34 0.447715 34.4477 0 35 0Z" fill="black"/>
<path fill-rule="evenodd" clip-rule="evenodd" d="M7 13C7.55228 13 8 13.4477 8 14V24C8 24.5523 7.55228 25 7 25C6.44772 25 6 24.5523 6 24V14C6 13.4477 6.44772 13 7 13Z" fill="black"/>
<path fill-rule="evenodd" clip-rule="evenodd" d="M31 8C31.5523 8 32 8.44772 32 9L32 16C32 16.5523 31.5523 17 31 17C30.4477 17 30 16.5523 30 16L30 9C30 8.44772 30.4477 8 31 8Z" fill="black"/>
<path fill-rule="evenodd" clip-rule="evenodd" d="M11 8C11.5523 8 12 8.44772 12 9L12 16C12 16.5523 11.5523 17 11 17C10.4477 17 10 16.5523 10 16L10 9C10 8.44772 10.4477 8 11 8Z" fill="black"/>
<path fill-rule="evenodd" clip-rule="evenodd" d="M35 13C35.5523 13 36 13.4477 36 14L36 16C36 16.5523 35.5523 17 35 17C34.4477 17 34 16.5523 34 16L34 14C34 13.4477 34.4477 13 35 13Z" fill="#D500E6" fill-opacity="0.5"/>
<path fill-rule="evenodd" clip-rule="evenodd" d="M39 0C39.5523 0 40 0.447715 40 1V8C40 8.55228 39.5523 9 39 9C38.4477 9 38 8.55228 38 8V1C38 0.447715 38.4477 0 39 0Z" fill="black"/>
<path fill-rule="evenodd" clip-rule="evenodd" d="M39 15C39.5523 15 40 15.4477 40 16V24C40 24.5523 39.5523 25 39 25C38.4477 25 38 24.5523 38 24V16C38 15.4477 38.4477 15 39 15Z" fill="black"/>
<path fill-rule="evenodd" clip-rule="evenodd" d="M39 10C39.5523 10 40 10.4477 40 11L40 13C40 13.5523 39.5523 14 39 14C38.4477 14 38 13.5523 38 13L38 11C38 10.4477 38.4477 10 39 10Z" fill="#D500E6" fill-opacity="0.5"/>
<path fill-rule="evenodd" clip-rule="evenodd" d="M7 -4.37114e-08C7.55228 -6.78526e-08 8 0.447715 8 1L8 11C8 11.5523 7.55229 12 7 12C6.44772 12 6 11.5523 6 11L6 1C6 0.447715 6.44772 -1.95703e-08 7 -4.37114e-08Z" fill="black"/>
<path fill-rule="evenodd" clip-rule="evenodd" d="M11 18C11.5523 18 12 18.4477 12 19V24C12 24.5523 11.5523 25 11 25C10.4477 25 10 24.5523 10 24V19C10 18.4477 10.4477 18 11 18Z" fill="#D500E6" fill-opacity="0.5"/>
<path fill-rule="evenodd" clip-rule="evenodd" d="M31 0C31.5523 0 32 0.447715 32 1V6C32 6.55228 31.5523 7 31 7C30.4477 7 30 6.55228 30 6V1C30 0.447715 30.4477 0 31 0Z" fill="black"/>
<path fill-rule="evenodd" clip-rule="evenodd" d="M11 0C11.5523 0 12 0.447715 12 1V6C12 6.55228 11.5523 7 11 7C10.4477 7 10 6.55228 10 6V1C10 0.447715 10.4477 0 11 0Z" fill="#D500E6" fill-opacity="0.5"/>
<path fill-rule="evenodd" clip-rule="evenodd" d="M23 19C23.5523 19 24 19.4477 24 20V26C24 26.5523 23.5523 27 23 27C22.4477 27 22 26.5523 22 26V20C22 19.4477 22.4477 19 23 19Z" fill="black"/>
<path fill-rule="evenodd" clip-rule="evenodd" d="M27 19C27.5523 19 28 19.4477 28 20V26C28 26.5523 27.5523 27 27 27C26.4477 27 26 26.5523 26 26V20C26 19.4477 26.4477 19 27 19Z" fill="black"/>
<path fill-rule="evenodd" clip-rule="evenodd" d="M23 34C19.1323 34 16 37.1323 16 41C16 44.8677 19.1323 48 23 48C26.8677 48 30 44.8677 30 41C30 40.4477 30.4477 40 31 40C31.5523 40 32 40.4477 32 41C32 45.9723 27.9723 50 23 50C18.0277 50 14 45.9723 14 41C14 36.0277 18.0277 32 23 32C24.315 32 25.5546 32.2815 26.6804 32.7881C27.184 33.0147 27.4086 33.6067 27.1819 34.1104C26.9553 34.614 26.3633 34.8386 25.8596 34.6119C24.9854 34.2185 24.025 34 23 34Z" fill="black"/>
<path fill-rule="evenodd" clip-rule="evenodd" d="M31.3477 34.8427C31.7383 35.2332 31.7383 35.8664 31.3477 36.2569L23.3477 44.2569C22.9572 44.6474 22.324 44.6474 21.9335 44.2569L17.9335 40.2569C17.543 39.8664 17.543 39.2332 17.9335 38.8427C18.324 38.4522 18.9572 38.4522 19.3477 38.8427L22.6406 42.1356L29.9335 34.8427C30.324 34.4522 30.9572 34.4522 31.3477 34.8427Z" fill="#D500E6"/>
<path fill-rule="evenodd" clip-rule="evenodd" d="M3 28C2.44772 28 2 28.4477 2 29V59C2 59.5523 2.44772 60 3 60H43C43.5523 60 44 59.5523 44 59V29C44 28.4477 43.5523 28 43 28H3ZM0 29C0 27.3431 1.34315 26 3 26H43C44.6569 26 46 27.3431 46 29V59C46 60.6569 44.6569 62 43 62H3C1.34315 62 0 60.6569 0 59V29Z" fill="black"/>
<path fill-rule="evenodd" clip-rule="evenodd" d="M0 55C0 54.4477 0.447715 54 1 54H45C45.5523 54 46 54.4477 46 55C46 55.5523 45.5523 56 45 56H1C0.447715 56 0 55.5523 0 55Z" fill="black"/>
</svg>
