<svg width="206" height="36" viewBox="0 0 206 36" fill="none" xmlns="http://www.w3.org/2000/svg">
<path d="M123.817 27.7072C123.817 28.1854 123.429 28.5731 122.951 28.5731H120.354C119.875 28.5731 119.488 28.1854 119.488 27.7072L119.488 26.6229C117.782 27.8502 115.689 28.5731 113.427 28.5731C107.688 28.5731 103.037 23.9212 103.037 18.1829C103.037 12.4445 107.688 7.79261 113.427 7.79261C115.689 7.79261 117.782 8.51548 119.488 9.74282L119.488 7.79261C119.488 7.31441 119.875 6.92676 120.354 6.92676H122.951C123.429 6.92676 123.817 7.31441 123.817 7.79261V27.7072ZM113.427 12.1219C110.079 12.1219 107.366 14.8355 107.366 18.1829C107.366 21.5302 110.079 24.2438 113.427 24.2438C116.774 24.2438 119.488 21.5302 119.488 18.1829C119.488 14.8355 116.774 12.1219 113.427 12.1219Z" fill="black"/>
<path d="M82.5087 7.28637C82.7926 7.06725 83.2004 7.11979 83.4196 7.40371C83.5073 7.51737 83.5549 7.65689 83.5549 7.80046V27.7075C83.5549 28.1857 83.1672 28.5734 82.689 28.5734H80.0914C79.6132 28.5734 79.2256 28.1857 79.2256 27.7075V10.2456C79.2256 9.97724 79.35 9.72407 79.5624 9.56012L82.5087 7.28637ZM82.689 1.73193C83.1672 1.73193 83.5549 2.11959 83.5549 2.59779V5.19535C83.5549 5.67355 83.1672 6.0612 82.689 6.0612H80.0914C79.6132 6.0612 79.2256 5.67355 79.2256 5.19535V2.59779C79.2256 2.11959 79.6132 1.73193 80.0914 1.73193H82.689Z" fill="black"/>
<path d="M145.283 7.28637C145.567 7.06725 145.975 7.11979 146.194 7.40371C146.282 7.51737 146.329 7.65689 146.329 7.80046V27.7075C146.329 28.1857 145.942 28.5734 145.463 28.5734H142.866C142.388 28.5734 142 28.1857 142 27.7075V10.2456C142 9.97724 142.124 9.72407 142.337 9.56012L145.283 7.28637ZM145.463 1.73193C145.942 1.73193 146.329 2.11959 146.329 2.59779V5.19535C146.329 5.67355 145.942 6.0612 145.463 6.0612H142.866C142.388 6.0612 142 5.67355 142 5.19535V2.59779C142 2.11959 142.388 1.73193 142.866 1.73193H145.463Z" fill="black"/>
<path d="M75.582 0.359444C75.8659 0.140326 76.2737 0.192864 76.4928 0.476793C76.5805 0.590452 76.6281 0.729974 76.6281 0.873543V27.7075C76.6281 28.1856 76.2404 28.5733 75.7622 28.5733H73.1647C72.6865 28.5733 72.2988 28.1856 72.2988 27.7075V3.31866C72.2988 3.05032 72.4232 2.79715 72.6357 2.6332L75.582 0.359444Z" fill="black"/>
<path d="M130.609 0.476793C130.696 0.590452 130.744 0.729974 130.744 0.873543V22.0791H126.415V3.31866C126.415 3.05032 126.539 2.79715 126.751 2.6332L129.698 0.359444C129.982 0.140326 130.389 0.192864 130.609 0.476793ZM139.619 7.79282C139.759 7.79282 139.896 7.83839 140.008 7.9227C140.295 8.13788 140.354 8.54492 140.138 8.83184L138.428 11.9056C138.306 12.0691 138.113 12.1654 137.909 12.1654L129.986 12.1221V7.79325L139.619 7.79282ZM130.744 22.0794C130.744 23.2434 131.663 24.1929 132.815 24.242L132.908 24.244H135.939C136.417 24.244 136.805 24.6317 136.805 25.1099V27.7075C136.805 28.1856 136.417 28.5733 135.939 28.5733H132.908C129.322 28.5733 126.415 25.6659 126.415 22.0794H130.744Z" fill="black"/>
<path fill-rule="evenodd" clip-rule="evenodd" d="M14.072 0C14.4742 0 14.8124 0.273803 14.9102 0.645044L14.9344 0.645363L25.0469 26.2929L25.4817 27.3882C25.5119 27.4644 25.5311 27.5444 25.5388 27.6257L25.5427 27.7073C25.5427 28.1855 25.1547 28.5732 24.6761 28.5732L21.9436 28.5737C21.8366 28.5732 21.728 28.569 21.6266 28.538C21.3351 28.4524 21.1485 28.2059 21.032 27.9229C19.7313 24.624 18.7559 22.1498 18.1056 20.5004C18.0289 20.306 17.9902 20.2226 17.7771 20.0659C17.635 19.9614 17.4802 19.9118 17.3126 19.9172H8.2591C8.07911 19.9172 7.92551 19.9595 7.7983 20.0442C7.60749 20.1711 7.5305 20.2765 7.45824 20.4444C6.80343 22.1055 5.82122 24.5972 4.5116 27.9194C4.39214 28.2226 4.20492 28.457 3.90317 28.538C3.80741 28.565 3.69833 28.5737 3.59681 28.5732H0.866614C0.387996 28.5732 0 28.1855 0 27.7073C0 27.5981 0.0206936 27.4898 0.0609884 27.3882L0.467105 26.3639L10.6074 0.645363L10.634 0.645044C10.7317 0.273803 11.0699 0 11.4721 0H14.072ZM12.7709 7.70975C12.5835 7.71059 12.4492 7.80437 12.3678 7.99111L9.71512 14.7198C9.65244 14.8983 9.66758 15.0744 9.76054 15.2483C9.89831 15.506 10.1699 15.588 10.3367 15.588C13.5034 15.588 15.1312 15.588 15.2199 15.588C15.4746 15.5694 15.6568 15.4669 15.7665 15.2804C15.8761 15.094 15.8964 14.9077 15.8272 14.7214L13.1726 7.98761C13.0922 7.80158 12.9583 7.70896 12.7709 7.70975Z" fill="black"/>
<path d="M31.4698 7.40341C31.5566 7.51676 31.6037 7.65556 31.6037 7.79831V9.74305L31.721 9.65945C33.3866 8.49541 35.3666 7.83752 37.4489 7.79495L37.6647 7.79275C43.403 7.79275 48.0549 12.4446 48.0549 18.183C48.0549 23.9214 43.403 28.5732 37.6647 28.5732C35.5035 28.5732 33.444 27.9107 31.721 26.7065L31.6037 26.6229V34.6342C31.6037 35.0907 31.2505 35.4646 30.8024 35.4977L30.7378 35.5001H28.1403C27.6621 35.5001 27.2744 35.1124 27.2744 34.6342V10.1201C27.2744 9.91803 27.3685 9.72749 27.5289 9.6046L30.5594 7.28286C30.8441 7.06474 31.2517 7.11871 31.4698 7.40341ZM37.6647 12.122C34.3173 12.122 31.6037 14.8356 31.6037 18.183C31.6037 21.5304 34.3173 24.244 37.6647 24.244C41.012 24.244 43.7256 21.5304 43.7256 18.183C43.7256 14.8356 41.012 12.122 37.6647 12.122Z" fill="black"/>
<path d="M53.982 7.40341C54.0688 7.51676 54.1159 7.65556 54.1159 7.79831V9.74305L54.2332 9.65945C55.8988 8.49541 57.8788 7.83752 59.9611 7.79495L60.1769 7.79275C65.9152 7.79275 70.5671 12.4446 70.5671 18.183C70.5671 23.9214 65.9152 28.5732 60.1769 28.5732C58.0157 28.5732 55.9562 27.9107 54.2332 26.7065L54.1159 26.6229V34.6342C54.1159 35.0907 53.7627 35.4646 53.3147 35.4977L53.25 35.5001H50.6525C50.1743 35.5001 49.7866 35.1124 49.7866 34.6342V10.1201C49.7866 9.91803 49.8807 9.72749 50.0411 9.6046L53.0716 7.28286C53.3563 7.06474 53.7639 7.11871 53.982 7.40341ZM60.1769 12.122C56.8295 12.122 54.1159 14.8356 54.1159 18.183C54.1159 21.5304 56.8295 24.244 60.1769 24.244C63.5242 24.244 66.2378 21.5304 66.2378 18.183C66.2378 14.8356 63.5242 12.122 60.1769 12.122Z" fill="black"/>
<path d="M95.6769 7.79248C98.2968 7.79248 100.69 8.76214 102.518 10.3622C102.607 10.4402 102.732 10.6103 102.737 10.833C102.743 11.0558 102.63 11.2302 102.557 11.3035C101.625 12.2353 100.909 12.9515 100.408 13.4521C100.334 13.5266 100.18 13.6505 99.9529 13.6505C99.7255 13.6505 99.594 13.5564 99.5165 13.4928C98.4711 12.636 97.134 12.1217 95.6769 12.1217C92.3295 12.1217 89.6159 14.8353 89.6159 18.1827C89.6159 21.5301 92.3295 24.2437 95.6769 24.2437C97.1303 24.2437 98.4643 23.7321 99.5086 22.8791C99.5879 22.8143 99.7263 22.7149 99.963 22.7149C100.2 22.7149 100.359 22.8651 100.435 22.9407C101.353 23.8588 102.059 24.5649 102.553 25.059C102.631 25.1368 102.74 25.3203 102.739 25.5119C102.737 25.7068 102.624 25.9098 102.54 25.9835C100.71 27.5953 98.3076 28.573 95.6769 28.573C89.9385 28.573 85.2866 23.9211 85.2866 18.1827C85.2866 12.4444 89.9385 7.79248 95.6769 7.79248Z" fill="black"/>
<path d="M158.451 7.35986C164.19 7.35986 168.842 12.0117 168.842 17.7501C168.842 23.4885 164.19 28.1403 158.451 28.1403C152.713 28.1403 148.061 23.4885 148.061 17.7501C148.061 12.0117 152.713 7.35986 158.451 7.35986ZM158.451 11.6891C155.104 11.6891 152.39 14.4027 152.39 17.7501C152.39 21.0975 155.104 23.8111 158.451 23.8111C161.799 23.8111 164.512 21.0975 164.512 17.7501C164.512 14.4027 161.799 11.6891 158.451 11.6891Z" fill="black"/>
<path d="M174.289 6.8531L171.343 9.12685C171.13 9.2908 171.006 9.54397 171.006 9.81232V27.2743C171.006 27.7525 171.394 28.1401 171.872 28.1401H174.469C174.947 28.1401 175.335 27.7525 175.335 27.2743V16.4511L175.337 16.3245C175.401 13.7513 177.512 11.6889 180.097 11.6889C182.727 11.6889 184.86 13.821 184.86 16.4511V27.2743C184.86 27.7525 185.247 28.1401 185.725 28.1401H188.323C188.801 28.1401 189.189 27.7525 189.189 27.2743V16.4511L189.188 16.2983C189.104 11.3396 185.06 7.35964 180.097 7.35964L179.891 7.36193C178.315 7.39709 176.804 7.8352 175.479 8.61829L175.335 8.70514V7.36715C175.335 7.22363 175.288 7.0841 175.2 6.97045C174.981 6.68652 174.573 6.63398 174.289 6.8531Z" fill="black"/>
<path d="M199.363 28.1362L198.692 28.1355C196.063 28.082 193.709 26.8832 192.098 25.0088C192.029 24.9279 191.934 24.775 191.951 24.5536C191.968 24.3322 192.101 24.1651 192.183 24.1001L194.568 22.2126C194.647 22.1495 194.817 22.0674 194.988 22.0772C195.169 22.0876 195.35 22.1938 195.415 22.2656C196.275 23.2109 197.491 23.8081 198.79 23.8081L199.363 23.807C200.439 23.807 201.311 22.9348 201.311 21.8588C201.311 20.7829 200.439 19.9106 199.363 19.9106H197.848C194.481 19.7929 191.787 17.0277 191.787 13.6332C191.787 10.1663 194.593 7.36328 198.06 7.36328H198.276C200.905 7.4168 203.302 8.6163 204.912 10.4907C204.982 10.5716 205.076 10.7246 205.059 10.946C205.042 11.1674 204.91 11.3344 204.828 11.3995L202.443 13.287C202.363 13.35 202.193 13.4322 202.022 13.4223C201.842 13.4119 201.661 13.3057 201.595 13.2339C200.735 12.2886 199.52 11.6914 198.221 11.6914L197.917 11.6905C196.91 11.7659 196.116 12.6069 196.116 13.6332C196.116 14.7091 196.988 15.5814 198.064 15.5814H199.579C202.946 15.6993 205.64 18.4645 205.64 21.8588C205.64 25.3257 202.83 28.1362 199.363 28.1362Z" fill="black"/>
</svg>
