<svg width="57" height="57" viewBox="0 0 57 57" fill="none" xmlns="http://www.w3.org/2000/svg">
<circle cx="28.8203" cy="28.9854" r="15" stroke="black" stroke-width="2"/>
<path d="M36.8203 28.9854C36.8203 33.2644 35.8426 37.089 34.3127 39.8088C32.7652 42.5599 30.7839 43.9854 28.8203 43.9854C26.8568 43.9854 24.8754 42.5599 23.3279 39.8088C21.7981 37.089 20.8203 33.2644 20.8203 28.9854C20.8203 24.7063 21.7981 20.8817 23.3279 18.1619C24.8754 15.4108 26.8568 13.9854 28.8203 13.9854C30.7839 13.9854 32.7652 15.4108 34.3127 18.1619C35.8426 20.8817 36.8203 24.7063 36.8203 28.9854Z" stroke="black" stroke-width="2"/>
<path d="M13.8203 28.9854H44.8203" stroke="black" stroke-width="2"/>
<path d="M28.8203 13.9854L28.8203 44.9854" stroke="black" stroke-width="2"/>
<path d="M46.1408 38.9854C43.9395 42.7982 40.5415 45.7781 36.474 47.4629C32.4064 49.1478 27.8966 49.4434 23.6439 48.3039C19.3913 47.1644 15.6334 44.6535 12.9532 41.1606C10.2731 37.6677 8.82031 33.388 8.82031 28.9854" stroke="#D500E6" stroke-width="2" stroke-linecap="round"/>
<path d="M8.3873 23.7354C8.57975 23.402 9.06087 23.402 9.25333 23.7354L11.8514 28.2354C12.0439 28.5687 11.8033 28.9854 11.4184 28.9854H6.22224C5.83734 28.9854 5.59677 28.5687 5.78922 28.2354L8.3873 23.7354Z" fill="#D500E6"/>
<path d="M11.4998 18.9853C13.7011 15.1725 17.0991 12.1926 21.1666 10.5078C25.2342 8.82292 29.744 8.52733 33.9967 9.66683C38.2494 10.8063 42.0072 13.3172 44.6874 16.8101C47.3676 20.303 48.8203 24.5827 48.8203 28.9853" stroke="#D500E6" stroke-width="2" stroke-linecap="round"/>
<path d="M28.8203 55.9854C21.6595 55.9854 14.7919 53.1407 9.72843 48.0772C4.66495 43.0138 1.82031 36.1462 1.82031 28.9854C1.82031 21.8245 4.66495 14.957 9.72843 9.89347C14.7919 4.82999 21.6595 1.98535 28.8203 1.98535" stroke="black" stroke-width="2" stroke-linecap="round"/>
<path d="M28.8203 55.9854C35.9812 55.9854 42.8487 53.1407 47.9122 48.0772C52.9757 43.0138 55.8203 36.1462 55.8203 28.9854C55.8203 21.8245 52.9757 14.957 47.9122 9.89347C42.8487 4.82999 35.9812 1.98535 28.8203 1.98535" stroke="black" stroke-linecap="round" stroke-dasharray="4 10"/>
<path d="M49.2533 34.2354C49.0609 34.5687 48.5798 34.5687 48.3873 34.2354L45.7892 29.7354C45.5968 29.402 45.8373 28.9854 46.2222 28.9854L51.4184 28.9854C51.8033 28.9854 52.0439 29.402 51.8514 29.7354L49.2533 34.2354Z" fill="#D500E6"/>
</svg>
