<svg width="48" height="48" viewBox="0 0 48 48" fill="none" xmlns="http://www.w3.org/2000/svg">
<path fill-rule="evenodd" clip-rule="evenodd" d="M0 31.12C0 29.7877 1.07772 28.71 2.41 28.71H4C4.55228 28.71 5 29.1577 5 29.71V36.71C5 37.2622 4.55228 37.71 4 37.71H2.41C2.34713 37.71 2.28561 37.7042 2.22595 37.6931C0.979856 37.5992 0 36.5603 0 35.29V31.12ZM3 35.71H2.55195C2.50558 35.7034 2.45819 35.7 2.41 35.7C2.18228 35.7 2 35.5177 2 35.29V31.12C2 30.8922 2.18228 30.71 2.41 30.71H3V35.71Z" fill="black"/>
<path fill-rule="evenodd" clip-rule="evenodd" d="M26 29.71C26 29.1577 26.4477 28.71 27 28.71H28.59C29.9223 28.71 31 29.7877 31 31.12V35.29C31 36.5603 30.0201 37.5992 28.774 37.6931C28.7144 37.7042 28.6529 37.71 28.59 37.71H27C26.4477 37.71 26 37.2622 26 36.71V29.71ZM28.448 35.71C28.4944 35.7034 28.5418 35.7 28.59 35.7C28.8177 35.7 29 35.5177 29 35.29V31.12C29 30.8922 28.8177 30.71 28.59 30.71H28V35.71H28.448Z" fill="black"/>
<path fill-rule="evenodd" clip-rule="evenodd" d="M15.5 18.25C9.73172 18.25 5 22.9729 5 28.75V29.71C5 30.2623 4.55228 30.71 4 30.71C3.44772 30.71 3 30.2623 3 29.71V28.75C3 21.8671 8.62828 16.25 15.5 16.25C22.3717 16.25 28 21.8671 28 28.75V29.71C28 30.2623 27.5523 30.71 27 30.71C26.4477 30.71 26 30.2623 26 29.71V28.75C26 22.9729 21.2683 18.25 15.5 18.25Z" fill="black"/>
<path fill-rule="evenodd" clip-rule="evenodd" d="M27 35.71C27.5523 35.71 28 36.1577 28 36.71V38.13C28 43.3508 23.7337 47.71 18.5 47.71H18C17.4477 47.71 17 47.2622 17 46.71V43.75C17 43.1977 17.4477 42.75 18 42.75C18.5523 42.75 19 43.1977 19 43.75V45.6929C22.8782 45.4274 26 42.0998 26 38.13V36.71C26 36.1577 26.4477 35.71 27 35.71Z" fill="black"/>
<path fill-rule="evenodd" clip-rule="evenodd" d="M23 29.8398C23.5523 29.8398 24 30.2876 24 30.8398V38.9198C24 39.6867 23.9111 40.4472 23.731 41.1789C23.599 41.7151 23.0573 42.0429 22.521 41.9109C21.9847 41.7789 21.657 41.2371 21.789 40.7008C21.9289 40.1325 22 39.533 22 38.9198V30.8398C22 30.2876 22.4477 29.8398 23 29.8398Z" fill="black"/>
<path fill-rule="evenodd" clip-rule="evenodd" d="M9.22877 22.3492C9.73718 22.1335 10.3242 22.3708 10.5399 22.8792C10.5674 22.9438 10.5948 23.0086 10.6222 23.0734C11.2532 24.5651 11.9031 26.1014 13.476 27.3455C15.1081 28.6363 17.8792 29.7098 22.9994 29.7098C23.5517 29.7098 23.9994 30.1575 23.9994 30.7098C23.9994 31.2621 23.5517 31.7098 22.9994 31.7098C17.6196 31.7098 14.3457 30.5832 12.2353 28.9141C10.2504 27.3442 9.4233 25.3801 8.80549 23.913C8.76929 23.8271 8.73381 23.7428 8.69885 23.6604C8.48311 23.152 8.72037 22.565 9.22877 22.3492Z" fill="black"/>
<path fill-rule="evenodd" clip-rule="evenodd" d="M12.4654 26.4647C12.9542 26.7217 13.1421 27.3263 12.8851 27.8152L12 27.3498C12.8851 27.8152 12.8848 27.8157 12.8846 27.8162L12.884 27.8174L12.8827 27.8197L12.8799 27.825L12.873 27.8377C12.8678 27.8471 12.8615 27.8583 12.854 27.8714C12.839 27.8974 12.8192 27.9304 12.7943 27.9695C12.7447 28.0476 12.6747 28.1502 12.5819 28.2688C12.3966 28.5058 12.1183 28.8101 11.729 29.111C11.101 29.5965 10.2067 30.0546 9 30.2224V38.9198C9 41.6136 10.9984 43.989 13.1227 45.1286C13.6094 45.3897 13.7923 45.9959 13.5312 46.4826C13.2701 46.9692 12.6639 47.1521 12.1773 46.891C9.64156 45.5307 7 42.586 7 38.9198V29.2898C7 28.7375 7.44772 28.2898 8 28.2898C9.25386 28.2898 10.0415 27.8876 10.506 27.5286C10.7442 27.3445 10.9071 27.1638 11.0062 27.037C11.0557 26.9738 11.0885 26.9248 11.1064 26.8968C11.1144 26.8842 11.1193 26.8759 11.1212 26.8727C11.3816 26.3926 11.9805 26.2098 12.4654 26.4647Z" fill="black"/>
<path fill-rule="evenodd" clip-rule="evenodd" d="M20.5 4C20.5 1.78772 22.2877 0 24.5 0H43.5C45.7023 0 47.5 1.79772 47.5 4V16.98C47.5 19.1923 45.7123 20.98 43.5 20.98H39.38C39.0704 20.98 38.773 21.1288 38.5734 21.3954C38.5729 21.3961 38.5724 21.3968 38.5719 21.3975L34.2656 27.2525C34.2329 27.2969 34.1967 27.3385 34.1572 27.3769C32.7992 28.6976 30.51 27.7524 30.51 25.84V21.36C30.51 21.1523 30.3477 20.99 30.14 20.99H27.51C26.9577 20.99 26.51 20.5423 26.51 19.99C26.51 19.4377 26.9577 18.99 27.51 18.99H30.14C31.4523 18.99 32.51 20.0477 32.51 21.36V25.84C32.51 25.8888 32.5225 25.9123 32.532 25.9258C32.5444 25.9437 32.5664 25.9633 32.5981 25.9766C32.6299 25.99 32.6602 25.9922 32.6833 25.9884C32.6937 25.9867 32.7071 25.9831 32.7234 25.9738L36.9681 20.2025C37.5285 19.4504 38.4104 18.98 39.38 18.98H43.5C44.6077 18.98 45.5 18.0877 45.5 16.98V4C45.5 2.90228 44.5977 2 43.5 2H24.5C23.3923 2 22.5 2.89228 22.5 4V15C22.5 15.5523 22.0523 16 21.5 16C20.9477 16 20.5 15.5523 20.5 15V4Z" fill="#D500E6"/>
<path opacity="0.5" fill-rule="evenodd" clip-rule="evenodd" d="M29 10.9951C29 8.2337 31.2386 5.99512 34 5.99512C36.7614 5.99512 39 8.23369 39 10.9951C39 13.7565 36.7614 15.9951 34 15.9951C31.2386 15.9951 29 13.7565 29 10.9951ZM34 7.99512C32.3431 7.99512 31 9.33826 31 10.9951C31 12.652 32.3431 13.9951 34 13.9951C35.6569 13.9951 37 12.652 37 10.9951C37 9.33826 35.6569 7.99512 34 7.99512Z" fill="#D500E6"/>
<path fill-rule="evenodd" clip-rule="evenodd" d="M34 9.99512C33.4477 9.99512 33 10.4428 33 10.9951C33 11.5474 33.4477 11.9951 34 11.9951C34.5523 11.9951 35 11.5474 35 10.9951C35 10.4428 34.5523 9.99512 34 9.99512ZM34 7.99512C32.3431 7.99512 31 9.33826 31 10.9951C31 12.652 32.3431 13.9951 34 13.9951C35.6569 13.9951 37 12.652 37 10.9951C37 9.33826 35.6569 7.99512 34 7.99512Z" fill="black"/>
</svg>
