<svg width="60" height="60" viewBox="0 0 60 60" fill="none" xmlns="http://www.w3.org/2000/svg">
<path opacity="0.5" fill-rule="evenodd" clip-rule="evenodd" d="M60 49C60 55.0751 55.0751 60 49 60C42.9249 60 38 55.0751 38 49C38 42.9249 42.9249 38 49 38C55.0751 38 60 42.9249 60 49ZM49 58C53.9706 58 58 53.9706 58 49C58 44.0294 53.9706 40 49 40C44.0294 40 40 44.0294 40 49C40 53.9706 44.0294 58 49 58Z" fill="#D500E6"/>
<path fill-rule="evenodd" clip-rule="evenodd" d="M49 56C52.866 56 56 52.866 56 49C56 45.134 52.866 42 49 42C45.134 42 42 45.134 42 49C42 52.866 45.134 56 49 56ZM49 58C53.9706 58 58 53.9706 58 49C58 44.0294 53.9706 40 49 40C44.0294 40 40 44.0294 40 49C40 53.9706 44.0294 58 49 58Z" fill="black"/>
<path fill-rule="evenodd" clip-rule="evenodd" d="M53.75 47.7005C54.75 48.2779 54.75 49.7212 53.75 50.2986L47.75 53.7627C46.75 54.34 45.5 53.6183 45.5 52.4636L45.5 45.5354C45.5 44.3807 46.75 43.6591 47.75 44.2364L53.75 47.7005ZM52 48.9995L47.5 46.4015L47.5 51.5976L52 48.9995Z" fill="black"/>
<path fill-rule="evenodd" clip-rule="evenodd" d="M39 14H12C11.4477 14 11 14.4477 11 15V37C11 37.5523 11.4477 38 12 38H39C39.5523 38 40 37.5523 40 37V15C40 14.4477 39.5523 14 39 14ZM12 12C10.3431 12 9 13.3431 9 15V37C9 38.6569 10.3431 40 12 40H39C40.6569 40 42 38.6569 42 37V15C42 13.3431 40.6569 12 39 12H12Z" fill="black"/>
<path d="M14 16C14 16.5523 13.5523 17 13 17C12.4477 17 12 16.5523 12 16C12 15.4477 12.4477 15 13 15C13.5523 15 14 15.4477 14 16Z" fill="#D500E6"/>
<path d="M17 16C17 16.5523 16.5523 17 16 17C15.4477 17 15 16.5523 15 16C15 15.4477 15.4477 15 16 15C16.5523 15 17 15.4477 17 16Z" fill="#D500E6"/>
<path d="M20 16C20 16.5523 19.5523 17 19 17C18.4477 17 18 16.5523 18 16C18 15.4477 18.4477 15 19 15C19.5523 15 20 15.4477 20 16Z" fill="#D500E6"/>
<path fill-rule="evenodd" clip-rule="evenodd" d="M9 19C9 18.4477 9.44772 18 10 18L41 18C41.5523 18 42 18.4477 42 19C42 19.5523 41.5523 20 41 20L10 20C9.44772 20 9 19.5523 9 19Z" fill="black"/>
<path opacity="0.5" fill-rule="evenodd" clip-rule="evenodd" d="M-4.37114e-07 5C-6.78525e-07 7.76142 2.23858 10 5 10C7.76142 10 10 7.76142 10 5C10 2.23858 7.76142 -1.95703e-07 5 -4.37114e-07C2.23858 -6.78525e-07 -1.95703e-07 2.23858 -4.37114e-07 5ZM5 8C3.34315 8 2 6.65685 2 5C2 3.34315 3.34315 2 5 2C6.65685 2 8 3.34315 8 5C8 6.65685 6.65685 8 5 8Z" fill="#D500E6"/>
<path fill-rule="evenodd" clip-rule="evenodd" d="M5 6C4.44771 6 4 5.55228 4 5C4 4.44771 4.44772 4 5 4C5.55228 4 6 4.44772 6 5C6 5.55228 5.55228 6 5 6ZM5 8C3.34315 8 2 6.65685 2 5C2 3.34315 3.34315 2 5 2C6.65685 2 8 3.34315 8 5C8 6.65685 6.65685 8 5 8Z" fill="black"/>
<path fill-rule="evenodd" clip-rule="evenodd" d="M7 4L42 4C45.3137 4 48 6.68629 48 10L48 21C48 24.3137 45.3137 27 42 27L40 27L40 25L42 25C44.2092 25 46 23.2091 46 21L46 10C46 7.79086 44.2092 6 42 6L7 6L7 4Z" fill="black"/>
<path fill-rule="evenodd" clip-rule="evenodd" d="M41 50L7 50C3.68629 50 1 47.3137 1 44L1 31C1 27.6863 3.68629 25 7 25L10.5 25L10.5 27L7 27C4.79086 27 3 28.7909 3 31L3 44C3 46.2091 4.79086 48 7 48L41 48L41 50Z" fill="black"/>
</svg>
