<svg width="64" height="61" viewBox="0 0 64 61" fill="none" xmlns="http://www.w3.org/2000/svg">
<circle opacity="0.5" cx="30.7178" cy="30.5217" r="5" stroke="#D500E6" stroke-width="2"/>
<path d="M54.7178 30.5217C54.7178 34.2931 53.8486 37.8586 52.3006 41.0315C52.1599 41.3198 51.8454 41.5217 51.4692 41.5217H51.4293H51.3895H51.3497H51.31H51.2702H51.2306H51.1909H51.1513H51.1118H51.0723H51.0328H50.9934H50.954H50.9146H50.8753H50.836H50.7967H50.7575H50.7184H50.6792H50.6401H50.6011H50.562H50.523H50.4841H50.4452H50.4063H50.3674H50.3286H50.2898H50.2511H50.2124H50.1737H50.135H50.0964H50.0578H50.0193H49.9807H49.9422H49.9038H49.8654H49.827H49.7886H49.7503H49.712H49.6737H49.6354H49.5972H49.559H49.5209H49.4828H49.4447H49.4066H49.3685H49.3305H49.2925H49.2546H49.2166H49.1787H49.1408H49.103H49.0651H49.0273H48.9896H48.9518H48.9141H48.8764H48.8387H48.801H48.7634H48.7258H48.6882H48.6506H48.6131H48.5756H48.5381H48.5006H48.4632H48.4257H48.3883H48.3509H48.3135H48.2762H48.2389H48.2016H48.1643H48.127H48.0898H48.0525H48.0153H47.9781H47.9409H47.9038H47.8666H47.8295H47.7924H47.7553H47.7182H47.6812H47.6441H47.6071H47.5701H47.5331H47.4961H47.4592H47.4222H47.3853H47.3483H47.3114H47.2745H47.2377H47.2008H47.1639H47.1271H47.0903H47.0534H47.0166H46.9798H46.943H46.9063H46.8695H46.8327H46.796H46.7593H46.7225H46.6858H46.6491H46.6124H46.5757H46.539H46.5024H46.4657H46.4291H46.3924H46.3558H46.3191H46.2825H46.2459H46.2092H46.1726H46.136H46.0994H46.0628H46.0262H45.9896H45.9531H45.9165H45.8799H45.8433H45.8068H45.7702H45.7336H45.6971H45.6605H45.6239H45.5874H45.5508H45.5143H45.4777H45.4412H45.4046H45.3681H45.3315H45.295H45.2584H45.2218H45.1853H45.1487H45.1122H45.0756H45.039H45.0025H44.9659H44.9293H44.8928H44.8562H44.8196H44.783H44.7464H44.7098H44.6732H44.6366H44.6H44.5634H44.5268H44.4901H44.4535H44.4168H44.3802H44.3435H44.3069H44.2702H44.2335H44.1968H44.1601H44.1234H44.0867H44.05H44.0133H43.9765H43.9398H43.903H43.8662H43.8294H43.7926H43.7558H43.719H43.6822H43.6453H43.6085H43.5716H43.5347H43.4978H43.4609H43.424H43.3871H43.3501H43.3132H43.2762H43.2392H43.2022H43.1652H43.1281H43.0911H43.054H43.0169H42.9798H42.9427H42.9055H42.8684H42.8312H42.794H42.7568H42.7196H42.6823H42.6451H42.6078H42.5705H42.5331H42.4958H42.4584H42.4211H42.3836H42.3462H42.3088H42.2713H42.2338H42.1963H42.1587H42.1212H42.0836H42.046H42.0084H41.9707H41.933H41.8953H41.8576H41.8199H41.7821H41.7443H41.7064H41.6686H41.6307H41.5928H41.5549H41.5169H41.4789H41.4409H41.4029H41.3648H41.3267H41.2886H41.2504H41.2123H41.174H41.1358H41.0975H41.0592H41.0209H40.9825H40.9442H40.9057H40.8673H40.8288H40.7903H40.7517H40.7132H40.6745H40.6359H40.5972H40.5585H40.5198H40.481H40.4422H40.4033H40.3644H40.3255H40.2866H40.2476H40.2086H40.1695H40.1304H40.0913H40.0521H40.0129H39.9737H39.9344H39.8951H39.8557H39.8163H39.7769H39.7374H39.6979H39.6584H39.6188H39.5791H39.5395H39.4998H39.46H39.4202H39.3804H39.3405H39.3006H39.2607H39.2207H39.1806H39.1406H39.1004H39.0603H39.0201H38.9798H38.9395H38.8992H38.8588H38.8184H38.7779H38.7374H38.6968H38.6562H38.6155H38.5748H38.5341H38.4933H38.4524H38.4115H38.3706H38.3296H38.2886H38.2475H38.2064H38.1652H38.124H38.0827H38.0414H38H37.9586H37.9171H37.8756H37.834H37.7924H37.7507H37.709H37.6672H37.6253H37.5835H37.5415H37.4995H37.4575H37.4154H37.3732H37.331H37.2888H37.2465H37.2041H37.1617H37.1192H37.0766H37.0341H36.9914H36.9487H36.9059H36.8631H36.8203H36.7773H36.7343H36.6913H36.6482H36.605H36.5618H36.5185H36.4752H36.4318H36.3883H36.3448H36.3013H36.2576H36.2139H36.1702H36.1263H36.0825H36.0385H35.9945H35.9505H35.9063H35.8621H35.8179H35.7736H35.7292H35.6847H35.6402H35.5957H35.551H35.5063H35.4616H35.4167H35.3718H35.3269H35.2818H35.2367H35.1916H35.1464H35.1011H35.0557H35.0103H34.9648H34.9192H34.8736H34.8279H34.7821H34.7363H34.6903H34.6444H34.5983H34.5522H34.506H34.4598H34.4134H34.367H34.3205H34.274H34.2274H34.1807H34.1339H34.0871H34.0402H33.9932H33.9462H33.899H33.8518H33.8046H33.7572H33.7098H33.6623H33.6147H33.5671H33.5193H33.4715H33.4236H33.3757H33.3277H33.2796H33.2314H33.1831H33.1348H33.0863H33.0378H32.9893H32.9406H32.8919H32.8431H32.7942H32.7452H32.6961H32.647H32.5978H32.5485H32.4991H32.4497H32.4001H32.3505H32.3008H32.251H32.2011H32.1512H32.1011H32.051H32.0008H31.9505H31.9002H31.8497H31.7992H31.7485H31.6978H31.647H31.5962H31.5452H31.4941H31.443H31.3918H31.3404H31.289H31.2376H31.186H31.1343H31.0826H31.0307H30.9788H30.9268H30.8746H30.8224H30.7702H30.7178H30.6649H30.6122H30.5596H30.5072H30.4548H30.4026H30.3505H30.2985H30.2466H30.1949H30.1433H30.0918H30.0404H29.9891H29.9379H29.8869H29.836H29.7852H29.7345H29.6839H29.6334H29.5831H29.5329H29.4827H29.4327H29.3828H29.3331H29.2834H29.2338H29.1844H29.135H29.0858H29.0367H28.9877H28.9388H28.89H28.8413H28.7927H28.7442H28.6959H28.6476H28.5995H28.5514H28.5035H28.4556H28.4079H28.3602H28.3127H28.2653H28.2179H28.1707H28.1236H28.0766H28.0296H27.9828H27.9361H27.8895H27.8429H27.7965H27.7502H27.7039H27.6578H27.6117H27.5658H27.5199H27.4742H27.4285H27.3829H27.3374H27.2921H27.2468H27.2016H27.1565H27.1114H27.0665H27.0217H26.9769H26.9323H26.8877H26.8432H26.7988H26.7545H26.7103H26.6662H26.6222H26.5782H26.5343H26.4905H26.4468H26.4032H26.3597H26.3162H26.2729H26.2296H26.1864H26.1433H26.1002H26.0573H26.0144H25.9716H25.9289H25.8862H25.8437H25.8012H25.7588H25.7165H25.6742H25.632H25.5899H25.5479H25.506H25.4641H25.4223H25.3805H25.3389H25.2973H25.2558H25.2144H25.173H25.1317H25.0905H25.0493H25.0082H24.9672H24.9263H24.8854H24.8446H24.8039H24.7632H24.7226H24.682H24.6416H24.6012H24.5608H24.5205H24.4803H24.4402H24.4001H24.36H24.3201H24.2802H24.2403H24.2005H24.1608H24.1212H24.0816H24.042H24.0025H23.9631H23.9237H23.8844H23.8452H23.806H23.7668H23.7278H23.6887H23.6498H23.6108H23.572H23.5332H23.4944H23.4557H23.417H23.3784H23.3399H23.3014H23.2629H23.2245H23.1862H23.1479H23.1096H23.0714H23.0333H22.9952H22.9571H22.9191H22.8811H22.8432H22.8053H22.7675H22.7297H22.6919H22.6542H22.6166H22.5789H22.5414H22.5038H22.4663H22.4289H22.3915H22.3541H22.3168H22.2795H22.2422H22.205H22.1678H22.1307H22.0936H22.0565H22.0194H21.9825H21.9455H21.9086H21.8717H21.8348H21.798H21.7612H21.7244H21.6877H21.651H21.6143H21.5777H21.5411H21.5045H21.4679H21.4314H21.3949H21.3585H21.322H21.2856H21.2492H21.2129H21.1765H21.1402H21.104H21.0677H21.0315H20.9953H20.9591H20.9229H20.8868H20.8506H20.8145H20.7785H20.7424H20.7064H20.6704H20.6344H20.5984H20.5624H20.5265H20.4906H20.4546H20.4188H20.3829H20.347H20.3112H20.2753H20.2395H20.2037H20.1679H20.1322H20.0964H20.0606H20.0249H19.9892H19.9535H19.9178H19.8821H19.8464H19.8107H19.775H19.7394H19.7037H19.6681H19.6324H19.5968H19.5612H19.5255H19.4899H19.4543H19.4187H19.3831H19.3475H19.3119H19.2763H19.2407H19.2051H19.1695H19.1339H19.0984H19.0628H19.0272H18.9916H18.956H18.9204H18.8848H18.8492H18.8136H18.778H18.7424H18.7068H18.6711H18.6355H18.5999H18.5642H18.5286H18.4929H18.4573H18.4216H18.3859H18.3502H18.3146H18.2788H18.2431H18.2074H18.1717H18.1359H18.1002H18.0644H18.0286H17.9928H17.957H17.9212H17.8853H17.8495H17.8136H17.7777H17.7418H17.7059H17.6699H17.634H17.598H17.562H17.526H17.4899H17.4539H17.4178H17.3817H17.3456H17.3095H17.2733H17.2371H17.2009H17.1647H17.1284H17.0922H17.0559H17.0195H16.9832H16.9468H16.9104H16.874H16.8375H16.801H16.7645H16.7279H16.6914H16.6548H16.6181H16.5815H16.5448H16.508H16.4713H16.4345H16.3977H16.3608H16.3239H16.287H16.25H16.213H16.176H16.1389H16.1018H16.0647H16.0275H15.9903H15.9531H15.9158H15.8784H15.8411H15.8037H15.7662H15.7287H15.6912H15.6536H15.616H15.5784H15.5407H15.5029H15.4651H15.4273H15.3894H15.3515H15.3136H15.2755H15.2375H15.1994H15.1612H15.123H15.0848H15.0465H15.0081H14.9698H14.9313H14.8928H14.8543H14.8157H14.777H14.7383H14.6996H14.6608H14.6219H14.583H14.544H14.505H14.4659H14.4268H14.3876H14.3484H14.3091H14.2697H14.2303H14.1908H14.1513H14.1117H14.072H14.0323H13.9926H13.9527H13.9128H13.8729H13.8329H13.7928H13.7526H13.7124H13.6721H13.6318H13.5914H13.5509H13.5104H13.4698H13.4291H13.3884H13.3476H13.3068H13.2658H13.2248H13.1837H13.1426H13.1014H13.0601H13.0187H12.9773H12.9358H12.8942H12.8526H12.8109H12.7691H12.7272H12.6853H12.6433H12.6012H12.559H12.5168H12.4745H12.4321H12.3896H12.347H12.3044H12.2617H12.2189H12.1761H12.1331H12.0901H12.047H12.0038H11.9605H11.9172H11.8737H11.8302H11.7866H11.7429H11.6991H11.6553H11.6113H11.5673H11.5232H11.479H11.4347H11.3903H11.3458H11.3013H11.2566H11.2119H11.1671H11.1222H11.0772H11.0321H10.9869H10.9416H10.8962H10.8508H10.8052H10.7596H10.7138H10.668H10.622H10.576H10.5299H10.4836H10.4373H10.3909H10.3444H10.2978H10.2511H10.2042H10.1573H10.1103H10.0632H10.016H9.96868C9.59111 41.5217 9.27508 41.3186 9.13499 41.0315C7.58695 37.8586 6.71777 34.2931 6.71777 30.5217C6.71777 17.2669 17.4629 6.52173 30.7178 6.52173C43.9726 6.52173 54.7178 17.2669 54.7178 30.5217Z" stroke="black" stroke-width="2"/>
<path d="M16.0178 30.5217L9.71777 30.5217" stroke="black" stroke-width="2" stroke-linecap="round" stroke-linejoin="round"/>
<path d="M20.3233 20.1273L15.8685 15.6725" stroke="black" stroke-width="2" stroke-linecap="round" stroke-linejoin="round"/>
<mask id="path-5-outside-1_1199_2316" maskUnits="userSpaceOnUse" x="29.7178" y="8.52173" width="23" height="23" fill="black">
<rect fill="white" x="29.7178" y="8.52173" width="23" height="23"/>
<path d="M51.7178 30.5217C51.7178 27.764 51.1746 25.0332 50.1192 22.4854C49.0639 19.9375 47.517 17.6225 45.567 15.6725C43.617 13.7225 41.302 12.1756 38.7541 11.1203C36.2063 10.0649 33.4755 9.52173 30.7178 9.52173L30.7178 15.8217C32.6482 15.8217 34.5597 16.202 36.3432 16.9407C38.1267 17.6794 39.7472 18.7622 41.1122 20.1273C42.4773 21.4923 43.5601 23.1128 44.2988 24.8963C45.0375 26.6798 45.4178 28.5913 45.4178 30.5217L51.7178 30.5217Z"/>
</mask>
<path d="M51.7178 30.5217C51.7178 27.764 51.1746 25.0332 50.1192 22.4854C49.0639 19.9375 47.517 17.6225 45.567 15.6725C43.617 13.7225 41.302 12.1756 38.7541 11.1203C36.2063 10.0649 33.4755 9.52173 30.7178 9.52173L30.7178 15.8217C32.6482 15.8217 34.5597 16.202 36.3432 16.9407C38.1267 17.6794 39.7472 18.7622 41.1122 20.1273C42.4773 21.4923 43.5601 23.1128 44.2988 24.8963C45.0375 26.6798 45.4178 28.5913 45.4178 30.5217L51.7178 30.5217Z" fill="#D500E6"/>
<path d="M51.7178 30.5217C51.7178 27.764 51.1746 25.0332 50.1192 22.4854C49.0639 19.9375 47.517 17.6225 45.567 15.6725C43.617 13.7225 41.302 12.1756 38.7541 11.1203C36.2063 10.0649 33.4755 9.52173 30.7178 9.52173L30.7178 15.8217C32.6482 15.8217 34.5597 16.202 36.3432 16.9407C38.1267 17.6794 39.7472 18.7622 41.1122 20.1273C42.4773 21.4923 43.5601 23.1128 44.2988 24.8963C45.0375 26.6798 45.4178 28.5913 45.4178 30.5217L51.7178 30.5217Z" stroke="#D500E6" stroke-width="2" stroke-linecap="round" stroke-linejoin="round" mask="url(#path-5-outside-1_1199_2316)"/>
<path d="M51.0186 30.3232C51.0186 26.7247 50.0713 23.1896 48.2721 20.0732C46.4728 16.9568 43.8849 14.369 40.7686 12.5697" stroke="black" stroke-linecap="round" stroke-linejoin="round"/>
<path d="M48.7178 30.5217C48.7178 27.3621 47.8861 24.2581 46.3062 21.5217" stroke="black" stroke-linecap="round" stroke-linejoin="round"/>
<path d="M46.0186 30.3232C46.0186 28.9687 45.841 27.62 45.4904 26.3115" stroke="black" stroke-linecap="round" stroke-linejoin="round"/>
<path d="M30.7178 15.8217L30.7178 9.52173" stroke="black" stroke-width="2" stroke-linecap="round" stroke-linejoin="round"/>
<path d="M30.5186 1.52173C35.3638 1.52173 40.1344 2.69493 44.4088 4.93766C48.6833 7.18039 52.3301 10.4236 55.0268 14.3807C57.7236 18.3378 59.3874 22.887 59.8712 27.6263C60.3549 32.3656 59.6438 37.149 57.8005 41.554" stroke="#D500E6" stroke-width="2" stroke-linecap="round" stroke-linejoin="round" stroke-dasharray="6 6"/>
<path d="M3.2219 41.5188C1.50599 37.4028 0.776268 32.954 1.08917 28.5164C1.40207 24.0788 2.74921 19.7714 5.02638 15.9275C7.30355 12.0836 10.4497 8.80617 14.2215 6.34877C17.9932 3.89137 22.2895 2.31986 26.7779 1.75582" stroke="#D500E6" stroke-width="2" stroke-linecap="round" stroke-linejoin="round"/>
<path d="M41.1115 20.1273L45.5663 15.6725" stroke="black" stroke-width="2" stroke-linecap="round" stroke-linejoin="round"/>
<path d="M51.4715 30.0236C52.0806 30.0763 52.0806 30.9671 51.4715 31.0199L34.0617 32.5276C33.7696 32.5529 33.5186 32.3226 33.5186 32.0295L33.5186 29.014C33.5186 28.7208 33.7696 28.4906 34.0617 28.5159L51.4715 30.0236Z" fill="#D500E6" stroke="black"/>
<circle cx="30.7178" cy="30.5217" r="3" stroke="black" stroke-width="2"/>
</svg>
