<svg width="62" height="64" viewBox="0 0 62 64" fill="none" xmlns="http://www.w3.org/2000/svg">
<path fill-rule="evenodd" clip-rule="evenodd" d="M59.2934 10.6827C59.7367 10.3701 60.0004 9.86148 60.0004 9.319V3.67567C60.0004 2.27656 58.3821 1.49867 57.2895 2.37263L52.6288 6.1007L51.1545 7.57574L49.6802 6.1007L45.0195 2.37263C43.927 1.49868 42.3086 2.27656 42.3086 3.67567V9.319C42.3086 9.86148 42.5723 10.3701 43.0156 10.6827L48.2766 14.3924L44.2879 19.7536C43.0027 21.481 42.3086 23.5767 42.3086 25.7298V38.5363C42.3086 43.4218 46.269 47.3822 51.1545 47.3822C56.04 47.3822 60.0004 43.4218 60.0004 38.5363V25.7298C60.0004 23.5767 59.3063 21.481 58.0211 19.7536L54.0324 14.3924L59.2934 10.6827ZM48.3442 7.59313L44.3086 4.36507V9.1472L49.4292 12.7579C49.8699 13.0686 50.1664 13.5442 50.2516 14.0767C50.3367 14.6092 50.2031 15.1535 49.8812 15.5862L45.8925 20.9474C44.864 22.3298 44.3086 24.0068 44.3086 25.7298V38.5363C44.3086 42.3172 47.3736 45.3822 51.1545 45.3822C54.9354 45.3822 58.0004 42.3172 58.0004 38.5363V25.7298C58.0004 24.0068 57.445 22.3298 56.4165 20.9474L52.4278 15.5862C52.1059 15.1535 51.9724 14.6092 52.0575 14.0767C52.1426 13.5442 52.4391 13.0686 52.8799 12.7579L58.0004 9.1472V4.36507L53.9649 7.59313L52.5691 8.98961C52.194 9.36489 51.6851 9.57574 51.1545 9.57574C50.6239 9.57574 50.1151 9.36489 49.74 8.98961L48.3442 7.59313ZM44.1682 9.04819C44.168 9.04809 44.1683 9.04829 44.1682 9.04819Z" fill="#D500E6"/>
<mask id="mask0_314_6374" style="mask-type:alpha" maskUnits="userSpaceOnUse" x="0" y="15" width="54" height="49">
<path d="M47.6766 15.0439H0L0 63.5039H54V48.0882C53.1518 48.3525 52.0392 48.495 51.1039 48.495C46.1259 48.495 42.0904 44.4595 42.0904 39.4815V25.9423C42.0904 23.8139 42.7687 21.741 44.0268 20.0242L47.6766 15.0439Z" fill="#D9D9D9"/>
</mask>
<g mask="url(#mask0_314_6374)">
<path fill-rule="evenodd" clip-rule="evenodd" d="M7.37113 18.7754C4.9074 18.7754 2.91016 20.7726 2.91016 23.2364V26.877C2.91016 29.3407 4.9074 31.338 7.37113 31.338H47.4183C49.882 31.338 51.8792 29.3407 51.8792 26.877V23.2364C51.8792 20.7726 49.882 18.7754 47.4183 18.7754H7.37113ZM0.910156 23.2364C0.910156 19.6681 3.80283 16.7754 7.37113 16.7754H47.4183C50.9866 16.7754 53.8792 19.6681 53.8792 23.2364V26.877C53.8792 30.4453 50.9866 33.338 47.4183 33.338H7.37113C3.80283 33.338 0.910156 30.4453 0.910156 26.877V23.2364Z" fill="black"/>
<path fill-rule="evenodd" clip-rule="evenodd" d="M7.37113 33.3379C4.9074 33.3379 2.91016 35.3351 2.91016 37.7989V41.4395C2.91016 43.9032 4.9074 45.9005 7.37113 45.9005H47.4183C49.882 45.9005 51.8792 43.9032 51.8792 41.4395V37.7989C51.8792 35.3351 49.882 33.3379 47.4183 33.3379H7.37113ZM0.910156 37.7989C0.910156 34.2306 3.80283 31.3379 7.37113 31.3379H47.4183C50.9866 31.3379 53.8792 34.2306 53.8792 37.7989V41.4395C53.8792 45.0078 50.9866 47.9005 47.4183 47.9005H7.37113C3.80283 47.9005 0.910156 45.0078 0.910156 41.4395V37.7989Z" fill="black"/>
<path fill-rule="evenodd" clip-rule="evenodd" d="M7.37113 47.9004C4.9074 47.9004 2.91016 49.8976 2.91016 52.3614V56.002C2.91016 58.4657 4.9074 60.463 7.37113 60.463H47.4183C49.882 60.463 51.8792 58.4657 51.8792 56.002V52.3614C51.8792 49.8976 49.882 47.9004 47.4183 47.9004H7.37113ZM0.910156 52.3614C0.910156 48.7931 3.80283 45.9004 7.37113 45.9004H47.4183C50.9866 45.9004 53.8792 48.7931 53.8792 52.3614V56.002C53.8792 59.5703 50.9866 62.463 47.4183 62.463H7.37113C3.80283 62.463 0.910156 59.5703 0.910156 56.002V52.3614Z" fill="black"/>
<path fill-rule="evenodd" clip-rule="evenodd" d="M10.1016 25.7871C10.505 25.7871 10.8321 25.4601 10.8321 25.0567C10.8321 24.6532 10.505 24.3262 10.1016 24.3262C9.69814 24.3262 9.37109 24.6532 9.37109 25.0567C9.37109 25.4601 9.69814 25.7871 10.1016 25.7871ZM10.1016 27.7871C11.6096 27.7871 12.8321 26.5647 12.8321 25.0567C12.8321 23.5487 11.6096 22.3262 10.1016 22.3262C8.59357 22.3262 7.37109 23.5487 7.37109 25.0567C7.37109 26.5647 8.59357 27.7871 10.1016 27.7871Z" fill="black"/>
<path fill-rule="evenodd" clip-rule="evenodd" d="M10.1016 40.3496C10.505 40.3496 10.8321 40.0226 10.8321 39.6192C10.8321 39.2157 10.505 38.8887 10.1016 38.8887C9.69814 38.8887 9.37109 39.2157 9.37109 39.6192C9.37109 40.0226 9.69814 40.3496 10.1016 40.3496ZM10.1016 42.3496C11.6096 42.3496 12.8321 41.1272 12.8321 39.6192C12.8321 38.1112 11.6096 36.8887 10.1016 36.8887C8.59357 36.8887 7.37109 38.1112 7.37109 39.6192C7.37109 41.1272 8.59357 42.3496 10.1016 42.3496Z" fill="black"/>
<path fill-rule="evenodd" clip-rule="evenodd" d="M10.1016 54.9121C10.505 54.9121 10.8321 54.5851 10.8321 54.1817C10.8321 53.7782 10.505 53.4512 10.1016 53.4512C9.69814 53.4512 9.37109 53.7782 9.37109 54.1817C9.37109 54.5851 9.69814 54.9121 10.1016 54.9121ZM10.1016 56.9121C11.6096 56.9121 12.8321 55.6897 12.8321 54.1817C12.8321 52.6737 11.6096 51.4512 10.1016 51.4512C8.59357 51.4512 7.37109 52.6737 7.37109 54.1817C7.37109 55.6897 8.59357 56.9121 10.1016 56.9121Z" fill="black"/>
</g>
<path opacity="0.5" fill-rule="evenodd" clip-rule="evenodd" d="M51.2143 4.68668C51.2666 4.63434 51.3218 4.58495 51.3795 4.53873L56.0402 0.81066C58.4423 -1.1108 62.0004 0.599442 62.0004 3.67552V9.31885C62.0004 10.5115 61.4207 11.6298 60.4459 12.3171L56.8617 14.8444L59.6258 18.5596C61.1677 20.6321 62.0004 23.1465 62.0004 25.7296V38.5361C62.0004 44.5262 57.1445 49.3821 51.1545 49.3821C45.1645 49.3821 40.3086 44.5262 40.3086 38.5362V25.7296C40.3086 23.1464 41.1413 20.6321 42.6833 18.5596L45.4474 14.8444L41.8631 12.3171C40.8884 11.6298 40.3086 10.5115 40.3086 9.31885V3.67552C40.3086 0.599447 43.8667 -1.1108 46.2688 0.810664L50.9295 4.53873C50.9873 4.58495 51.0424 4.63434 51.0947 4.68668L51.1545 4.74647L51.2143 4.68668ZM51.1545 7.57558L49.6802 6.10055L45.0195 2.37248C43.927 1.49852 42.3086 2.27641 42.3086 3.67552V9.31885C42.3086 9.86133 42.5723 10.3699 43.0156 10.6826L48.2766 14.3922L44.2879 19.7534C43.0027 21.4808 42.3086 23.5766 42.3086 25.7296V38.5362C42.3086 43.4216 46.269 47.3821 51.1545 47.3821C56.04 47.3821 60.0004 43.4216 60.0004 38.5361V25.7296C60.0004 23.5766 59.3063 21.4808 58.0211 19.7534L54.0324 14.3922L59.2934 10.6826C59.7367 10.3699 60.0004 9.86133 60.0004 9.31885V3.67552C60.0004 2.2764 58.3821 1.49852 57.2895 2.37247L52.6288 6.10055L51.1545 7.57558Z" fill="#D500E6"/>
</svg>
