<svg width="50" height="57" viewBox="0 0 50 57" fill="none" xmlns="http://www.w3.org/2000/svg">
<path fill-rule="evenodd" clip-rule="evenodd" d="M6.26357 40.6374L2.12538 43.0266C2.0058 43.0956 1.96483 43.2485 2.03387 43.3681L8.66742 54.8577C8.73646 54.9773 8.88936 55.0183 9.00893 54.9492L13.1471 52.5601C13.2667 52.491 13.3077 52.3381 13.2386 52.2185L6.60507 40.7289C6.53604 40.6093 6.38314 40.5683 6.26357 40.6374ZM1.12538 41.2945C0.0492165 41.9158 -0.319502 43.2919 0.301819 44.3681L6.93537 55.8577C7.55669 56.9339 8.93277 57.3026 10.0089 56.6813L14.1471 54.2921C15.2233 53.6708 15.592 52.2947 14.9707 51.2185L8.33712 39.7289C7.7158 38.6527 6.33972 38.284 5.26357 38.9053L1.12538 41.2945Z" fill="black"/>
<path fill-rule="evenodd" clip-rule="evenodd" d="M16.6839 37.2282L8.57227 41.9115L7.57227 40.1794L15.6839 35.4962C16.7404 34.8862 17.996 34.7209 19.1745 35.0366L29.9982 37.9369C30.8556 38.1666 31.592 38.7168 32.0553 39.4738C32.7941 40.6809 32.6995 42.1379 31.9737 43.2177C32.2841 43.1681 32.5859 43.0622 32.8633 42.902L42.5991 37.281C44.3521 36.2689 46.5936 36.8696 47.6057 38.6225C48.6178 40.3755 48.0172 42.617 46.2642 43.6291L30.2027 52.9022C29.1462 53.5122 27.8906 53.6775 26.7122 53.3617L16.6487 50.6652C15.9827 50.4868 15.273 50.5802 14.6758 50.925L14.343 51.1171L13.343 49.385L13.6758 49.1929C14.7323 48.5829 15.9879 48.4176 17.1664 48.7334L27.2298 51.4299C27.8959 51.6083 28.6056 51.5149 29.2027 51.1701L45.2642 41.8971C46.0606 41.4373 46.3334 40.4189 45.8736 39.6225C45.4139 38.8261 44.3955 38.5533 43.5991 39.0131L33.8633 44.634C32.8068 45.244 31.5512 45.4093 30.3728 45.0936L21.4308 42.6976L21.9485 40.7657L29.371 42.7546L29.6682 42.6298C30.4942 42.283 30.8171 41.2819 30.3495 40.5179C30.1538 40.1981 29.8427 39.9657 29.4806 39.8687L18.6568 36.9685C17.9908 36.79 17.2811 36.8834 16.6839 37.2282Z" fill="black"/>
<path fill-rule="evenodd" clip-rule="evenodd" d="M49.1828 18.0035C49.1828 27.9465 41.1223 36.007 31.1793 36.007C21.2362 36.007 13.1758 27.9465 13.1758 18.0035C13.1758 8.06043 21.2362 0 31.1793 0C41.1223 0 49.1828 8.06043 49.1828 18.0035ZM31.1793 34.007C40.0177 34.007 47.1828 26.842 47.1828 18.0035C47.1828 9.165 40.0177 2 31.1793 2C22.3408 2 15.1758 9.165 15.1758 18.0035C15.1758 26.842 22.3408 34.007 31.1793 34.007Z" fill="#D500E6" fill-opacity="0.5"/>
<path fill-rule="evenodd" clip-rule="evenodd" d="M45.7393 3.34661C46.1298 3.73714 46.1298 4.37031 45.7393 4.76084L33.4886 17.0118C33.0981 17.4023 32.465 17.4023 32.0744 17.0118C31.6839 16.6213 31.6839 15.9881 32.0744 15.5976L44.3251 3.34661C44.7156 2.95608 45.3488 2.95608 45.7393 3.34661ZM23.4667 10.0981C23.8572 9.70759 24.4904 9.70759 24.8809 10.0981L30.3802 15.5976C30.7708 15.9881 30.7708 16.6213 30.3802 17.0118C29.9897 17.4023 29.3566 17.4023 28.966 17.0118L23.4667 11.5123C23.0762 11.1218 23.0762 10.4886 23.4667 10.0981Z" fill="#D500E6"/>
<path fill-rule="evenodd" clip-rule="evenodd" d="M43.6585 13.243C44.7274 16.048 44.8205 19.1311 43.9228 21.9955C43.0252 24.8598 41.1891 27.3384 38.7105 29.0316C36.232 30.7249 33.2554 31.5341 30.2607 31.3288C27.2661 31.1235 24.4278 29.9157 22.2034 27.9001L21.3438 28.8489C23.7812 31.0576 26.8915 32.3811 30.1732 32.6061C33.4548 32.831 36.7166 31.9443 39.4327 30.0888C42.1488 28.2333 44.1608 25.5172 45.1445 22.3783C46.1282 19.2395 46.0262 15.8609 44.8549 12.7871L43.6585 13.243Z" fill="black"/>
<path fill-rule="evenodd" clip-rule="evenodd" d="M29.8645 4.70407C30.2956 4.66212 30.7328 4.64063 31.1753 4.64063C31.6177 4.64063 32.055 4.66212 32.4861 4.70407C32.8379 4.73831 33.1509 4.48082 33.1852 4.12895C33.2194 3.77707 32.9619 3.46406 32.6101 3.42981C32.1378 3.38385 31.6592 3.36035 31.1753 3.36035C30.6914 3.36035 30.2127 3.38385 29.7405 3.42981C29.3886 3.46406 29.1312 3.77707 29.1654 4.12895C29.1996 4.48082 29.5127 4.73831 29.8645 4.70407ZM27.2955 5.21252C27.6339 5.11 27.8251 4.75262 27.7226 4.41426C27.6201 4.07591 27.2627 3.88473 26.9243 3.98724C25.9981 4.26786 25.1107 4.63775 24.2723 5.08681C23.9607 5.25374 23.8433 5.6417 24.0103 5.95335C24.1772 6.265 24.5652 6.38232 24.8768 6.2154C25.6417 5.80571 26.451 5.4684 27.2955 5.21252ZM22.7 7.67254C22.9732 7.4481 23.0127 7.04472 22.7883 6.77155C22.5638 6.49839 22.1604 6.45889 21.8873 6.68332C21.1466 7.2919 20.4667 7.97177 19.8581 8.71247C19.6337 8.98563 19.6732 9.38902 19.9464 9.61345C20.2195 9.83789 20.6229 9.79839 20.8473 9.52523C21.403 8.84895 22.0238 8.22818 22.7 7.67254ZM19.3902 11.702C19.5571 11.3904 19.4398 11.0024 19.1282 10.8355C18.8165 10.6685 18.4285 10.7859 18.2616 11.0975C17.8126 11.9359 17.4427 12.8233 17.162 13.7495C17.0595 14.0879 17.2507 14.4453 17.5891 14.5478C17.9274 14.6503 18.2848 14.4591 18.3873 14.1207C18.6432 13.2762 18.9805 12.4669 19.3902 11.702ZM44.089 11.0975C43.922 10.7859 43.5341 10.6685 43.2224 10.8355C42.9108 11.0024 42.7935 11.3904 42.9604 11.702C43.3701 12.4669 43.7074 13.2762 43.9633 14.1207C44.0658 14.4591 44.4232 14.6503 44.7615 14.5478C45.0999 14.4453 45.2911 14.0879 45.1885 13.7495C44.9079 12.8233 44.538 11.9359 44.089 11.0975ZM17.8789 16.6897C17.9131 16.3378 17.6556 16.0248 17.3038 15.9906C16.9519 15.9563 16.6389 16.2138 16.6046 16.5657C16.5587 17.0379 16.5352 17.5166 16.5352 18.0005C16.5352 18.4844 16.5587 18.963 16.6046 19.4353C16.6389 19.7871 16.9519 20.0446 17.3038 20.0104C17.6556 19.9761 17.9131 19.6631 17.8789 19.3113C17.8369 18.8802 17.8154 18.4429 17.8154 18.0005C17.8154 17.558 17.8369 17.1208 17.8789 16.6897ZM45.746 16.5657C45.7117 16.2138 45.3987 15.9563 45.0468 15.9906C44.695 16.0248 44.4375 16.3379 44.4717 16.6897C44.5137 17.1208 44.5352 17.558 44.5352 18.0005C44.5352 18.4429 44.5137 18.8802 44.4717 19.3113C44.4375 19.6631 44.695 19.9761 45.0468 20.0104C45.3987 20.0446 45.7117 19.7871 45.746 19.4353C45.7919 18.963 45.8154 18.4844 45.8154 18.0005C45.8154 17.5166 45.7919 17.0379 45.746 16.5657ZM18.3873 21.8802C18.2848 21.5419 17.9274 21.3507 17.5891 21.4532C17.2507 21.5557 17.0595 21.9131 17.162 22.2515C17.4427 23.1777 17.8126 24.0651 18.2616 24.9035C18.4285 25.2151 18.8165 25.3324 19.1282 25.1655C19.4398 24.9986 19.5571 24.6106 19.3902 24.299C18.9805 23.5341 18.6432 22.7248 18.3873 21.8802ZM45.1885 22.2515C45.2911 21.9131 45.0999 21.5557 44.7615 21.4532C44.4232 21.3507 44.0658 21.5419 43.9633 21.8802C43.7074 22.7248 43.3701 23.5341 42.9604 24.299C42.7935 24.6106 42.9108 24.9986 43.2224 25.1655C43.5341 25.3324 43.922 25.2151 44.089 24.9035C44.538 24.0651 44.9079 23.1777 45.1885 22.2515ZM20.8473 26.4758C20.6229 26.2026 20.2195 26.1631 19.9464 26.3875C19.6732 26.612 19.6337 27.0153 19.8581 27.2885C20.4667 28.0292 21.1466 28.7091 21.8873 29.3177C22.1604 29.5421 22.5638 29.5026 22.7883 29.2294C23.0127 28.9563 22.9732 28.5529 22.7 28.3284C22.0238 27.7728 21.403 27.152 20.8473 26.4758ZM42.4925 27.2885C42.7169 27.0153 42.6774 26.612 42.4042 26.3875C42.1311 26.1631 41.7277 26.2026 41.5033 26.4758C40.9476 27.152 40.3268 27.7728 39.6506 28.3284C39.3774 28.5529 39.3379 28.9563 39.5623 29.2294C39.7868 29.5026 40.1902 29.5421 40.4633 29.3177C41.204 28.7091 41.8839 28.0292 42.4925 27.2885ZM24.8768 29.7856C24.5652 29.6187 24.1772 29.736 24.0103 30.0476C23.8433 30.3593 23.9607 30.7472 24.2723 30.9142C25.1107 31.3632 25.9981 31.7331 26.9243 32.0137C27.2627 32.1163 27.6201 31.9251 27.7226 31.5867C27.8251 31.2484 27.6339 30.891 27.2955 30.7885C26.451 30.5326 25.6417 30.1953 24.8768 29.7856ZM38.0783 30.9142C38.3899 30.7472 38.5072 30.3593 38.3403 30.0476C38.1734 29.736 37.7854 29.6187 37.4738 29.7856C36.7089 30.1953 35.8996 30.5326 35.055 30.7885C34.7167 30.891 34.5255 31.2484 34.628 31.5867C34.7305 31.9251 35.0879 32.1163 35.4263 32.0137C36.3525 31.7331 37.2399 31.3632 38.0783 30.9142ZM29.8645 31.2969C29.5127 31.2627 29.1996 31.5202 29.1654 31.872C29.1312 32.2239 29.3886 32.5369 29.7405 32.5712C30.2127 32.6171 30.6914 32.6406 31.1753 32.6406C31.6592 32.6406 32.1378 32.6171 32.6101 32.5712C32.9619 32.5369 33.2194 32.2239 33.1852 31.872C33.1509 31.5202 32.8379 31.2627 32.4861 31.2969C32.055 31.3389 31.6177 31.3604 31.1753 31.3604C30.7328 31.3604 30.2956 31.3389 29.8645 31.2969Z" fill="black"/>
<path fill-rule="evenodd" clip-rule="evenodd" d="M31.1758 19C31.7281 19 32.1758 18.5523 32.1758 18C32.1758 17.4477 31.7281 17 31.1758 17C30.6235 17 30.1758 17.4477 30.1758 18C30.1758 18.5523 30.6235 19 31.1758 19ZM31.1758 21C32.8326 21 34.1758 19.6569 34.1758 18C34.1758 16.3431 32.8326 15 31.1758 15C29.5189 15 28.1758 16.3431 28.1758 18C28.1758 19.6569 29.5189 21 31.1758 21Z" fill="black"/>
</svg>
