<svg width="71" height="57" viewBox="0 0 71 57" fill="none" xmlns="http://www.w3.org/2000/svg">
<path d="M10.9332 39.2009C9.71782 39.2022 8.51453 38.9601 7.39423 38.489C6.27393 38.0178 5.2593 37.3272 4.41016 36.4577C3.56102 35.5882 2.89456 34.5575 2.45007 33.4264C2.00559 32.2953 1.79207 31.0866 1.82212 29.8716C1.85216 28.6567 2.12516 27.46 2.62502 26.3522C3.12487 25.2444 3.84146 24.248 4.73254 23.4215C5.62362 22.5951 6.67115 21.9554 7.81337 21.5402C8.95559 21.125 10.1694 20.9427 11.3832 21.0041" stroke="#D500E6" stroke-width="2" stroke-linecap="round"/>
<path d="M11.445 20.9007C10.5199 17.0887 11.0712 13.0679 12.9883 9.64562C14.9053 6.22334 18.046 3.65301 21.7799 2.45074C25.5137 1.24848 29.5641 1.50332 33.1178 3.16408C36.6715 4.82484 39.4654 7.76855 40.9383 11.4041" stroke="#D500E6" stroke-width="2" stroke-linecap="round"/>
<path d="M10.9238 39.2829H35.725" stroke="#D500E6" stroke-width="2"/>
<path d="M51.1895 36.3723L54.0994 39.2832" stroke="black" stroke-width="2" stroke-linejoin="round"/>
<rect x="51.8742" y="41.4632" width="6.22673" height="18.5668" rx="1" transform="rotate(-45 51.8742 41.4632)" fill="black" stroke="black" stroke-width="2"/>
<ellipse opacity="0.5" rx="3.67426" ry="3.67426" transform="matrix(1.31134e-07 -1 -1 -1.31134e-07 22.8658 18.1556)" fill="#D500E6"/>
<ellipse opacity="0.5" rx="3.67426" ry="3.67426" transform="matrix(1.31134e-07 -1 -1 -1.31134e-07 11.8443 30.097)" fill="#D500E6"/>
<ellipse opacity="0.5" rx="3.67426" ry="3.67426" transform="matrix(1.31134e-07 -1 -1 -1.31134e-07 40.3189 26.4226)" fill="#D500E6"/>
<ellipse opacity="0.5" rx="3.67426" ry="3.67426" transform="matrix(1.31134e-07 -1 -1 -1.31134e-07 56.855 10.8077)" fill="#D500E6"/>
<path d="M11.8418 30.0973L22.8646 18.156L40.3173 26.4231L56.8514 10.8075" stroke="black" stroke-width="2" stroke-linecap="round" stroke-linejoin="round"/>
<path fill-rule="evenodd" clip-rule="evenodd" d="M49.6924 14.0474C43.8578 9.85998 35.6835 10.3884 30.4393 15.6326C29.6637 16.4082 28.9912 17.2479 28.4219 18.1347L30.2471 18.9992C30.7092 18.3102 31.2447 17.6557 31.8535 17.0468C36.2999 12.6005 43.1783 12.0684 48.2067 15.4505L49.6924 14.0474ZM46.7288 16.8463C42.5063 14.2526 36.9066 14.7845 33.2489 18.4422C32.8045 18.8865 32.4063 19.3595 32.0542 19.8553L33.8965 20.7279C34.13 20.4252 34.3856 20.1339 34.6631 19.8564C37.5186 17.0009 41.8219 16.4757 45.2101 18.2807L46.7288 16.8463ZM48.7953 21.7721L50.2846 20.3656C52.9463 24.599 52.4343 30.2564 48.7487 33.942C44.4685 38.2221 37.529 38.2221 33.2489 33.942C30.6759 31.369 29.6496 27.835 30.1701 24.4954L32.0739 25.3971C31.8481 27.9474 32.7112 30.5758 34.6631 32.5278C38.1622 36.0269 43.8354 36.0269 47.3345 32.5278C50.249 29.6133 50.7359 25.1906 48.7953 21.7721ZM28.3223 23.6201C27.4934 27.7249 28.6705 32.1543 31.8535 35.3374C36.9043 40.3882 45.0933 40.3882 50.1441 35.3374C54.5893 30.8922 55.1222 24.0162 51.743 18.9882L53.2146 17.5983C57.3247 23.4261 56.7726 31.5372 51.5583 36.7516C45.7264 42.5834 36.2712 42.5834 30.4393 36.7516C26.6394 32.9517 25.3154 27.6134 26.4674 22.7414L28.3223 23.6201Z" fill="black"/>
</svg>
