<svg width="42" height="46" fill="none" xmlns="http://www.w3.org/2000/svg"><path opacity=".498" d="M33 30a7 7 0 11-7 7M9 16a7 7 0 117-7" stroke="#D500E6" stroke-width="4" stroke-linejoin="round"/><circle cx="9.016" cy="9.062" r="4" transform="rotate(90 9.016 9.062)" stroke="#000" stroke-width="2" stroke-linecap="round" stroke-linejoin="round"/><circle cx="33.016" cy="37.062" r="4" transform="rotate(90 33.016 37.062)" stroke="#000" stroke-width="2" stroke-linecap="round" stroke-linejoin="round"/><path d="M29.016 38.062a1 1 0 100-2v2zm-20-17l.707-.707a1 1 0 00-1.707.707h1zm5.293 6.707a1 1 0 001.414-1.414l-1.415 1.414zm-12-1.414a1 1 0 001.414 1.414l-1.414-1.414zm7.414-4.586a1 1 0 10-1.414-1.414l1.414 1.414zm19.293 14.293h-10v2h10v-2zm-10 0a9 9 0 01-9-9h-2c0 6.075 4.925 11 11 11v-2zm-9-9v-6h-2v6h2zm-1.707-5.293l6 6 1.414-1.414-6-6-1.414 1.414zm-4.586 6l6-6-1.414-1.414-6 6 1.414 1.414zm9.293-19.707a1 1 0 100 2v-2zm20 17h-1a1 1 0 001.707.707l-.707-.707zm6.707-5.293a1 1 0 10-1.414-1.414l1.414 1.414zm-12-1.414a1 1 0 00-1.415 1.414l1.415-1.414zm4.586 7.414a1 1 0 001.414-1.414l-1.414 1.414zM13.016 10.062h10v-2h-10v2zm10 0a9 9 0 019 9h2c0-6.075-4.925-11-11-11v2zm9 9v6h2v-6h-2zm1.707 6.707l6-6-1.414-1.414-6 6 1.414 1.414zm-7.415-6l6 6 1.415-1.414-6-6-1.415 1.414z" fill="#000"/></svg>