<svg width="229" height="35" viewBox="0 0 229 35" fill="none" xmlns="http://www.w3.org/2000/svg">
  <path
    d="M227.029 11.9211C227.227 11.9789 227.386 12.1697 227.43 12.3082C228.295 14.9882 228.505 17.909 227.914 20.8588C227.459 23.129 226.571 25.2107 225.348 27.0389L225.322 27.0391C222.104 31.8316 216.531 35 210.195 35C205.6 35 201.406 33.3337 198.221 30.5901C198.109 30.4939 197.992 30.286 198.015 30.0902C198.039 29.88 198.212 29.6824 198.35 29.6162C199.217 29.1985 200.039 28.6927 200.803 28.1054C200.865 28.0585 201.016 27.9753 201.171 27.9774C201.333 27.9796 201.498 28.0695 201.566 28.1215C203.939 29.9385 206.936 31.0227 210.195 31.0227C217.894 31.0227 224.135 24.9684 224.135 17.5C224.135 17.233 224.139 16.9677 224.123 16.7046C224.087 16.116 224.011 15.5349 223.898 14.9642L223.838 14.6797C223.824 14.6179 223.808 14.4695 223.853 14.339C223.898 14.2095 224.005 14.0979 224.055 14.0552L226.455 12.0319C226.566 11.9383 226.818 11.8599 227.029 11.9211ZM210.195 7.95455C215.629 7.95455 220.035 12.2282 220.035 17.5L220.033 17.6942L220.035 17.725V18.3755C220.035 18.7709 219.705 19.0914 219.297 19.0914L212.791 19.0957L204.777 19.0918C204.536 19.0914 204.536 19.33 204.63 19.5786C205.463 21.7911 207.628 23.0682 210.195 23.0682C210.638 23.0682 211.071 23.0387 211.487 22.9726C212.715 22.7266 213.778 22.1201 214.582 21.2861L214.648 21.2159C214.773 21.0982 214.907 21.0358 215.048 21.0288C215.273 21.0176 215.401 21.1072 215.45 21.1415L217.712 22.7223C217.819 22.7969 217.924 22.9323 217.948 23.0682C217.984 23.2719 217.94 23.4443 217.816 23.5855C216.381 25.2731 214.352 26.4893 211.969 26.8969C211.597 26.9604 211.227 27.0026 210.859 27.0244L210.727 27.0317C210.551 27.0408 210.373 27.0455 210.195 27.0455C204.76 27.0455 200.354 22.7718 200.354 17.5C200.354 12.2282 204.76 7.95455 210.195 7.95455ZM192.153 7.95455C194.635 7.95455 196.902 8.84537 198.633 10.3153C198.717 10.387 198.835 10.5432 198.84 10.7479C198.846 10.9525 198.739 11.1127 198.67 11.1801L196.635 13.154C196.564 13.2224 196.419 13.3363 196.203 13.3363C195.988 13.3363 195.863 13.2498 195.79 13.1914C194.8 12.4042 193.534 11.9318 192.153 11.9318C188.983 11.9318 186.413 14.4248 186.413 17.5C186.413 20.5752 188.983 23.0682 192.153 23.0682C193.53 23.0682 194.794 22.5982 195.783 21.8145C195.858 21.755 195.989 21.6637 196.213 21.6637C196.437 21.6637 196.588 21.8017 196.66 21.8711L198.666 23.8172C198.74 23.8887 198.843 24.0572 198.842 24.2333C198.841 24.4123 198.733 24.5988 198.654 24.6665C196.92 26.1473 194.645 27.0455 192.153 27.0455C186.719 27.0455 182.313 22.7718 182.313 17.5C182.313 12.2282 186.719 7.95455 192.153 7.95455ZM210.195 11.9318C208.16 11.9318 206.378 12.9801 205.39 14.5502L205.323 14.6606C205.064 15.0759 205.239 15.1105 205.45 15.1134H214.939C215.141 15.1106 215.31 15.0789 215.099 14.7147L215.066 14.6604C214.094 13.0293 212.277 11.9318 210.195 11.9318ZM228.259 2.73268C228.265 2.78488 228.26 2.83769 228.245 2.88809L226.557 8.48384C226.494 8.69466 226.266 8.81555 226.049 8.75386C225.971 8.73181 225.902 8.68795 225.85 8.6278L225.057 7.71176L222.594 9.71705C222.264 9.98532 221.781 9.95912 221.484 9.66729L221.439 9.61901L219.857 7.79095C219.566 7.45441 219.611 6.95267 219.958 6.67028L222.421 4.66517L221.563 3.67285C221.418 3.50458 221.44 3.25371 221.614 3.11252C221.676 3.06204 221.752 3.03051 221.832 3.02188L227.807 2.38108C228.032 2.35694 228.234 2.51436 228.259 2.73268ZM210.195 0C211.315 0 212.411 0.0990408 213.475 0.288588L213.475 0.29526C215.141 0.591418 216.731 1.11062 218.207 1.82075C218.341 1.88523 218.511 2.06693 218.538 2.26616C218.568 2.47732 218.448 2.70708 218.336 2.79875L215.9 4.78087C215.849 4.82267 215.719 4.90717 215.58 4.9301C215.457 4.95033 215.328 4.92322 215.257 4.90086L215.23 4.89172C213.525 4.252 211.662 3.92903 209.719 3.99483C206.641 4.09911 203.83 5.16411 201.583 6.88241C201.516 6.93396 201.35 7.01728 201.186 7.01876C201.023 7.02024 200.862 6.93993 200.81 6.89997C200.661 6.78492 200.509 6.67298 200.355 6.56422C200.241 6.48338 200.125 6.40429 200.009 6.32697L199.842 6.21809C199.476 5.98311 199.099 5.76526 198.713 5.56524L198.515 5.46456L198.315 5.36695C198.177 5.27608 198.087 5.15695 198.045 5.00955C197.965 4.73119 198.107 4.50809 198.216 4.41478C201.401 1.66818 205.597 0 210.195 0ZM32.2437 7.95455C37.6785 7.95455 42.0843 12.2282 42.0843 17.5L42.0822 17.6942L42.0843 17.725V18.3755C42.0843 18.7709 41.7538 19.0914 41.3462 19.0914L34.8399 19.0957L26.8266 19.0918C26.5853 19.0914 26.5853 19.33 26.6789 19.5786C27.5119 21.7911 29.6767 23.0682 32.2437 23.0682C32.6875 23.0682 33.1199 23.0387 33.5357 22.9726C34.7637 22.7266 35.8269 22.1201 36.6307 21.2861L36.6967 21.2159C36.8225 21.0982 36.9559 21.0358 37.0969 21.0288C37.3223 21.0176 37.4504 21.1072 37.4996 21.1415L39.7613 22.7223C39.8681 22.7969 39.9731 22.9323 39.9972 23.0682C40.0334 23.2719 39.9894 23.4443 39.8653 23.5855C38.4302 25.2731 36.401 26.4893 34.018 26.8969C33.6464 26.9604 33.276 27.0026 32.908 27.0244L32.7762 27.0317C32.5999 27.0408 32.4223 27.0455 32.2437 27.0455C26.8089 27.0455 22.4031 22.7718 22.4031 17.5C22.4031 12.2282 26.8089 7.95455 32.2437 7.95455ZM32.2437 11.9318C30.209 11.9318 28.4267 12.9801 27.4394 14.5502L27.3719 14.6606C27.1126 15.0759 27.2879 15.1105 27.4994 15.1134H36.988C37.1898 15.1106 37.3587 15.0789 37.1481 14.7147L37.1154 14.6604C36.1433 13.0293 34.3256 11.9318 32.2437 11.9318ZM127.37 26.25C127.37 26.6893 127.002 27.0455 126.549 27.0455H124.089C123.636 27.0455 123.269 26.6893 123.269 26.25L123.269 15.5114C123.269 13.7541 121.801 12.3295 119.989 12.3295C118.178 12.3295 116.709 13.7541 116.709 15.5114L116.709 26.25C116.709 26.6893 116.342 27.0455 115.889 27.0455H113.429C112.976 27.0455 112.609 26.6893 112.609 26.25V10.002C112.609 9.75551 112.726 9.52292 112.928 9.37231L115.718 7.28342C115.987 7.08212 116.373 7.13039 116.581 7.39123C116.664 7.49565 116.709 7.62382 116.709 7.75568L116.709 9.09634C117.697 8.62007 118.811 8.35227 119.989 8.35227C122.085 8.35227 123.976 9.19941 125.32 10.5599C126.663 9.19941 128.554 8.35227 130.65 8.35227C134.726 8.35227 138.03 11.5575 138.03 15.5114V26.25C138.03 26.6893 137.663 27.0455 137.21 27.0455H134.75C134.297 27.0455 133.93 26.6893 133.93 26.25L133.93 15.5114C133.93 13.7541 132.461 12.3295 130.65 12.3295C128.872 12.3295 127.425 13.7008 127.371 15.4123L127.37 15.5114L127.37 26.25ZM70.7963 0.795455C72.7027 0.795455 74.4646 1.39498 75.892 2.41005C75.9596 2.45812 76.0645 2.59203 76.1031 2.75117C76.1417 2.91031 76.0881 3.07859 76.0456 3.15286C75.7131 3.73416 75.2431 4.55592 74.6356 5.61815C74.5759 5.72264 74.4411 5.86297 74.2358 5.91687C74.0305 5.97076 73.8043 5.88205 73.7024 5.79898C72.917 5.15856 71.9032 4.77273 70.7963 4.77273C68.4431 4.77273 66.5103 6.51667 66.2997 8.74336L71.8226 8.74309C71.9559 8.74309 72.0855 8.78496 72.1921 8.86241C72.4642 9.0601 72.5193 9.43404 72.3152 9.69763L70.6937 12.5215C70.5774 12.6717 70.3949 12.7601 70.2011 12.7601L66.2807 12.7391V26.25C66.2807 26.6893 65.9131 27.0455 65.4596 27.0455H62.9965C62.5431 27.0455 62.1755 26.6893 62.1755 26.25V9.14773C62.1755 4.53489 66.0352 0.795455 70.7963 0.795455ZM82.6768 7.95455C88.1116 7.95455 92.5174 12.2282 92.5174 17.5C92.5174 22.7718 88.1116 27.0455 82.6768 27.0455C77.242 27.0455 72.8362 22.7718 72.8362 17.5C72.8362 12.2282 77.242 7.95455 82.6768 7.95455ZM82.6768 11.9318C79.5065 11.9318 76.9364 14.4248 76.9364 17.5C76.9364 20.5752 79.5065 23.0682 82.6768 23.0682C85.8471 23.0682 88.4171 20.5752 88.4171 17.5C88.4171 14.4248 85.8471 11.9318 82.6768 11.9318ZM47.6539 7.28342C47.9228 7.08212 48.309 7.13039 48.5166 7.39123C48.5996 7.49565 48.6447 7.62382 48.6447 7.75568V9.18373L48.781 9.10395C50.0359 8.38453 51.4667 7.98203 52.9599 7.94974L53.155 7.94763C55.7457 7.94763 58.072 9.05848 59.6515 10.8185C59.7182 10.8927 59.8086 11.0331 59.7923 11.2362C59.776 11.4394 59.6492 11.5927 59.5704 11.6524C58.5783 12.4042 57.8164 12.9816 57.2848 13.3844C57.2085 13.4422 57.0454 13.5176 56.8816 13.5086C56.7085 13.4991 56.5349 13.4016 56.4723 13.3357C55.6481 12.4683 54.4669 11.9249 53.155 11.9249C50.7067 11.9249 48.707 13.8196 48.6462 16.1836L48.6447 16.2999V26.2431C48.6447 26.6824 48.2775 27.0385 47.8246 27.0385H45.3645C44.9116 27.0385 44.5444 26.6824 44.5444 26.2431V10.002C44.5444 9.75551 44.6623 9.52292 44.8635 9.37231L47.6539 7.28342ZM98.087 7.28342C98.3559 7.08212 98.7421 7.13039 98.9496 7.39123C99.0327 7.49565 99.0778 7.62382 99.0778 7.75568V9.18373L99.2141 9.10395C100.469 8.38453 101.9 7.98203 103.393 7.94974L103.588 7.94763C106.179 7.94763 108.505 9.05848 110.085 10.8185C110.151 10.8927 110.242 11.0331 110.225 11.2362C110.209 11.4394 110.082 11.5927 110.004 11.6524C109.011 12.4042 108.249 12.9816 107.718 13.3844C107.642 13.4422 107.478 13.5176 107.315 13.5086C107.142 13.4991 106.968 13.4016 106.905 13.3357C106.081 12.4683 104.9 11.9249 103.588 11.9249C101.14 11.9249 99.1401 13.8196 99.0793 16.1836L99.0778 16.2999V26.2431C99.0778 26.6824 98.7106 27.0385 98.2577 27.0385H95.7976C95.3447 27.0385 94.9775 26.6824 94.9775 26.2431V10.002C94.9775 9.75551 95.0954 9.52292 95.2966 9.37231L98.087 7.28342ZM4.23516 7.39289C4.3174 7.49702 4.36197 7.62454 4.36197 7.75568V9.74116L4.47303 9.66436C6.05055 8.59496 7.92583 7.99056 9.89797 7.95146L10.1023 7.94943C15.5371 7.94943 19.9429 12.2231 19.9429 17.4949C19.9429 22.7667 15.5371 27.0403 10.1023 27.0403C8.05551 27.0403 6.10494 26.4317 4.47303 25.3254L4.36197 25.2485V32.6085C4.36197 33.0279 4.02744 33.3714 3.60312 33.4018L3.54192 33.404H1.08177C0.628868 33.404 0.261719 33.0478 0.261719 32.6085V9.88869C0.261719 9.70306 0.3508 9.52801 0.502713 9.41511L3.37289 7.28214C3.64253 7.08176 4.02858 7.13134 4.23516 7.39289ZM10.1023 11.9267C6.93201 11.9267 4.36197 14.4197 4.36197 17.4949C4.36197 20.5701 6.93201 23.0631 10.1023 23.0631C13.2726 23.0631 15.8427 20.5701 15.8427 17.4949C15.8427 14.4197 13.2726 11.9267 10.1023 11.9267ZM159.351 7.15909C159.804 7.15909 160.172 7.51523 160.172 7.95455V26.25C160.172 26.6893 159.804 27.0455 159.351 27.0455H156.891C156.438 27.0455 156.071 26.6893 156.071 26.25L156.072 25.2538C154.456 26.3814 152.473 27.0455 150.331 27.0455C144.896 27.0455 140.49 22.7718 140.49 17.5C140.49 12.2282 144.896 7.95455 150.331 7.95455C152.473 7.95455 154.456 8.61864 156.072 9.74619L156.071 7.95455C156.071 7.51523 156.438 7.15909 156.891 7.15909H159.351ZM150.331 11.9318C147.161 11.9318 144.591 14.4248 144.591 17.5C144.591 20.5752 147.161 23.0682 150.331 23.0682C153.501 23.0682 156.071 20.5752 156.071 17.5C156.071 14.4248 153.501 11.9318 150.331 11.9318ZM165.741 7.28342L162.951 9.37231C162.75 9.52292 162.632 9.75551 162.632 10.002V26.25C162.632 26.6893 162.999 27.0455 163.452 27.0455H165.912C166.365 27.0455 166.732 26.6893 166.732 26.25V16.3068L166.733 16.1905C166.794 13.8265 168.794 11.9318 171.242 11.9318C173.733 11.9318 175.752 13.8906 175.752 16.3068V26.25C175.752 26.6893 176.12 27.0455 176.573 27.0455H179.033C179.486 27.0455 179.853 26.6893 179.853 26.25V16.3068L179.852 16.1664C179.772 11.6109 175.942 7.95455 171.242 7.95455L171.047 7.95665C169.554 7.98895 168.123 8.39144 166.868 9.11086L166.732 9.19065V7.75568C166.732 7.62382 166.687 7.49565 166.604 7.39123C166.396 7.13039 166.01 7.08212 165.741 7.28342Z"
    fill="black" />
</svg>