<svg width="56" height="53" viewBox="0 0 56 53" fill="none" xmlns="http://www.w3.org/2000/svg">
<path opacity="0.5" fill-rule="evenodd" clip-rule="evenodd" d="M0 27.6729C2.41411e-07 30.4343 2.23858 32.6729 5 32.6729C7.76142 32.6729 10 30.4343 10 27.6729C10 24.9114 7.76142 22.6729 5 22.6729C2.23858 22.6729 -2.41411e-07 24.9114 0 27.6729ZM5 30.6729C3.34315 30.6729 2 29.3297 2 27.6729C2 26.016 3.34315 24.6729 5 24.6729C6.65685 24.6729 8 26.016 8 27.6729C8 29.3297 6.65685 30.6729 5 30.6729Z" fill="#D500E6"/>
<path fill-rule="evenodd" clip-rule="evenodd" d="M4.74273 28.639C4.20926 28.4961 3.89268 27.9477 4.03562 27.4143C4.17856 26.8808 4.7269 26.5642 5.26037 26.7072C5.79383 26.8501 6.11041 27.3984 5.96747 27.9319C5.82453 28.4654 5.27619 28.7819 4.74273 28.639ZM4.22509 30.5709C2.62469 30.142 1.67494 28.497 2.10377 26.8966C2.53259 25.2962 4.17761 24.3465 5.778 24.7753C7.3784 25.2041 8.32815 26.8491 7.89932 28.4495C7.4705 30.0499 5.82549 30.9997 4.22509 30.5709Z" fill="black"/>
<path fill-rule="evenodd" clip-rule="evenodd" d="M54.4988 7.88313C53.9558 7.9837 53.434 7.62501 53.3334 7.08196L52.4229 2.16556L47.5065 3.0761C46.9635 3.17668 46.4417 2.81798 46.3411 2.27493C46.2405 1.73188 46.5992 1.21012 47.1423 1.10954L53.042 0.0168985C53.585 -0.0836767 54.1068 0.27502 54.2073 0.81807L55.3 6.71774C55.4006 7.26079 55.0419 7.78255 54.4988 7.88313Z" fill="black"/>
<path fill-rule="evenodd" clip-rule="evenodd" d="M25.3242 38.5654H17.3242V50.5654H25.3242V38.5654ZM17.3242 36.5654C16.2196 36.5654 15.3242 37.4609 15.3242 38.5654V52.5654H27.3242V38.5654C27.3242 37.4609 26.4288 36.5654 25.3242 36.5654H17.3242Z" fill="black"/>
<path fill-rule="evenodd" clip-rule="evenodd" d="M11.3242 43.5654H3.32422V50.5654H11.3242V43.5654ZM3.32422 41.5654C2.21965 41.5654 1.32422 42.4609 1.32422 43.5654V52.5654H13.3242V43.5654C13.3242 42.4609 12.4288 41.5654 11.3242 41.5654H3.32422Z" fill="black"/>
<path fill-rule="evenodd" clip-rule="evenodd" d="M53.3242 19.5654H45.3242V50.5654H53.3242V19.5654ZM45.3242 17.5654C44.2196 17.5654 43.3242 18.4609 43.3242 19.5654V52.5654H55.3242V19.5654C55.3242 18.4609 54.4288 17.5654 53.3242 17.5654H45.3242Z" fill="#D500E6"/>
<path fill-rule="evenodd" clip-rule="evenodd" d="M39.3242 30.5654H31.3242V50.5654H39.3242V30.5654ZM31.3242 28.5654C30.2196 28.5654 29.3242 29.4609 29.3242 30.5654V52.5654H41.3242V30.5654C41.3242 29.4609 40.4288 28.5654 39.3242 28.5654H31.3242Z" fill="black"/>
<path fill-rule="evenodd" clip-rule="evenodd" d="M32.9548 20.2125C40.942 15.6345 47.4329 9.01282 51.7084 1.09961L53.468 2.05032C49.0116 10.2983 42.2525 17.1886 33.9494 21.9477C25.6463 26.7069 16.128 29.1465 6.46289 28.9926L6.49472 26.9929C15.8039 27.1411 24.9671 24.7909 32.9548 20.2125Z" fill="black"/>
</svg>
