<svg width="24" height="24" viewBox="0 0 24 24" fill="none" xmlns="http://www.w3.org/2000/svg">
<path d="M16.4499 12.8705C16.3593 12.4899 15.8866 12.3561 15.61 12.6327L12.6327 15.6099C12.3561 15.8865 12.49 16.3593 12.8705 16.4499L16.7781 17.3803C17.1405 17.4666 17.4666 17.1405 17.3803 16.7781L16.4499 12.8705Z" fill="black"/>
<path d="M7.24002 10.8194C7.33062 11.1999 7.80338 11.3337 8.07997 11.0571L11.0572 8.07989C11.3338 7.80329 11.2 7.33053 10.8195 7.23993L6.91185 6.30955C6.54945 6.22326 6.22335 6.54936 6.30963 6.91176L7.24002 10.8194Z" fill="black"/>
<path d="M8.5 8.5L15.5 15.5" stroke="black" stroke-width="1.5" stroke-linecap="round" stroke-linejoin="round"/>
<path d="M8 15.5L15 8.5" stroke="black" stroke-width="1.5" stroke-linecap="round" stroke-linejoin="round"/>
<path fill-rule="evenodd" clip-rule="evenodd" d="M0 3C0 1.34315 1.34315 0 3 0H21C22.6569 0 24 1.34315 24 3V21C24 22.6569 22.6569 24 21 24H3C1.34315 24 0 22.6569 0 21V3ZM22.5 3C22.5 2.17157 21.8284 1.5 21 1.5H3C2.17157 1.5 1.5 2.17157 1.5 3V21C1.5 21.8284 2.17157 22.5 3 22.5H21C21.8284 22.5 22.5 21.8284 22.5 21V3Z" fill="black"/>
</svg>
