<svg width="22" height="17" viewBox="0 0 22 17" fill="none" xmlns="http://www.w3.org/2000/svg">
<path d="M13.1045 15.7698C12.8982 15.5659 12.795 15.3224 12.795 15.0393C12.795 14.7562 12.8867 14.524 13.0701 14.3428L18.1243 9.34838H1.07054C0.772559 9.34838 0.52615 9.25212 0.331315 9.05959C0.13648 8.86706 0.0390625 8.62357 0.0390625 8.32911C0.0390625 8.03465 0.13648 7.79116 0.331315 7.59863C0.52615 7.4061 0.772559 7.30984 1.07054 7.30984H18.1243L13.0357 2.28143C12.8294 2.07757 12.732 1.83974 12.7434 1.56794C12.7549 1.29613 12.8638 1.0583 13.0701 0.854448C13.2764 0.673244 13.5228 0.582642 13.8093 0.582642C14.0958 0.582642 14.3308 0.673244 14.5141 0.854448L21.3563 7.61562C21.4709 7.72887 21.5511 7.84212 21.597 7.95538C21.6428 8.06863 21.6657 8.19321 21.6657 8.32911C21.6657 8.46501 21.6428 8.58959 21.597 8.70284C21.5511 8.8161 21.4709 8.92935 21.3563 9.0426L14.5485 15.7698C14.3422 15.9737 14.1016 16.0756 13.8265 16.0756C13.5514 16.0756 13.3108 15.9737 13.1045 15.7698Z" fill="#812990"/>
</svg>
