<svg width="19" height="19" viewBox="0 0 19 19" fill="none" xmlns="http://www.w3.org/2000/svg">
<path d="M9.5 18C4.81377 18 1 14.1862 1 9.5C1 4.81377 4.81377 1 9.5 1C14.1862 1 18 4.81377 18 9.5C18 14.1862 14.1862 18 9.5 18ZM9.5 1.96226C5.34302 1.96226 1.96226 5.34302 1.96226 9.5C1.96226 13.657 5.34302 17.0377 9.5 17.0377C13.657 17.0377 17.0377 13.657 17.0377 9.5C17.0377 5.34302 13.657 1.96226 9.5 1.96226Z" fill="url(#paint0_linear_3339_17)" stroke="url(#paint1_linear_3339_17)" stroke-width="0.5"/>
<path d="M14.0932 7.32211L9.14398 12.8359C9.02851 12.9642 8.86653 13.038 8.69492 13.0428C8.68851 13.0428 8.6837 13.0428 8.67728 13.0428C8.51209 13.0428 8.35332 12.977 8.23464 12.8599L5.6686 10.3035C5.42322 10.0598 5.42162 9.66362 5.667 9.41825C5.91077 9.17287 6.3069 9.17126 6.55228 9.41664L8.65322 11.508L13.1614 6.48494C13.3924 6.22834 13.7885 6.20589 14.0467 6.43683C14.3033 6.66938 14.3242 7.06551 14.0932 7.32211Z" fill="url(#paint2_linear_3339_17)"/>
<defs>
<linearGradient id="paint0_linear_3339_17" x1="9.5" y1="1" x2="9.5" y2="18" gradientUnits="userSpaceOnUse">
<stop stop-color="#00B0F0"/>
<stop offset="1" stop-color="#812990"/>
</linearGradient>
<linearGradient id="paint1_linear_3339_17" x1="9.5" y1="1" x2="9.5" y2="18" gradientUnits="userSpaceOnUse">
<stop stop-color="#00B0F0"/>
<stop offset="1" stop-color="#812990"/>
</linearGradient>
<linearGradient id="paint2_linear_3339_17" x1="9.86872" y1="6.2771" x2="9.86872" y2="13.0428" gradientUnits="userSpaceOnUse">
<stop stop-color="#00B0F0"/>
<stop offset="1" stop-color="#812990"/>
</linearGradient>
</defs>
</svg>
