<svg width="44" height="44" fill="none" xmlns="http://www.w3.org/2000/svg"><path opacity=".497" fill-rule="evenodd" clip-rule="evenodd" d="M31 22a9 9 0 11-18 0 9 9 0 0118 0z" fill="#D500E6"/><path clip-rule="evenodd" d="M25.91 21.672a.375.375 0 010 .656l-5.603 3.113a.375.375 0 01-.557-.328v-6.226c0-.286.307-.466.557-.327l5.603 3.112v0z" stroke="#000" stroke-width="1.5" stroke-linecap="round" stroke-linejoin="round"/><rect x="5.667" y="5.667" width="32.667" height="32.667" rx="1" stroke="#000" stroke-width="2" stroke-linecap="round" stroke-linejoin="round"/><path d="M1 17.333h4.667M1 26.667h4.667M17.333 1v4.667M26.667 1v4.667M43 17.333h-4.667M43 26.667h-4.667M26.667 43v-4.667M17.333 43v-4.667" stroke="#000" stroke-width="2" stroke-linecap="round" stroke-linejoin="round"/></svg>