<svg width="48" height="61" viewBox="0 0 48 61" fill="none" xmlns="http://www.w3.org/2000/svg">
<path fill-rule="evenodd" clip-rule="evenodd" d="M44.3832 11.0594C37.2766 9.48361 30.3847 6.39335 24.7032 2.22824C24.2881 1.92392 23.7119 1.92392 23.2968 2.22824C17.6153 6.39335 10.7234 9.48361 3.61677 11.0594C3.17375 11.1576 2.92656 11.463 2.87469 11.7378C1.02149 21.5548 2.13637 31.931 5.99638 40.717C9.94641 49.7079 16.3845 56.1743 23.7865 58.9552C23.9242 59.0069 24.0758 59.0069 24.2135 58.9552C31.6155 56.1743 38.0536 49.7079 42.0036 40.717C45.8636 31.931 46.9785 21.5548 45.1253 11.7378C45.0734 11.463 44.8262 11.1576 44.3832 11.0594ZM25.8857 0.615254C24.7667 -0.205084 23.2333 -0.205085 22.1143 0.615254C16.6644 4.61058 10.0297 7.58887 3.18382 9.10681C2.04639 9.35901 1.12551 10.222 0.909397 11.3668C-1.01525 21.5622 0.13586 32.3498 4.1653 41.5215C8.28691 50.9029 15.0805 57.8209 23.0831 60.8274C23.6743 61.0495 24.3257 61.0495 24.9169 60.8274C32.9195 57.8209 39.7131 50.9029 43.8347 41.5215C47.8641 32.3498 49.0152 21.5622 47.0906 11.3668C46.8745 10.222 45.9536 9.35901 44.8162 9.10681C37.9703 7.58887 31.3356 4.61058 25.8857 0.615254Z" fill="black"/>
<path opacity="0.5" fill-rule="evenodd" clip-rule="evenodd" d="M19.1523 28.5557C19.1523 25.7942 21.3909 23.5557 24.1523 23.5557C26.9138 23.5557 29.1523 25.7942 29.1523 28.5557C29.1523 31.3171 26.9138 33.5557 24.1523 33.5557C21.3909 33.5557 19.1523 31.3171 19.1523 28.5557ZM24.1523 25.5557C22.4955 25.5557 21.1523 26.8988 21.1523 28.5557C21.1523 30.2125 22.4955 31.5557 24.1523 31.5557C25.8092 31.5557 27.1523 30.2125 27.1523 28.5557C27.1523 26.8988 25.8092 25.5557 24.1523 25.5557Z" fill="#D500E6"/>
<path fill-rule="evenodd" clip-rule="evenodd" d="M24.1523 27.5557C23.6001 27.5557 23.1523 28.0034 23.1523 28.5557C23.1523 29.1079 23.6001 29.5557 24.1523 29.5557C24.7046 29.5557 25.1523 29.1079 25.1523 28.5557C25.1523 28.0034 24.7046 27.5557 24.1523 27.5557ZM24.1523 25.5557C22.4955 25.5557 21.1523 26.8988 21.1523 28.5557C21.1523 30.2125 22.4955 31.5557 24.1523 31.5557C25.8092 31.5557 27.1523 30.2125 27.1523 28.5557C27.1523 26.8988 25.8092 25.5557 24.1523 25.5557Z" fill="black"/>
<path fill-rule="evenodd" clip-rule="evenodd" d="M29.6086 36.0749L31.6356 38.1018L33.847 35.8904L31.82 33.8635L32.473 32.5712C32.6865 32.1485 32.8662 31.7129 33.0118 31.2684L33.4631 29.8911L36.3314 29.8911L36.3314 26.7637L33.4618 26.7637L33.01 25.3877C32.8646 24.945 32.6856 24.5112 32.4729 24.0903L31.8199 22.798L33.7732 20.8447L31.5617 18.6333L29.6084 20.5866L28.3161 19.9337C27.8941 19.7205 27.4591 19.5411 27.0152 19.3955L25.6383 18.9441L25.6383 16.0753L22.5109 16.0753L22.5109 18.9445L21.1345 19.3962C20.6913 19.5417 20.257 19.7209 19.8355 19.9338L18.5432 20.5867L16.516 18.5595L14.3046 20.7709L16.3318 22.7981L15.6789 24.0904C15.4663 24.5113 15.2873 24.945 15.1419 25.3876L14.6901 26.7637L11.8217 26.7637L11.8217 29.8911L14.6888 29.8911L15.1401 31.2683C15.2858 31.7128 15.4654 32.1483 15.6789 32.5709L16.3318 33.8632L14.2308 35.9642L16.4423 38.1756L18.5431 36.0747L19.8355 36.7277C20.2569 36.9406 20.6913 37.1199 21.1345 37.2653L22.5109 37.717L22.511 40.5849L25.6384 40.5849L25.6384 37.7175L27.0152 37.2661C27.4592 37.1205 27.8942 36.9411 28.3163 36.7278L29.6086 36.0749ZM29.2182 38.5129L30.477 39.7717C31.1169 40.4115 32.1543 40.4115 32.7942 39.7717L35.5168 37.049C36.1567 36.4091 36.1567 35.3717 35.5168 34.7319L34.2581 33.4731C34.5175 32.9597 34.7356 32.4307 34.9124 31.8911L36.6929 31.8911C37.5978 31.8911 38.3314 31.1576 38.3314 30.2527L38.3314 26.4022C38.3314 25.4973 37.5978 24.7637 36.6929 24.7637L34.9102 24.7637C34.7338 24.2265 34.5164 23.6997 34.258 23.1883L35.443 22.0033C36.0829 21.3634 36.0829 20.326 35.443 19.6861L32.7203 16.9635C32.0805 16.3236 31.043 16.3236 30.4032 16.9635L29.218 18.1486C28.7053 17.8895 28.1771 17.6717 27.6383 17.4951L27.6383 15.7138C27.6383 14.8089 26.9047 14.0753 25.9998 14.0753L22.1494 14.0753C21.2445 14.0753 20.5109 14.8089 20.5109 15.7138L20.5109 17.4959C19.973 17.6724 19.4456 17.89 18.9336 18.1487L17.6746 16.8897C17.0347 16.2498 15.9973 16.2498 15.3574 16.8896L12.6347 19.6123C11.9949 20.2522 11.9949 21.2896 12.6347 21.9295L13.8938 23.1885C13.6355 23.6998 13.4181 24.2265 13.2417 24.7637L11.4602 24.7637C10.5553 24.7637 9.8217 25.4973 9.8217 26.4022L9.82171 30.2526C9.82171 31.1575 10.5553 31.8911 11.4602 31.8911L13.2396 31.8911C13.4163 32.4305 13.6344 32.9594 13.8938 33.4728L12.561 34.8056C11.9211 35.4454 11.9211 36.4829 12.561 37.1227L15.2837 39.8454C15.9236 40.4853 16.961 40.4853 17.6008 39.8454L18.9335 38.5128C19.4455 38.7715 19.973 38.9891 20.511 39.1656L20.511 40.9464C20.511 41.8513 21.2445 42.5849 22.1494 42.5849L25.9999 42.5849C26.9048 42.5849 27.6384 41.8513 27.6384 40.9464L27.6384 39.1665C28.1772 38.9898 28.7054 38.772 29.2182 38.5129Z" fill="#D500E6"/>
</svg>
