<svg width="61" height="51" viewBox="0 0 61 51" fill="none" xmlns="http://www.w3.org/2000/svg">
<path d="M40.5332 38.7969H53.0332" stroke="black" stroke-width="2" stroke-linecap="round" stroke-linejoin="round"/>
<path d="M40.5332 43.7969H53.0332" stroke="black" stroke-width="2" stroke-linecap="round" stroke-linejoin="round"/>
<path d="M24.9082 31.2969C23.4164 31.2969 21.9856 30.7042 20.9307 29.6494C19.8758 28.5945 19.2832 27.1637 19.2832 25.6719C19.2832 24.18 19.8758 22.7493 20.9307 21.6944C21.9856 20.6395 23.4164 20.0469 24.9082 20.0469L24.9082 25.6719L24.9082 31.2969Z" fill="#D500E6"/>
<path d="M59.5332 49.0469H25.2832V1.04687L50.4567 1.04687L59.5332 9.98927V49.0469Z" stroke="black" stroke-width="2"/>
<path d="M49.2832 1.29688V10.0469H59.2832" stroke="black" stroke-width="2" stroke-linecap="round" stroke-linejoin="round"/>
<rect opacity="0.5" x="30.5332" y="15.0469" width="5" height="21.25" rx="1" fill="#D500E6"/>
<rect opacity="0.5" x="36.7832" y="24.854" width="5" height="11.4423" rx="1" fill="#D500E6"/>
<rect opacity="0.5" x="43.0332" y="19.9517" width="5" height="16.3462" rx="1" fill="#D500E6"/>
<rect opacity="0.5" x="49.2832" y="29.7588" width="5" height="6.53846" rx="1" fill="#D500E6"/>
<mask id="path-10-inside-1_1354_2082" fill="white">
<path fill-rule="evenodd" clip-rule="evenodd" d="M21.4363 50.0469L26.7832 50.0469L26.7832 0.0468712L21.4363 0.0468707C20.3317 0.0468706 19.4363 0.942302 19.4363 2.04687L19.4363 6.0491C18.0505 6.51469 16.7183 7.13734 15.4655 7.90621L12.3538 4.72969C11.5808 3.94063 10.3276 3.94063 9.55465 4.72969L4.65737 9.72899C3.88442 10.5181 3.88442 11.7974 4.65737 12.5864L8.05865 16.0586C7.62328 16.9421 7.25264 17.8574 6.94986 18.7969L2.5332 18.7969C1.42864 18.7969 0.533204 19.6923 0.533204 20.7969L0.533203 29.2969C0.533203 30.4014 1.42863 31.2969 2.5332 31.2969L6.94986 31.2969C7.32428 32.4586 7.80246 33.5835 8.37852 34.6568L5.12015 37.9831C4.3472 38.7722 4.3472 40.0515 5.12015 40.8405L10.0174 45.8398C10.7904 46.6289 12.0436 46.6289 12.8166 45.8398L16.0542 42.5348C17.1329 43.1458 18.2654 43.6513 19.4363 44.0446L19.4363 48.0469C19.4363 49.1514 20.3317 50.0469 21.4363 50.0469Z"/>
</mask>
<path d="M26.7832 50.0469L26.7832 52.0469L28.7832 52.0469L28.7832 50.0469L26.7832 50.0469ZM26.7832 0.0468712L28.7832 0.0468714L28.7832 -1.95313L26.7832 -1.95313L26.7832 0.0468712ZM19.4363 6.0491L20.0732 7.94496L21.4363 7.48702L21.4363 6.0491L19.4363 6.0491ZM15.4655 7.90621L14.0368 9.30577L15.1526 10.4448L16.5116 9.6108L15.4655 7.90621ZM12.3538 4.72969L10.9251 6.12925L10.9251 6.12925L12.3538 4.72969ZM9.55465 4.72969L10.9834 6.12924L9.55465 4.72969ZM4.65737 9.72899L3.22865 8.32944L3.22865 8.32944L4.65737 9.72899ZM4.65737 12.5864L3.22865 13.986L3.22866 13.986L4.65737 12.5864ZM8.05865 16.0586L9.85265 16.9426L10.4791 15.6714L9.48737 14.659L8.05865 16.0586ZM6.94986 18.7969L6.94986 20.7969L8.40659 20.7969L8.85344 19.4104L6.94986 18.7969ZM2.5332 18.7969L2.5332 16.7969L2.5332 18.7969ZM6.94986 31.2969L8.85344 30.6834L8.40659 29.2969L6.94986 29.2969L6.94986 31.2969ZM8.37852 34.6568L9.80724 36.0564L10.8359 35.0063L10.1408 33.7111L8.37852 34.6568ZM5.12015 37.9831L3.69144 36.5835L3.69143 36.5835L5.12015 37.9831ZM5.12015 40.8405L3.69143 42.2401L3.69144 42.2401L5.12015 40.8405ZM10.0174 45.8398L11.4462 44.4403L10.0174 45.8398ZM12.8166 45.8398L11.3878 44.4403L11.3878 44.4403L12.8166 45.8398ZM16.0542 42.5348L17.0399 40.7946L15.7017 40.0365L14.6255 41.1352L16.0542 42.5348ZM19.4363 44.0446L21.4363 44.0446L21.4363 42.6067L20.0732 42.1488L19.4363 44.0446ZM26.7832 48.0469L21.4363 48.0469L21.4363 52.0469L26.7832 52.0469L26.7832 48.0469ZM24.7832 0.046871L24.7832 50.0469L28.7832 50.0469L28.7832 0.0468714L24.7832 0.046871ZM21.4363 2.04687L26.7832 2.04687L26.7832 -1.95313L21.4363 -1.95313L21.4363 2.04687ZM21.4363 2.04687L21.4363 -1.95313C19.2271 -1.95313 17.4363 -0.162267 17.4363 2.04687L21.4363 2.04687ZM21.4363 6.0491L21.4363 2.04687L17.4363 2.04687L17.4363 6.0491L21.4363 6.0491ZM16.5116 9.6108C17.636 8.92075 18.8309 8.36233 20.0732 7.94496L18.7993 4.15324C17.27 4.66704 15.8006 5.35393 14.4193 6.20162L16.5116 9.6108ZM10.9251 6.12925L14.0368 9.30577L16.8942 6.50666L13.7825 3.33013L10.9251 6.12925ZM10.9834 6.12924C10.9859 6.12665 10.9828 6.13029 10.9744 6.13376C10.9673 6.13669 10.9604 6.13789 10.9542 6.13789C10.948 6.13789 10.9411 6.13669 10.934 6.13376C10.9257 6.1303 10.9225 6.12665 10.9251 6.12925L13.7825 3.33013C12.2253 1.74049 9.68314 1.74047 8.12593 3.33013L10.9834 6.12924ZM6.08609 11.1286L10.9834 6.12924L8.12594 3.33013L3.22865 8.32944L6.08609 11.1286ZM6.08609 11.1869C6.08337 11.1841 6.08242 11.1825 6.0813 11.1797C6.07965 11.1755 6.07766 11.1679 6.07766 11.1577C6.07766 11.1476 6.07965 11.1399 6.0813 11.1357C6.08242 11.1329 6.08337 11.1313 6.08609 11.1286L3.22865 8.32944C1.69399 9.89607 1.69399 12.4194 3.22865 13.986L6.08609 11.1869ZM9.48737 14.659L6.08609 11.1869L3.22866 13.986L6.62994 17.4581L9.48737 14.659ZM8.85344 19.4104C9.1264 18.5634 9.46044 17.7386 9.85265 16.9426L6.26465 15.1745C5.78612 16.1456 5.37888 17.1514 5.04628 18.1834L8.85344 19.4104ZM2.5332 20.7969L6.94986 20.7969L6.94986 16.7969L2.5332 16.7969L2.5332 20.7969ZM2.5332 20.7969L2.5332 16.7969C0.324067 16.7969 -1.4668 18.5877 -1.4668 20.7969L2.5332 20.7969ZM2.5332 29.2969L2.5332 20.7969L-1.4668 20.7969L-1.4668 29.2969L2.5332 29.2969ZM2.5332 29.2969L2.5332 29.2969L-1.4668 29.2969C-1.4668 31.506 0.32406 33.2969 2.5332 33.2969L2.5332 29.2969ZM6.94986 29.2969L2.5332 29.2969L2.5332 33.2969L6.94986 33.2969L6.94986 29.2969ZM10.1408 33.7111C9.62193 32.7443 9.19098 31.7307 8.85344 30.6834L5.04628 31.9104C5.45758 33.1866 5.983 34.4226 6.61626 35.6026L10.1408 33.7111ZM6.54887 39.3827L9.80724 36.0564L6.9498 33.2573L3.69144 36.5835L6.54887 39.3827ZM6.54887 39.441C6.54615 39.4382 6.5452 39.4366 6.54408 39.4338C6.54243 39.4296 6.54044 39.422 6.54044 39.4118C6.54044 39.4017 6.54243 39.394 6.54408 39.3898C6.5452 39.387 6.54615 39.3854 6.54887 39.3827L3.69143 36.5835C2.15677 38.1502 2.15677 40.6734 3.69143 42.2401L6.54887 39.441ZM11.4462 44.4403L6.54887 39.441L3.69144 42.2401L8.58872 47.2394L11.4462 44.4403ZM11.3878 44.4403C11.3853 44.4429 11.3884 44.4392 11.3968 44.4358C11.4039 44.4328 11.4108 44.4316 11.417 44.4316C11.4232 44.4316 11.4301 44.4328 11.4372 44.4358C11.4455 44.4392 11.4487 44.4429 11.4462 44.4403L8.58872 47.2394C10.1459 48.829 12.6881 48.829 14.2453 47.2394L11.3878 44.4403ZM14.6255 41.1352L11.3878 44.4403L14.2453 47.2394L17.4829 43.9343L14.6255 41.1352ZM20.0732 42.1488C19.0236 41.7962 18.0079 41.3429 17.0399 40.7946L15.0684 44.275C16.258 44.9488 17.5072 45.5064 18.7993 45.9405L20.0732 42.1488ZM21.4363 48.0469L21.4363 44.0446L17.4363 44.0446L17.4363 48.0469L21.4363 48.0469ZM21.4363 48.0469L21.4363 48.0469L17.4363 48.0469C17.4363 50.256 19.2271 52.0469 21.4363 52.0469L21.4363 48.0469Z" fill="black" mask="url(#path-10-inside-1_1354_2082)"/>
<path d="M25.5332 36.2969C24.0558 36.2969 22.5929 36.0059 21.228 35.4405C19.8631 34.8752 18.6229 34.0465 17.5783 33.0018C16.5336 31.9572 15.7049 30.717 15.1396 29.3521C14.5742 27.9871 14.2832 26.5242 14.2832 25.0469C14.2832 23.5695 14.5742 22.1066 15.1396 20.7417C15.7049 19.3768 16.5336 18.1366 17.5783 17.0919C18.6229 16.0473 19.8631 15.2186 21.228 14.6532C22.5929 14.0879 24.0558 13.7969 25.5332 13.7969" stroke="black" stroke-width="2"/>
<mask id="path-13-inside-2_1354_2082" fill="white">
<rect x="30.5332" y="37.5469" width="7.5" height="7.5" rx="1"/>
</mask>
<rect x="30.5332" y="37.5469" width="7.5" height="7.5" rx="1" stroke="black" stroke-width="4" mask="url(#path-13-inside-2_1354_2082)"/>
</svg>
