<svg width="58" height="49" viewBox="0 0 58 49" fill="none" xmlns="http://www.w3.org/2000/svg">
<path fill-rule="evenodd" clip-rule="evenodd" d="M50 27C50 26.4477 50.4477 26 51 26H53C53.5523 26 54 26.4477 54 27C54 27.5523 53.5523 28 53 28H51C50.4477 28 50 27.5523 50 27Z" fill="black"/>
<path fill-rule="evenodd" clip-rule="evenodd" d="M28 27C28 26.4477 28.4477 26 29 26H31C31.5523 26 32 26.4477 32 27C32 27.5523 31.5523 28 31 28H29C28.4477 28 28 27.5523 28 27Z" fill="black"/>
<path fill-rule="evenodd" clip-rule="evenodd" d="M41 36C41.5523 36 42 36.4477 42 37L42 39C42 39.5523 41.5523 40 41 40C40.4477 40 40 39.5523 40 39L40 37C40 36.4477 40.4477 36 41 36Z" fill="black"/>
<path fill-rule="evenodd" clip-rule="evenodd" d="M2 7V47H30V38.5H32V47C32 48.1046 31.1046 49 30 49H2C0.895432 49 0 48.1046 0 47V7C0 5.89543 0.895429 5 2 5H8V7L2 7ZM24 5H30C31.1046 5 32 5.89543 32 7V16H30V7H24V5Z" fill="black"/>
<path fill-rule="evenodd" clip-rule="evenodd" d="M8 5V9H24V5H8ZM7 3C6.44772 3 6 3.44772 6 4V10C6 10.5523 6.44772 11 7 11H25C25.5523 11 26 10.5523 26 10V4C26 3.44772 25.5523 3 25 3H7Z" fill="black"/>
<path fill-rule="evenodd" clip-rule="evenodd" d="M10 2C10 0.89543 10.8954 0 12 0H20C21.1046 0 22 0.89543 22 2V3C22 4.10457 21.1046 5 20 5H12C10.8954 5 10 4.10457 10 3V2ZM20 2H12V3H20V2Z" fill="black"/>
<path fill-rule="evenodd" clip-rule="evenodd" d="M10 11C10 9.89543 10.8954 9 12 9H20C21.1046 9 22 9.89543 22 11V12C22 13.1046 21.1046 14 20 14H12C10.8954 14 10 13.1046 10 12V11ZM20 11H12V12H20V11Z" fill="black"/>
<path opacity="0.5" d="M5 19C5 18.4477 5.44772 18 6 18H8C8.55228 18 9 18.4477 9 19V43C9 43.5523 8.55228 44 8 44H6C5.44772 44 5 43.5523 5 43V19Z" fill="#D500E6"/>
<path opacity="0.5" d="M11 31C11 30.4477 11.4477 30 12 30H14C14.5523 30 15 30.4477 15 31V43C15 43.5523 14.5523 44 14 44H12C11.4477 44 11 43.5523 11 43V31Z" fill="#D500E6"/>
<path opacity="0.5" d="M17 25C17 24.4477 17.4477 24 18 24H20C20.5523 24 21 24.4477 21 25V43C21 43.5523 20.5523 44 20 44H18C17.4477 44 17 43.5523 17 43V25Z" fill="#D500E6"/>
<path opacity="0.5" d="M23 37C23 36.4477 23.4477 36 24 36H26C26.5523 36 27 36.4477 27 37V43C27 43.5523 26.5523 44 26 44H24C23.4477 44 23 43.5523 23 43V37Z" fill="#D500E6"/>
<path fill-rule="evenodd" clip-rule="evenodd" d="M56.5553 11.5592C56.9458 11.9497 56.9458 12.5828 56.5553 12.9734L41.8219 27.7068C41.6121 27.9166 41.3322 28.0137 41.0576 27.998C40.783 28.0137 40.5032 27.9166 40.2934 27.7068L32.7934 20.2068C32.4029 19.8162 32.4029 19.1831 32.7934 18.7926C33.1839 18.402 33.8171 18.402 34.2076 18.7926L41.0576 25.6426L55.141 11.5592C55.5316 11.1686 56.1647 11.1686 56.5553 11.5592Z" fill="#D500E6"/>
<path fill-rule="evenodd" clip-rule="evenodd" d="M54.0819 22.1301C55.202 25.0695 55.2996 28.3004 54.3589 31.302C53.4182 34.3036 51.4942 36.9009 48.8968 38.6753C46.2995 40.4497 43.1804 41.2976 40.0422 41.0825C36.904 40.8674 33.9297 39.6018 31.5988 37.4896L30.2559 38.9716C32.9197 41.3855 36.3189 42.832 39.9054 43.0778C43.4919 43.3237 47.0567 42.3546 50.025 40.3267C52.9934 38.2989 55.1923 35.3305 56.2674 31.9001C57.3424 28.4697 57.2309 24.7772 55.9509 21.418L54.0819 22.1301Z" fill="black"/>
<path fill-rule="evenodd" clip-rule="evenodd" d="M39.626 13.1817C40.0778 13.1378 40.5361 13.1152 41 13.1152C41.4639 13.1152 41.9222 13.1378 42.374 13.1817C42.9237 13.2352 43.4126 12.833 43.4661 12.2833C43.5196 11.7336 43.1174 11.2446 42.5677 11.1911C42.0516 11.1409 41.5287 11.1152 41 11.1152C40.4713 11.1152 39.9484 11.1409 39.4323 11.1911C38.8826 11.2446 38.4804 11.7336 38.5339 12.2833C38.5874 12.833 39.0763 13.2352 39.626 13.1817ZM36.9342 13.7145C37.4628 13.5543 37.7614 12.996 37.6013 12.4675C37.4412 11.9389 36.8829 11.6403 36.3543 11.8004C35.3419 12.1071 34.372 12.5114 33.4556 13.0022C32.9688 13.263 32.7855 13.8691 33.0463 14.3559C33.307 14.8428 33.9131 15.026 34.3999 14.7653C35.2014 14.336 36.0494 13.9826 36.9342 13.7145ZM32.1188 16.2923C32.5455 15.9417 32.6072 15.3115 32.2566 14.8848C31.906 14.4581 31.2759 14.3964 30.8491 14.747C30.0397 15.412 29.2968 16.1549 28.6317 16.9644C28.2811 17.3911 28.3428 18.0212 28.7696 18.3718C29.1963 18.7224 29.8264 18.6607 30.1771 18.234C30.7594 17.5252 31.41 16.8746 32.1188 16.2923ZM55.113 19.5709C54.8522 19.084 54.2462 18.9007 53.7593 19.1615C53.2725 19.4223 53.0892 20.0283 53.35 20.5152C53.7793 21.3167 54.1327 22.1646 54.4008 23.0494C54.5609 23.578 55.1192 23.8767 55.6478 23.7165C56.1763 23.5564 56.475 22.9981 56.3148 22.4695C56.0081 21.4571 55.6038 20.4872 55.113 19.5709ZM28.65 20.5152C28.9108 20.0283 28.7275 19.4223 28.2407 19.1615C27.7538 18.9007 27.1478 19.084 26.887 19.5709C26.3962 20.4872 25.9919 21.4571 25.6852 22.4695C25.525 22.9981 25.8237 23.5564 26.3522 23.7165C26.8808 23.8767 27.4391 23.578 27.5992 23.0494C27.8673 22.1646 28.2207 21.3167 28.65 20.5152ZM56.9241 25.5475C56.8706 24.9979 56.3816 24.5956 55.8319 24.6491C55.2823 24.7026 54.88 25.1916 54.9335 25.7413C54.9775 26.193 55 26.6514 55 27.1152C55 27.5791 54.9775 28.0374 54.9335 28.4892C54.88 29.0389 55.2823 29.5279 55.8319 29.5814C56.3816 29.6349 56.8706 29.2326 56.9241 28.6829C56.9743 28.1669 57 27.6439 57 27.1152C57 26.5866 56.9743 26.0636 56.9241 25.5475ZM27.0665 25.7413C27.12 25.1916 26.7177 24.7026 26.1681 24.6491C25.6184 24.5956 25.1294 24.9979 25.0759 25.5475C25.0257 26.0636 25 26.5866 25 27.1152C25 27.6439 25.0257 28.1669 25.0759 28.6829C25.1294 29.2326 25.6184 29.6349 26.1681 29.5814C26.7177 29.5279 27.12 29.0389 27.0665 28.4892C27.0225 28.0374 27 27.5791 27 27.1152C27 26.6514 27.0225 26.193 27.0665 25.7413ZM56.3148 31.7609C56.475 31.2324 56.1763 30.6741 55.6478 30.5139C55.1192 30.3538 54.5609 30.6525 54.4008 31.181C54.1327 32.0659 53.7793 32.9138 53.35 33.7153C53.0892 34.2021 53.2725 34.8082 53.7593 35.069C54.2462 35.3297 54.8522 35.1464 55.113 34.6596C55.6038 33.7433 56.0081 32.7734 56.3148 31.7609ZM27.5992 31.181C27.4391 30.6525 26.8808 30.3538 26.3522 30.5139C25.8237 30.6741 25.525 31.2324 25.6852 31.7609C25.9919 32.7734 26.3962 33.7433 26.887 34.6596C27.1478 35.1464 27.7538 35.3297 28.2407 35.069C28.7275 34.8082 28.9108 34.2021 28.65 33.7153C28.2207 32.9138 27.8673 32.0659 27.5992 31.181ZM30.1771 35.9965C29.8264 35.5697 29.1963 35.508 28.7696 35.8586C28.3428 36.2092 28.2811 36.8394 28.6317 37.2661C29.2968 38.0755 30.0397 38.8185 30.8491 39.4835C31.2759 39.8341 31.906 39.7724 32.2566 39.3457C32.6072 38.9189 32.5455 38.2888 32.1188 37.9382C31.41 37.3558 30.7594 36.7052 30.1771 35.9965ZM53.3683 37.2661C53.7189 36.8394 53.6572 36.2092 53.2304 35.8586C52.8037 35.508 52.1736 35.5697 51.8229 35.9965C51.2406 36.7052 50.59 37.3558 49.8812 37.9382C49.4545 38.2888 49.3928 38.9189 49.7434 39.3457C50.094 39.7724 50.7241 39.8341 51.1509 39.4835C51.9603 38.8185 52.7032 38.0755 53.3683 37.2661ZM48.5444 41.2282C49.0312 40.9675 49.2145 40.3614 48.9537 39.8746C48.693 39.3877 48.0869 39.2044 47.6001 39.4652C46.7986 39.8945 45.9506 40.2479 45.0658 40.516C44.5372 40.6761 44.2386 41.2344 44.3987 41.763C44.5588 42.2915 45.1171 42.5902 45.6457 42.4301C46.6581 42.1233 47.628 41.719 48.5444 41.2282ZM34.3999 39.4652C33.9131 39.2044 33.307 39.3877 33.0463 39.8746C32.7855 40.3614 32.9688 40.9675 33.4556 41.2282C34.372 41.719 35.3419 42.1233 36.3543 42.4301C36.8829 42.5902 37.4412 42.2915 37.6013 41.763C37.7614 41.2344 37.4628 40.6761 36.9342 40.516C36.0494 40.2479 35.2014 39.8945 34.3999 39.4652ZM39.626 41.0487C39.0764 40.9952 38.5874 41.3975 38.5339 41.9472C38.4804 42.4969 38.8826 42.9858 39.4323 43.0393C39.9484 43.0896 40.4713 43.1152 41 43.1152C41.5287 43.1152 42.0516 43.0896 42.5677 43.0393C43.1174 42.9858 43.5196 42.4969 43.4661 41.9472C43.4126 41.3975 42.9237 40.9952 42.374 41.0487C41.9222 41.0927 41.4639 41.1152 41 41.1152C40.5361 41.1152 40.0778 41.0927 39.626 41.0487Z" fill="black"/>
<path fill-rule="evenodd" clip-rule="evenodd" d="M39.2001 8.40006C39.5314 7.95823 40.1582 7.86869 40.6001 8.20006L44.6001 11.2001C44.8519 11.3889 45.0001 11.6853 45.0001 12.0001C45.0001 12.3148 44.8519 12.6112 44.6001 12.8001L40.6001 15.8001C40.1582 16.1314 39.5314 16.0419 39.2001 15.6001C38.8687 15.1582 38.9582 14.5314 39.4001 14.2001L42.3334 12.0001L39.4001 9.80006C38.9582 9.46869 38.8687 8.84189 39.2001 8.40006Z" fill="black"/>
</svg>
