<svg width="42" height="50" fill="none" xmlns="http://www.w3.org/2000/svg"><path fill-rule="evenodd" clip-rule="evenodd" d="M21.014 24.25c2-2.96 0-7-1-8 0 3.038-1.773 4.741-3 6-1.226 1.26-2 3.24-2 5a6 6 0 0012 0c0-1.532-1.056-3.94-2-5-1.786 3-2.79 3-4 2z" fill="#152936"/><path d="M21.014 7.183c3.893 4.133 8.974 6.285 14.167 6 1.527 6.235.882 12.947-1.788 18.6-2.67 5.655-7.137 9.768-12.379 11.4-5.242-1.632-9.709-5.745-12.379-11.4-2.67-5.654-3.315-12.365-1.788-18.6 5.193.285 10.274-1.867 14.167-6" stroke="#152936" stroke-width="2" stroke-linecap="round" stroke-linejoin="round"/><path opacity=".5" d="M21.014 2c5.029 5.339 11.592 8.118 18.299 7.75 1.973 8.054 1.14 16.723-2.31 24.026-3.448 7.304-9.218 12.616-15.989 14.724-6.771-2.108-12.54-7.42-15.99-14.724C1.577 26.473.744 17.804 2.717 9.75c6.707.368 13.27-2.411 18.298-7.75" stroke="#D500E6" stroke-width="3" stroke-linecap="round" stroke-linejoin="round"/></svg>