<svg width="64" height="61" fill="none" xmlns="http://www.w3.org/2000/svg"><path opacity=".497" fill-rule="evenodd" clip-rule="evenodd" d="M62 23a12 12 0 01-24 0c0-6.627 5.373-12 12-12s12 5.373 12 12z" fill="#D500E6"/><path d="M44 8H20a6 6 0 00-6 6v4a6 6 0 006 6h24a6 6 0 006-6v-4a6 6 0 00-6-6zm0 16H20a6 6 0 00-6 6v4a6 6 0 006 6h24a6 6 0 006-6v-4a6 6 0 00-6-6z" stroke="#000" stroke-width="2" stroke-linecap="round" stroke-linejoin="round"/><circle cx="23" cy="16" r="2" stroke="#000" stroke-width="2"/><circle cx="23" cy="32" r="2" stroke="#000" stroke-width="2"/><rect opacity=".5" x="50" y="46.334" width="14" height="14" rx="7" fill="#D500E6"/><rect opacity=".5" x="25" y="46.334" width="14" height="14" rx="7" fill="#D500E6"/><rect opacity=".5" y="46.334" width="14" height="14" rx="7" fill="#D500E6"/><path d="M32 40.334v11M42.667 40v10.667a2.667 2.667 0 002.667 2.666H54.5M21.333 40v10.667a2.667 2.667 0 01-2.666 2.666H9" stroke="#000" stroke-width="2" stroke-linecap="round" stroke-linejoin="round"/><circle cx="57" cy="53.334" r="2" stroke="#000" stroke-width="2"/><circle cx="32" cy="53.334" r="2" stroke="#000" stroke-width="2"/><circle cx="7" cy="53.334" r="2" stroke="#000" stroke-width="2"/><circle cx="50" cy="23" r="9" fill="#F0F4F5" stroke="#000" stroke-width="2"/><path clip-rule="evenodd" d="M54.16 22.672a.375.375 0 010 .656l-5.603 3.113a.375.375 0 01-.557-.328v-6.226c0-.286.307-.466.557-.327l5.603 3.112v0z" stroke="#000" stroke-width="1.5" stroke-linecap="round" stroke-linejoin="round"/></svg>