<svg width="58" height="58" viewBox="0 0 58 58" fill="none" xmlns="http://www.w3.org/2000/svg">
<path fill-rule="evenodd" clip-rule="evenodd" d="M28.8827 2.08723C28.7567 1.97092 28.5625 1.97092 28.4365 2.08723L24.5777 5.64894C23.5317 6.61441 22.0779 7.00395 20.6893 6.69083L15.5666 5.53569C15.3993 5.49797 15.2311 5.59508 15.1802 5.7588L13.2706 5.1643C13.6315 4.00513 14.8223 3.31762 16.0066 3.58468L21.1292 4.73982C21.8763 4.90828 22.6584 4.69871 23.2212 4.17929L27.0799 0.617575C27.9721 -0.205858 29.3471 -0.205858 30.2392 0.617575L34.098 4.17929C34.6607 4.69871 35.4428 4.90828 36.1899 4.73982L41.3126 3.58468C42.4969 3.31762 43.6877 4.00513 44.0485 5.1643L45.6095 10.1782C45.8371 10.9094 46.4097 11.482 47.1409 11.7096L52.1548 13.2706C53.314 13.6315 54.0015 14.8223 53.7345 16.0066L52.5793 21.1292C52.4109 21.8763 52.6204 22.6584 53.1398 23.2212L56.7016 27.0799C57.525 27.9721 57.525 29.3471 56.7016 30.2392L53.1398 34.098C52.6204 34.6607 52.4109 35.4428 52.5793 36.1899L53.7345 41.3126C54.0015 42.4969 53.314 43.6877 52.1548 44.0485L47.1409 45.6095C46.4097 45.8371 45.8371 46.4097 45.6095 47.1409L44.0485 52.1548C43.6877 53.314 42.4969 54.0015 41.3126 53.7345L36.1899 52.5793C35.4428 52.4109 34.6607 52.6204 34.098 53.1398L30.2392 56.7016C29.3471 57.525 27.9721 57.525 27.0799 56.7016L23.2212 53.1398C22.6584 52.6204 21.8763 52.4109 21.1292 52.5793L16.0066 53.7345C14.8223 54.0015 13.6315 53.314 13.2706 52.1548L11.7096 47.1409C11.482 46.4097 10.9094 45.8371 10.1782 45.6095L5.1643 44.0485C4.00513 43.6877 3.31762 42.4969 3.58468 41.3126L4.73982 36.1899C4.90828 35.4428 4.69871 34.6607 4.17929 34.098L0.617575 30.2392C-0.205858 29.3471 -0.205858 27.9721 0.617575 27.0799L4.17929 23.2212C4.69871 22.6584 4.90828 21.8763 4.73982 21.1292L3.58468 16.0066C3.31762 14.8223 4.00513 13.6315 5.1643 13.2706L10.1782 11.7096C10.9094 11.482 11.482 10.9094 11.7096 10.1782L13.2706 5.1643L15.1802 5.7588L13.6192 10.7727C13.1961 12.1319 12.1319 13.1961 10.7727 13.6192L5.7588 15.1802C5.59508 15.2311 5.49797 15.3993 5.53569 15.5666L6.69083 20.6893C7.00395 22.0779 6.61441 23.5317 5.64894 24.5777L2.08723 28.4365C1.97092 28.5625 1.97092 28.7567 2.08723 28.8827L5.64894 32.7415C6.61441 33.7875 7.00395 35.2412 6.69083 36.6298L5.53569 41.7525C5.49797 41.9198 5.59508 42.088 5.7588 42.139L10.7727 43.6999C12.1319 44.123 13.1961 45.1873 13.6192 46.5464L15.1802 51.5603C15.2311 51.7241 15.3993 51.8212 15.5666 51.7834L20.6893 50.6283C22.0779 50.3152 23.5317 50.7047 24.5777 51.6702L28.4365 55.2319C28.5625 55.3482 28.7567 55.3482 28.8827 55.2319L32.7415 51.6702C33.7875 50.7047 35.2413 50.3152 36.6298 50.6283L41.7525 51.7834C41.9198 51.8212 42.088 51.724 42.139 51.5603L43.6999 46.5464C44.123 45.1873 45.1873 44.123 46.5464 43.6999L51.5603 42.139C51.724 42.088 51.8212 41.9198 51.7834 41.7525L50.6283 36.6298C50.3152 35.2413 50.7047 33.7875 51.6702 32.7415L55.2319 28.8827C55.3482 28.7567 55.3482 28.5625 55.2319 28.4365L51.6702 24.5777C50.7047 23.5317 50.3152 22.0779 50.6283 20.6893L51.7834 15.5666C51.8212 15.3993 51.724 15.2311 51.5603 15.1802L46.5464 13.6192C45.1873 13.1961 44.123 12.1319 43.6999 10.7727L42.139 5.7588C42.088 5.59508 41.9198 5.49797 41.7525 5.53569L36.6298 6.69083C35.2412 7.00395 33.7875 6.61441 32.7415 5.64894L28.8827 2.08723Z" fill="black"/>
<path fill-rule="evenodd" clip-rule="evenodd" d="M42.8668 14.6658C43.2573 15.0563 43.2574 15.6895 42.8669 16.08L30.689 28.2594C30.2985 28.65 29.6653 28.65 29.2748 28.2595C28.8842 27.869 28.8842 27.2358 29.2747 26.8453L41.4526 14.6659C41.8431 14.2753 42.4762 14.2753 42.8668 14.6658ZM20.0414 20.3436C20.432 19.9531 21.0651 19.9531 21.4556 20.3436L27.9571 26.8452C28.3476 27.2358 28.3476 27.8689 27.9571 28.2595C27.5666 28.65 26.9334 28.65 26.5429 28.2595L20.0414 21.7578C19.6509 21.3673 19.6509 20.7341 20.0414 20.3436Z" fill="#D500E6"/>
<path fill-rule="evenodd" clip-rule="evenodd" d="M45.1367 22.3831C46.5473 26.0849 46.6702 30.1539 45.4855 33.9341C44.3008 37.7143 41.8776 40.9854 38.6066 43.22C35.3355 45.4546 31.4072 46.5226 27.455 46.2517C23.5028 45.9808 19.757 44.3868 16.8215 41.7267L15.4785 43.2088C18.747 46.1706 22.9178 47.9454 27.3183 48.247C31.7188 48.5486 36.0927 47.3595 39.7348 44.8714C43.3769 42.3833 46.0749 38.7412 47.394 34.5322C48.713 30.3232 48.5762 25.7926 47.0056 21.6709L45.1367 22.3831Z" fill="black"/>
<path opacity="0.5" fill-rule="evenodd" clip-rule="evenodd" d="M23.6602 29.0518C23.6602 31.8132 25.8987 34.0518 28.6602 34.0518C31.4216 34.0518 33.6602 31.8132 33.6602 29.0518C33.6602 26.2903 31.4216 24.0518 28.6602 24.0518C25.8987 24.0518 23.6602 26.2903 23.6602 29.0518ZM28.6602 32.0518C27.0033 32.0518 25.6602 30.7086 25.6602 29.0518C25.6602 27.3949 27.0033 26.0518 28.6602 26.0518C30.317 26.0518 31.6602 27.3949 31.6602 29.0518C31.6602 30.7086 30.317 32.0518 28.6602 32.0518Z" fill="#D500E6"/>
<path fill-rule="evenodd" clip-rule="evenodd" d="M28.6602 30.0518C28.1079 30.0518 27.6602 29.604 27.6602 29.0518C27.6602 28.4995 28.1079 28.0518 28.6602 28.0518C29.2124 28.0518 29.6602 28.4995 29.6602 29.0518C29.6602 29.604 29.2124 30.0518 28.6602 30.0518ZM28.6602 32.0518C27.0033 32.0518 25.6602 30.7086 25.6602 29.0518C25.6602 27.3949 27.0033 26.0518 28.6602 26.0518C30.317 26.0518 31.6602 27.3949 31.6602 29.0518C31.6602 30.7086 30.317 32.0518 28.6602 32.0518Z" fill="black"/>
<path d="M26.9308 11.113C27.4997 11.0577 28.0768 11.0293 28.6609 11.0293C29.2449 11.0293 29.822 11.0577 30.3909 11.113C30.9406 11.1665 31.4296 10.7643 31.4831 10.2146C31.5366 9.6649 31.1343 9.17593 30.5847 9.12243C29.9515 9.06081 29.3097 9.0293 28.6609 9.0293C28.0121 9.0293 27.3703 9.06081 26.7371 9.12243C26.1874 9.17593 25.7852 9.6649 25.8387 10.2146C25.8922 10.7643 26.3811 11.1665 26.9308 11.113Z" fill="black"/>
<path d="M34.3611 9.86994C33.8326 9.7098 33.2743 10.0085 33.1141 10.537C32.954 11.0656 33.2527 11.6239 33.7812 11.784C34.8957 12.1217 35.9637 12.5668 36.9731 13.1075C37.46 13.3683 38.0661 13.185 38.3268 12.6981C38.5876 12.2113 38.4043 11.6052 37.9175 11.3445C36.7932 10.7423 35.6032 10.2463 34.3611 9.86994Z" fill="black"/>
<path d="M23.5405 11.784C24.0691 11.6239 24.3678 11.0656 24.2076 10.537C24.0475 10.0085 23.4892 9.7098 22.9606 9.86994C21.7185 10.2463 20.5286 10.7423 19.4043 11.3445C18.9174 11.6052 18.7342 12.2113 18.9949 12.6981C19.2557 13.185 19.8618 13.3683 20.3486 13.1075C21.358 12.5668 22.426 12.1217 23.5405 11.784Z" fill="black"/>
<path d="M17.4758 15.0306C17.9025 14.68 17.9642 14.0498 17.6136 13.6231C17.263 13.1964 16.6328 13.1347 16.2061 13.4853C15.2129 14.3013 14.3013 15.2129 13.4853 16.2061C13.1347 16.6328 13.1964 17.263 13.6231 17.6136C14.0498 17.9642 14.68 17.9025 15.0306 17.4758C15.7639 16.5832 16.5832 15.7639 17.4758 15.0306Z" fill="black"/>
<path d="M13.1075 20.3486C13.3683 19.8618 13.185 19.2557 12.6981 18.9949C12.2113 18.7342 11.6052 18.9174 11.3445 19.4043C10.7423 20.5286 10.2463 21.7185 9.86994 22.9606C9.7098 23.4892 10.0085 24.0475 10.537 24.2076C11.0656 24.3678 11.6239 24.0691 11.784 23.5405C12.1217 22.426 12.5668 21.358 13.1075 20.3486Z" fill="black"/>
<path d="M45.9773 19.4043C45.7165 18.9174 45.1105 18.7342 44.6236 18.9949C44.1368 19.2557 43.9535 19.8618 44.2143 20.3486C44.7549 21.358 45.2001 22.426 45.5377 23.5405C45.6979 24.0691 46.2562 24.3678 46.7847 24.2076C47.3133 24.0475 47.612 23.4892 47.4518 22.9606C47.0755 21.7185 46.5795 20.5286 45.9773 19.4043Z" fill="black"/>
<path d="M48.1993 26.7371C48.1458 26.1874 47.6568 25.7852 47.1072 25.8387C46.5575 25.8922 46.1552 26.3811 46.2087 26.9308C46.2641 27.4997 46.2925 28.0768 46.2925 28.6609C46.2925 29.2449 46.2641 29.822 46.2087 30.3909C46.1552 30.9406 46.5575 31.4296 47.1072 31.4831C47.6568 31.5366 48.1458 31.1343 48.1993 30.5847C48.2609 29.9515 48.2925 29.3097 48.2925 28.6609C48.2925 28.0121 48.2609 27.3703 48.1993 26.7371Z" fill="black"/>
<path d="M11.113 26.9308C11.1665 26.3811 10.7643 25.8922 10.2146 25.8387C9.6649 25.7852 9.17593 26.1874 9.12243 26.7371C9.06081 27.3703 9.0293 28.0121 9.0293 28.6609C9.0293 29.3097 9.06081 29.9515 9.12243 30.5847C9.17593 31.1343 9.6649 31.5366 10.2146 31.4831C10.7643 31.4296 11.1665 30.9406 11.113 30.3909C11.0577 29.822 11.0293 29.2449 11.0293 28.6609C11.0293 28.0768 11.0577 27.4997 11.113 26.9308Z" fill="black"/>
<path d="M11.784 33.7812C11.6239 33.2527 11.0656 32.954 10.537 33.1141C10.0085 33.2743 9.7098 33.8326 9.86994 34.3611C10.2463 35.6032 10.7423 36.7932 11.3445 37.9175C11.6052 38.4043 12.2113 38.5876 12.6981 38.3268C13.185 38.0661 13.3683 37.46 13.1075 36.9731C12.5668 35.9637 12.1217 34.8957 11.784 33.7812Z" fill="black"/>
<path d="M47.4518 34.3611C47.612 33.8326 47.3133 33.2743 46.7847 33.1141C46.2562 32.954 45.6979 33.2527 45.5377 33.7812C45.2001 34.8957 44.7549 35.9637 44.2143 36.9731C43.9535 37.46 44.1368 38.0661 44.6236 38.3268C45.1105 38.5876 45.7165 38.4043 45.9773 37.9175C46.5795 36.7932 47.0755 35.6032 47.4518 34.3611Z" fill="black"/>
<path d="M15.0306 39.846C14.68 39.4193 14.0498 39.3575 13.6231 39.7082C13.1964 40.0588 13.1347 40.6889 13.4853 41.1156C14.3013 42.1088 15.2129 43.0205 16.2061 43.8365C16.6328 44.1871 17.263 44.1254 17.6136 43.6987C17.9642 43.2719 17.9025 42.6418 17.4758 42.2912C16.5832 41.5578 15.7639 40.7385 15.0306 39.846Z" fill="black"/>
<path d="M43.8365 41.1156C44.1871 40.6889 44.1254 40.0588 43.6987 39.7082C43.2719 39.3575 42.6418 39.4193 42.2912 39.846C41.5578 40.7385 40.7385 41.5578 39.846 42.2912C39.4193 42.6418 39.3575 43.2719 39.7082 43.6987C40.0588 44.1254 40.6889 44.1871 41.1156 43.8365C42.1088 43.0205 43.0205 42.1088 43.8365 41.1156Z" fill="black"/>
<path d="M20.3486 44.2143C19.8618 43.9535 19.2557 44.1368 18.9949 44.6236C18.7342 45.1105 18.9174 45.7165 19.4043 45.9773C20.5286 46.5795 21.7185 47.0755 22.9606 47.4518C23.4892 47.612 24.0475 47.3133 24.2076 46.7847C24.3678 46.2562 24.0691 45.6979 23.5405 45.5377C22.426 45.2001 21.358 44.7549 20.3486 44.2143Z" fill="black"/>
<path d="M37.9175 45.9773C38.4043 45.7165 38.5876 45.1105 38.3268 44.6236C38.0661 44.1368 37.46 43.9535 36.9731 44.2143C35.9637 44.7549 34.8957 45.2001 33.7812 45.5377C33.2527 45.6979 32.954 46.2562 33.1141 46.7847C33.2743 47.3133 33.8326 47.612 34.3611 47.4518C35.6032 47.0755 36.7932 46.5795 37.9175 45.9773Z" fill="black"/>
<path d="M26.9308 46.2087C26.3811 46.1552 25.8922 46.5575 25.8387 47.1072C25.7852 47.6568 26.1874 48.1458 26.7371 48.1993C27.3703 48.2609 28.0121 48.2925 28.6609 48.2925C29.3097 48.2925 29.9515 48.2609 30.5847 48.1993C31.1343 48.1458 31.5366 47.6568 31.4831 47.1072C31.4296 46.5575 30.9406 46.1552 30.3909 46.2087C29.822 46.2641 29.2449 46.2925 28.6609 46.2925C28.0768 46.2925 27.4997 46.2641 26.9308 46.2087Z" fill="black"/>
</svg>
