<svg width="278" height="108" fill="none" xmlns="http://www.w3.org/2000/svg"><path fill-rule="evenodd" clip-rule="evenodd" d="M1.612.048h13.802c.89.003 1.61.698 1.612 1.556v13.33c-.003.857-.724 1.55-1.612 1.55H1.612a1.637 1.637 0 01-1.139-.452A1.525 1.525 0 010 14.934V1.604C0 .745.722.048 1.612.048zm86.98 22.715h13.803c.889.003 1.609.698 1.612 1.557v13.33c-.003.857-.724 1.55-1.612 1.55H88.593a1.637 1.637 0 01-1.14-.453 1.525 1.525 0 01-.473-1.097V24.32c0-.86.722-1.556 1.612-1.557zm13.803 22.716H88.592c-.89 0-1.611.697-1.612 1.556V60.36c0 .413.17.81.472 1.101.302.292.713.456 1.14.455h13.803c.89 0 1.611-.697 1.612-1.556V47.035c-.003-.858-.723-1.554-1.612-1.556zM117.58.049h13.808c.889.002 1.61.697 1.612 1.555v13.33c-.003.857-.724 1.55-1.612 1.55H117.58c-.887 0-1.606-.694-1.606-1.55V1.604c-.001-.857.718-1.553 1.606-1.556zm13.808 22.714H117.58c-.888.003-1.607.7-1.606 1.557v13.33c0 .856.719 1.55 1.606 1.55h13.808c.888 0 1.609-.693 1.612-1.55V24.32c-.002-.859-.723-1.554-1.612-1.557zM117.58 45.48h13.808c.889.002 1.61.698 1.612 1.556V60.36c0 .86-.722 1.556-1.612 1.556H117.58a1.64 1.64 0 01-1.138-.456 1.526 1.526 0 01-.468-1.1V47.035c-.001-.857.718-1.553 1.606-1.556zM160.382.049h-13.809c-.888.002-1.606.698-1.606 1.555v13.33c0 .856.719 1.55 1.606 1.55h13.809c.888 0 1.609-.693 1.612-1.55V1.604c-.003-.858-.723-1.553-1.612-1.556zm-13.809 22.714h13.809c.889.003 1.609.698 1.612 1.557v13.33c-.003.857-.724 1.55-1.612 1.55h-13.809c-.887 0-1.606-.694-1.606-1.55V24.32c0-.858.718-1.554 1.606-1.557zm13.809 68.147h-13.809c-.427 0-.836.164-1.137.456-.301.292-.47.688-.469 1.1v13.324c-.001.412.168.807.469 1.099.301.292.71.457 1.137.457h13.809c.89 0 1.611-.697 1.612-1.556V92.466c-.001-.86-.722-1.556-1.612-1.556zm15.185-22.716h13.808c.889.003 1.61.698 1.612 1.556v13.324c0 .86-.722 1.556-1.612 1.557h-13.808a1.64 1.64 0 01-1.138-.457 1.526 1.526 0 01-.468-1.1V69.751c-.001-.858.718-1.554 1.606-1.557z" fill="#F0F4F5"/><path fill-rule="evenodd" clip-rule="evenodd" d="M44.408.048H30.605c-.89 0-1.611.697-1.611 1.556v13.33c0 .412.17.807.473 1.098.302.29.712.454 1.139.453h13.802c.888 0 1.609-.694 1.612-1.55V1.604C46.017.744 45.297.05 44.408.047zM15.414 22.763H1.612C.722 22.763 0 23.46 0 24.32v13.33c0 .412.17.807.473 1.098.302.29.712.453 1.139.452h13.802c.888 0 1.61-.693 1.612-1.55V24.32c-.002-.859-.722-1.554-1.612-1.557zm1.588 46.712c-.142-.74-.809-1.277-1.588-1.28H1.612C.722 68.194 0 68.89 0 69.75v13.323c0 .413.169.81.471 1.102a1.64 1.64 0 001.141.455h13.802c.89 0 1.612-.697 1.612-1.557V69.751a1.339 1.339 0 00-.024-.276zM15.414 90.91c.215 0 .428.04.627.12.596.245.984.81.985 1.436v13.324c0 .859-.721 1.556-1.612 1.556H1.612a1.631 1.631 0 01-1.142-.454A1.521 1.521 0 010 105.79V92.466c0-.413.169-.81.471-1.101a1.639 1.639 0 011.141-.455h13.802zm15.191 0h13.803c.89 0 1.612.697 1.612 1.556v13.324c0 .859-.722 1.556-1.612 1.556H30.605a1.638 1.638 0 01-1.14-.455 1.525 1.525 0 01-.471-1.101V92.466c-.001-.413.168-.81.47-1.101a1.639 1.639 0 011.142-.455zm42.796-45.431H59.6c-.89 0-1.612.697-1.612 1.556V60.36c0 .413.169.81.471 1.101a1.64 1.64 0 001.141.455h13.802c.89 0 1.612-.697 1.612-1.556V47.035c-.002-.858-.722-1.554-1.612-1.556zm15.192 22.715h13.802c.889.003 1.609.698 1.612 1.556v13.324c-.001.86-.722 1.556-1.612 1.557H88.593c-.428 0-.839-.163-1.141-.455a1.527 1.527 0 01-.472-1.102V69.751c0-.86.722-1.556 1.612-1.557zm42.795 22.716H117.58a1.64 1.64 0 00-1.138.456 1.526 1.526 0 00-.468 1.1v13.324c-.001.412.167.807.468 1.099.302.292.711.457 1.138.457h13.808c.89 0 1.612-.697 1.612-1.556V92.466c0-.86-.722-1.556-1.612-1.556zm15.185-22.716h13.809c.889.003 1.609.698 1.612 1.556v13.324c-.001.86-.722 1.556-1.612 1.557h-13.809c-.427 0-.836-.165-1.137-.457a1.527 1.527 0 01-.469-1.1V69.751c0-.858.718-1.554 1.606-1.557zm42.802-22.715h-13.808c-.888.003-1.607.699-1.606 1.556V60.36c-.001.412.167.808.468 1.1a1.64 1.64 0 001.138.456h13.808c.89 0 1.612-.697 1.612-1.556V47.035c-.002-.858-.723-1.554-1.612-1.556zm15.185 0h13.809c.889.002 1.609.698 1.612 1.556V60.36c-.001.86-.722 1.556-1.612 1.556H204.56c-.427 0-.836-.164-1.137-.456a1.527 1.527 0 01-.469-1.1V47.035c0-.857.718-1.553 1.606-1.556zM247.362.049h-13.808c-.889.002-1.607.698-1.606 1.555v13.33c0 .856.719 1.55 1.606 1.55h13.808c.888 0 1.609-.693 1.612-1.55V1.604c-.003-.858-.723-1.553-1.612-1.556zm-13.808 90.86h13.808c.89.001 1.612.697 1.612 1.557v13.324c0 .859-.722 1.556-1.612 1.556h-13.808c-.427 0-.836-.165-1.138-.457a1.52 1.52 0 01-.468-1.099V92.466a1.522 1.522 0 01.468-1.1 1.64 1.64 0 011.138-.456zM276.355.05h-13.808c-.888.002-1.606.698-1.606 1.555v13.33c0 .856.719 1.55 1.606 1.55h13.808c.889 0 1.61-.693 1.613-1.55V1.604c-.003-.858-.723-1.553-1.613-1.556zm-13.808 22.714h13.808c.89.003 1.61.698 1.613 1.557v13.33c-.003.857-.724 1.55-1.613 1.55h-13.808c-.887 0-1.606-.694-1.606-1.55V24.32c0-.858.718-1.554 1.606-1.557zm13.808 45.431h-13.808c-.888.003-1.606.7-1.606 1.556v13.324c-.001.413.167.808.469 1.1.301.292.71.456 1.137.457h13.808c.891 0 1.612-.697 1.613-1.557V69.751c-.003-.859-.723-1.554-1.613-1.557zM262.547 90.91h13.808c.891 0 1.612.697 1.613 1.556v13.324c-.001.859-.722 1.556-1.613 1.556h-13.808c-.427 0-.836-.165-1.137-.457a1.522 1.522 0 01-.469-1.099V92.466a1.523 1.523 0 01.469-1.1c.301-.292.71-.456 1.137-.456z" fill="#D3D5D6"/><path fill-rule="evenodd" clip-rule="evenodd" d="M73.401.048H59.6c-.89 0-1.612.697-1.612 1.556v13.33c0 .412.17.807.473 1.098.302.29.712.454 1.139.453h13.802c.888 0 1.61-.694 1.612-1.55V1.604C75.011.744 74.29.05 73.401.047zM44.408 22.763H30.605c-.89 0-1.611.697-1.611 1.557v13.33c0 .412.17.807.473 1.098.302.29.712.453 1.139.452h13.802c.888 0 1.609-.693 1.612-1.55V24.32c-.003-.859-.723-1.554-1.612-1.557zm0 22.716H30.605c-.89 0-1.611.697-1.611 1.556V60.36c-.001.413.168.81.47 1.101.303.292.714.456 1.142.455h13.802c.89 0 1.611-.697 1.612-1.556V47.035c-.003-.858-.723-1.554-1.612-1.556zM30.605 68.194h13.803c.89.003 1.61.698 1.612 1.556v13.324c0 .86-.722 1.556-1.612 1.557H30.605c-.427 0-.838-.163-1.14-.455a1.526 1.526 0 01-.471-1.102V69.751c0-.168.029-.334.086-.491a1.603 1.603 0 011.526-1.066zM59.6 22.764h13.802c.89.002 1.61.697 1.612 1.556v13.33c-.003.857-.724 1.55-1.612 1.55H59.6a1.637 1.637 0 01-1.14-.453 1.525 1.525 0 01-.472-1.097V24.32c0-.86.722-1.556 1.612-1.557zm13.802 45.43H59.6c-.89 0-1.612.697-1.612 1.556v13.324c0 .413.169.81.471 1.102a1.64 1.64 0 001.141.455h13.802c.89 0 1.612-.697 1.612-1.557V69.751c-.002-.859-.722-1.554-1.612-1.557zM59.6 90.91h13.802c.89 0 1.612.697 1.612 1.556v13.324c0 .859-.722 1.556-1.612 1.556H59.6a1.638 1.638 0 01-1.14-.455 1.525 1.525 0 01-.472-1.101V92.466c0-.413.169-.81.471-1.101a1.64 1.64 0 011.141-.455zM102.395.048H88.593c-.89 0-1.612.697-1.613 1.556v13.33c0 .412.17.807.473 1.098.303.29.713.454 1.14.453h13.802c.888 0 1.609-.694 1.612-1.55V1.604c-.003-.86-.723-1.554-1.612-1.557zM88.593 90.91h13.802c.89 0 1.611.697 1.612 1.556v13.324c-.001.859-.722 1.556-1.612 1.556H88.593a1.638 1.638 0 01-1.141-.455 1.526 1.526 0 01-.472-1.101V92.466c0-.413.17-.81.472-1.101a1.639 1.639 0 011.14-.455zm42.795-22.716H117.58c-.888.003-1.607.7-1.606 1.556v13.324c-.001.413.167.808.468 1.1a1.64 1.64 0 001.138.457h13.808c.89 0 1.612-.697 1.612-1.557V69.751c-.002-.859-.723-1.554-1.612-1.557zm15.185-22.715h13.809c.889.002 1.609.698 1.612 1.556V60.36c-.001.86-.722 1.556-1.612 1.556h-13.809c-.427 0-.836-.164-1.137-.456a1.527 1.527 0 01-.469-1.1V47.035c0-.857.718-1.553 1.606-1.556zM189.375.049h-13.808c-.888.002-1.607.698-1.606 1.555v13.33c0 .856.719 1.55 1.606 1.55h13.808c.888 0 1.609-.693 1.612-1.55V1.604c-.002-.858-.723-1.553-1.612-1.556zm-13.808 22.714h13.808c.889.003 1.61.698 1.612 1.557v13.33c-.003.857-.724 1.55-1.612 1.55h-13.808c-.887 0-1.606-.694-1.606-1.55V24.32c-.001-.858.718-1.554 1.606-1.557zm13.808 68.147h-13.808a1.64 1.64 0 00-1.138.456 1.526 1.526 0 00-.468 1.1v13.324c-.001.412.167.807.468 1.099.302.292.711.457 1.138.457h13.808c.89 0 1.612-.697 1.612-1.556V92.466c0-.86-.722-1.556-1.612-1.556zM204.56.048h13.809c.889.003 1.609.698 1.612 1.556v13.33c-.003.857-.724 1.55-1.612 1.55H204.56c-.887 0-1.606-.694-1.606-1.55V1.604c0-.857.718-1.553 1.606-1.556zm13.809 22.715H204.56c-.888.003-1.606.7-1.606 1.557v13.33c0 .856.719 1.55 1.606 1.55h13.809c.888 0 1.609-.693 1.612-1.55V24.32c-.003-.859-.723-1.554-1.612-1.557zM204.56 68.194h13.809c.889.003 1.609.698 1.612 1.556v13.324c-.001.86-.722 1.556-1.612 1.557H204.56c-.427 0-.836-.165-1.137-.457a1.527 1.527 0 01-.469-1.1V69.751c0-.858.718-1.554 1.606-1.557zm13.809 22.716H204.56c-.427 0-.836.164-1.137.456-.301.292-.47.688-.469 1.1v13.324c-.001.412.168.807.469 1.099.301.292.71.457 1.137.457h13.809c.89 0 1.611-.697 1.612-1.556V92.466c-.001-.86-.722-1.556-1.612-1.556zm15.185-68.147h13.808c.889.003 1.61.698 1.612 1.557v13.33c-.003.857-.724 1.55-1.612 1.55h-13.808c-.887 0-1.606-.694-1.606-1.55V24.32c-.001-.858.717-1.554 1.606-1.557zm13.808 22.716h-13.808c-.889.003-1.607.699-1.606 1.556V60.36c-.002.412.167.808.468 1.1a1.64 1.64 0 001.138.456h13.808c.89 0 1.612-.697 1.612-1.556V47.035c-.002-.858-.723-1.554-1.612-1.556zm-13.808 22.715h13.808c.889.003 1.61.698 1.612 1.556v13.324c0 .86-.722 1.556-1.612 1.557h-13.808a1.64 1.64 0 01-1.138-.457 1.522 1.522 0 01-.468-1.1V69.751c-.001-.858.717-1.554 1.606-1.557zm42.801-22.715h-13.808c-.888.003-1.606.699-1.606 1.556V60.36c-.001.412.167.808.469 1.1.301.292.71.456 1.137.456h13.808c.891 0 1.612-.697 1.613-1.556V47.035c-.003-.858-.723-1.554-1.613-1.556zm-274.743 0h13.802c.89.002 1.61.698 1.612 1.556V60.36c0 .86-.721 1.556-1.612 1.556H1.612a1.635 1.635 0 01-1.14-.455A1.526 1.526 0 010 60.36V47.034c0-.86.722-1.556 1.612-1.556z" fill="#812990"/></svg>