<svg width="64" height="64" fill="none" xmlns="http://www.w3.org/2000/svg"><rect opacity=".5" x="50" y="49" width="14" height="14" rx="7" fill="#D500E6"/><rect opacity=".5" x="25" y="49" width="14" height="14" rx="7" fill="#D500E6"/><rect opacity=".5" y="49" width="14" height="14" rx="7" fill="#D500E6"/><path d="M17.752 42.667c-6.858 0-12.418-5.352-12.418-11.955 0-6.6 5.56-11.952 12.418-11.952 1.048-4.699 4.784-8.533 9.8-10.061 5.014-1.526 10.55-.515 14.517 2.656 3.968 3.173 5.766 8.018 4.72 12.717h2.64c5.102 0 9.238 4.16 9.238 9.296 0 5.139-4.136 9.299-9.24 9.299H17.752M32 43v11" stroke="#000" stroke-width="2" stroke-linecap="round" stroke-linejoin="round"/><path d="M42.666 42.667v10.666A2.667 2.667 0 0045.334 56H54.5M21.333 42.667v10.666A2.667 2.667 0 0118.667 56H9" stroke="#000" stroke-width="2" stroke-linecap="round" stroke-linejoin="round"/><circle cx="57" cy="56" r="2" stroke="#000" stroke-width="2"/><circle cx="32" cy="56" r="2" stroke="#000" stroke-width="2"/><circle cx="7" cy="56" r="2" stroke="#000" stroke-width="2"/><path opacity=".497" fill-rule="evenodd" clip-rule="evenodd" d="M44 27a12 12 0 01-24 0c0-6.627 5.373-12 12-12s12 5.373 12 12z" fill="#D500E6"/><circle cx="32" cy="27" r="9" fill="#F0F4F5" stroke="#000" stroke-width="2"/><path clip-rule="evenodd" d="M36.16 26.672a.375.375 0 010 .656l-5.603 3.113a.375.375 0 01-.557-.328v-6.226c0-.286.307-.466.557-.327l5.603 3.112v0z" stroke="#000" stroke-width="1.5" stroke-linecap="round" stroke-linejoin="round"/></svg>