<svg width="58" height="50" viewBox="0 0 58 50" fill="none" xmlns="http://www.w3.org/2000/svg">
<path d="M53.3516 27.2686H51.3516" stroke="black" stroke-width="2" stroke-linecap="round" stroke-linejoin="round"/>
<path d="M31.3516 27.2686H29.3516" stroke="black" stroke-width="2" stroke-linecap="round" stroke-linejoin="round"/>
<path d="M41.3516 39.2686L41.3516 37.2686" stroke="black" stroke-width="2" stroke-linecap="round" stroke-linejoin="round"/>
<path d="M8.35156 6.26855H2.35156C1.79928 6.26855 1.35156 6.71627 1.35156 7.26856V47.2686C1.35156 47.8208 1.79928 48.2686 2.35156 48.2686H30.3516C30.9038 48.2686 31.3516 47.8208 31.3516 47.2686V38.7686M24.3516 6.26855H30.3516C30.9038 6.26855 31.3516 6.71627 31.3516 7.26855V16.2686" stroke="black" stroke-width="2"/>
<mask id="path-5-inside-1_1259_2180" fill="white">
<rect x="6.35156" y="3.26855" width="20" height="8" rx="1"/>
</mask>
<rect x="6.35156" y="3.26855" width="20" height="8" rx="1" fill="black" stroke="black" stroke-width="4" mask="url(#path-5-inside-1_1259_2180)"/>
<mask id="path-6-inside-2_1259_2180" fill="white">
<rect x="10.3516" y="0.268555" width="12" height="5" rx="1"/>
</mask>
<rect x="10.3516" y="0.268555" width="12" height="5" rx="1" stroke="black" stroke-width="4" mask="url(#path-6-inside-2_1259_2180)"/>
<mask id="path-7-inside-3_1259_2180" fill="white">
<rect x="10.3516" y="9.26855" width="12" height="5" rx="1"/>
</mask>
<rect x="10.3516" y="9.26855" width="12" height="5" rx="1" stroke="black" stroke-width="4" mask="url(#path-7-inside-3_1259_2180)"/>
<rect opacity="0.5" x="5.35156" y="18.2686" width="4" height="26" rx="1" fill="#D500E6"/>
<rect opacity="0.5" x="11.3516" y="30.2686" width="4" height="14" rx="1" fill="#D500E6"/>
<rect opacity="0.5" x="17.3516" y="24.2686" width="4" height="20" rx="1" fill="#D500E6"/>
<rect opacity="0.5" x="23.3516" y="36.2686" width="4" height="8" rx="1" fill="#D500E6"/>
<path d="M56.1997 12.5352L41.4663 27.2686M41.3521 27.2686L33.8521 19.7686" stroke="#D500E6" stroke-width="2" stroke-linecap="round"/>
<path fill-rule="evenodd" clip-rule="evenodd" d="M54.4335 22.3996C55.5536 25.339 55.6511 28.5699 54.7105 31.5715C53.7698 34.573 51.8457 37.1704 49.2484 38.9448C46.6511 40.7191 43.5319 41.5671 40.3938 41.352C37.2556 41.1369 34.2813 39.8712 31.9504 37.7591L30.6074 39.2411C33.2713 41.655 36.6705 43.1015 40.257 43.3473C43.8435 43.5932 47.4082 42.624 50.3766 40.5962C53.3449 38.5683 55.5439 35.5999 56.619 32.1696C57.694 28.7392 57.5825 25.0467 56.3024 21.6874L54.4335 22.3996Z" fill="black"/>
<path fill-rule="evenodd" clip-rule="evenodd" d="M39.9776 13.4513C40.4294 13.4073 40.8877 13.3848 41.3516 13.3848C41.8154 13.3848 42.2738 13.4073 42.7255 13.4513C43.2752 13.5048 43.7642 13.1025 43.8177 12.5528C43.8712 12.0031 43.4689 11.5142 42.9193 11.4607C42.4032 11.4104 41.8802 11.3848 41.3516 11.3848C40.8229 11.3848 40.2999 11.4104 39.7839 11.4607C39.2342 11.5142 38.8319 12.0031 38.8854 12.5528C38.9389 13.1025 39.4279 13.5048 39.9776 13.4513ZM37.2858 13.984C37.8143 13.8239 38.113 13.2656 37.9529 12.737C37.7927 12.2085 37.2344 11.9098 36.7059 12.0699C35.6934 12.3767 34.7235 12.781 33.8072 13.2718C33.3204 13.5325 33.1371 14.1386 33.3978 14.6254C33.6586 15.1123 34.2647 15.2956 34.7515 15.0348C35.553 14.6055 36.4009 14.2521 37.2858 13.984ZM32.4703 16.5618C32.8971 16.2112 32.9588 15.5811 32.6082 15.1543C32.2576 14.7276 31.6274 14.6659 31.2007 15.0165C30.3913 15.6815 29.6483 16.4245 28.9833 17.2339C28.6327 17.6606 28.6944 18.2908 29.1211 18.6414C29.5479 18.992 30.178 18.9303 30.5286 18.5035C31.111 17.7948 31.7616 17.1442 32.4703 16.5618ZM55.4646 19.8404C55.2038 19.3536 54.5977 19.1703 54.1109 19.431C53.624 19.6918 53.4408 20.2979 53.7015 20.7847C54.1308 21.5862 54.4842 22.4341 54.7523 23.319C54.9125 23.8475 55.4708 24.1462 55.9993 23.9861C56.5279 23.8259 56.8265 23.2676 56.6664 22.7391C56.3597 21.7266 55.9554 20.7567 55.4646 19.8404ZM29.0016 20.7847C29.2624 20.2979 29.0791 19.6918 28.5922 19.431C28.1054 19.1703 27.4993 19.3536 27.2386 19.8404C26.7478 20.7567 26.3435 21.7266 26.0367 22.7391C25.8766 23.2676 26.1752 23.8259 26.7038 23.9861C27.2324 24.1462 27.7907 23.8475 27.9508 23.319C28.2189 22.4341 28.5723 21.5862 29.0016 20.7847ZM57.2757 25.8171C57.2222 25.2674 56.7332 24.8651 56.1835 24.9186C55.6338 24.9721 55.2316 25.4611 55.2851 26.0108C55.329 26.4626 55.3516 26.9209 55.3516 27.3848C55.3516 27.8486 55.329 28.307 55.2851 28.7587C55.2316 29.3084 55.6338 29.7974 56.1835 29.8509C56.7332 29.9044 57.2222 29.5021 57.2757 28.9525C57.3259 28.4364 57.3516 27.9134 57.3516 27.3848C57.3516 26.8561 57.3259 26.3331 57.2757 25.8171ZM27.4181 26.0108C27.4716 25.4611 27.0693 24.9721 26.5196 24.9186C25.9699 24.8651 25.481 25.2674 25.4275 25.8171C25.3772 26.3331 25.3516 26.8561 25.3516 27.3848C25.3516 27.9134 25.3772 28.4364 25.4275 28.9525C25.481 29.5021 25.9699 29.9044 26.5196 29.8509C27.0693 29.7974 27.4716 29.3084 27.4181 28.7587C27.3741 28.307 27.3516 27.8486 27.3516 27.3848C27.3516 26.9209 27.3741 26.4626 27.4181 26.0108ZM56.6664 32.0305C56.8265 31.5019 56.5279 30.9436 55.9993 30.7835C55.4708 30.6233 54.9125 30.922 54.7523 31.4506C54.4842 32.3354 54.1308 33.1833 53.7015 33.9848C53.4408 34.4717 53.624 35.0777 54.1109 35.3385C54.5977 35.5993 55.2038 35.416 55.4646 34.9291C55.9554 34.0128 56.3597 33.0429 56.6664 32.0305ZM27.9508 31.4506C27.7907 30.922 27.2324 30.6233 26.7038 30.7835C26.1752 30.9436 25.8766 31.5019 26.0367 32.0305C26.3435 33.0429 26.7478 34.0128 27.2386 34.9291C27.4993 35.416 28.1054 35.5993 28.5922 35.3385C29.0791 35.0777 29.2624 34.4717 29.0016 33.9848C28.5723 33.1833 28.2189 32.3354 27.9508 31.4506ZM30.5286 36.266C30.178 35.8393 29.5479 35.7776 29.1211 36.1282C28.6944 36.4788 28.6327 37.1089 28.9833 37.5356C29.6483 38.3451 30.3913 39.088 31.2007 39.753C31.6274 40.1036 32.2576 40.0419 32.6082 39.6152C32.9588 39.1885 32.8971 38.5583 32.4703 38.2077C31.7616 37.6254 31.111 36.9748 30.5286 36.266ZM53.7198 37.5356C54.0704 37.1089 54.0087 36.4788 53.582 36.1282C53.1553 35.7776 52.5251 35.8393 52.1745 36.266C51.5922 36.9748 50.9416 37.6254 50.2328 38.2077C49.8061 38.5583 49.7444 39.1885 50.095 39.6152C50.4456 40.0419 51.0757 40.1036 51.5024 39.753C52.3119 39.088 53.0548 38.3451 53.7198 37.5356ZM48.8959 41.4978C49.3828 41.237 49.5661 40.6309 49.3053 40.1441C49.0445 39.6572 48.4385 39.474 47.9516 39.7347C47.1501 40.164 46.3022 40.5174 45.4174 40.7855C44.8888 40.9457 44.5901 41.504 44.7503 42.0325C44.9104 42.5611 45.4687 42.8597 45.9973 42.6996C47.0097 42.3929 47.9796 41.9886 48.8959 41.4978ZM34.7515 39.7347C34.2647 39.474 33.6586 39.6572 33.3978 40.1441C33.1371 40.6309 33.3204 41.237 33.8072 41.4978C34.7235 41.9886 35.6934 42.3929 36.7059 42.6996C37.2344 42.8597 37.7927 42.5611 37.9529 42.0325C38.113 41.504 37.8143 40.9457 37.2858 40.7855C36.4009 40.5174 35.553 40.164 34.7515 39.7347ZM39.9776 41.3183C39.4279 41.2648 38.9389 41.667 38.8854 42.2167C38.8319 42.7664 39.2342 43.2554 39.7839 43.3089C40.2999 43.3591 40.8229 43.3848 41.3516 43.3848C41.8802 43.3848 42.4032 43.3591 42.9193 43.3089C43.4689 43.2554 43.8712 42.7664 43.8177 42.2167C43.7642 41.667 43.2752 41.2648 42.7255 41.3183C42.2738 41.3622 41.8154 41.3848 41.3516 41.3848C40.8877 41.3848 40.4294 41.3622 39.9776 41.3183Z" fill="black"/>
<path d="M40.3516 9.26904L44.3516 12.269L40.3516 15.269" stroke="black" stroke-width="2" stroke-linecap="round" stroke-linejoin="round"/>
</svg>
