<svg width="59" height="63" viewBox="0 0 59 63" fill="none" xmlns="http://www.w3.org/2000/svg">
<path fill-rule="evenodd" clip-rule="evenodd" d="M25.5659 5.89356C30.2915 5.1621 35.1276 5.91195 39.4098 8.04009C43.692 10.1682 47.2101 13.5702 49.4807 17.7786C51.7513 21.987 52.663 26.7953 52.0905 31.5427L50.1049 31.3033C50.628 26.966 49.795 22.5731 47.7206 18.7283C45.6461 14.8835 42.432 11.7754 38.5197 9.83111C34.6075 7.88682 30.1891 7.20175 25.8718 7.87002C21.5545 8.53829 17.55 10.5271 14.4087 13.5632C11.2673 16.5993 9.14326 20.5337 8.3283 24.8257C7.51334 29.1178 8.04749 33.5569 9.85736 37.5331C11.6672 41.5093 14.664 44.8275 18.4359 47.0317C22.2078 49.2359 26.5698 50.218 30.9224 49.8431L31.094 51.8357C26.3298 52.2461 21.5554 51.1712 17.4268 48.7585C13.2982 46.3458 10.0181 42.7139 8.03706 38.3616C6.05605 34.0094 5.47138 29.1505 6.36341 24.4526C7.25544 19.7547 9.58038 15.4483 13.0188 12.1251C16.4572 8.8019 20.8403 6.62502 25.5659 5.89356Z" fill="#D500E6" fill-opacity="0.5"/>
<path fill-rule="evenodd" clip-rule="evenodd" d="M28.0303 0.931334C28.0683 1.48231 27.6524 1.95973 27.1014 1.99768C26.4037 2.04572 25.7063 2.12099 25.0107 2.22374C24.3151 2.32649 23.6257 2.45606 22.944 2.61178C22.4056 2.73475 21.8694 2.39796 21.7464 1.85954C21.6234 1.32112 21.9602 0.78496 22.4987 0.661987C23.2309 0.494736 23.9714 0.355561 24.7185 0.245208C25.4655 0.134854 26.2146 0.0540109 26.964 0.00240323C27.5149 -0.035542 27.9924 0.380355 28.0303 0.931334ZM30.3944 0.952984C30.4424 0.402792 30.9274 -0.0042974 31.4776 0.0437258C32.9787 0.174751 34.4674 0.422578 35.93 0.78493C36.4661 0.917738 36.793 1.45998 36.6602 1.99606C36.5274 2.53214 35.9852 2.85905 35.4491 2.72624C34.0873 2.38888 32.7013 2.15814 31.3036 2.03615C30.7535 1.98813 30.3464 1.50318 30.3944 0.952984ZM19.4896 2.56377C19.6946 3.07658 19.4451 3.65851 18.9323 3.86356C17.6296 4.38441 16.3695 5.00603 15.1634 5.7227C14.6886 6.00482 14.075 5.84864 13.7929 5.37385C13.5108 4.89906 13.6669 4.28546 14.1417 4.00334C15.4371 3.23359 16.7906 2.56594 18.1898 2.0065C18.7026 1.80146 19.2845 2.05096 19.4896 2.56377ZM38.9038 2.74145C39.1182 2.23248 39.7046 1.99367 40.2136 2.20807C40.9058 2.49966 41.5883 2.81881 42.2593 3.16524C42.9304 3.51167 43.5858 3.88321 44.2244 4.27867C44.694 4.56944 44.8389 5.1858 44.5481 5.65534C44.2574 6.12489 43.641 6.26981 43.1715 5.97904C42.5769 5.61086 41.9667 5.26494 41.3419 4.94239C40.7171 4.61984 40.0817 4.3227 39.4372 4.05122C38.9282 3.83683 38.6894 3.25042 38.9038 2.74145ZM11.8606 6.73607C12.213 7.16133 12.1539 7.79173 11.7287 8.14412C11.1902 8.59034 10.6678 9.05849 10.163 9.54791C9.65814 10.0373 9.17399 10.5449 8.71127 11.0692C8.34585 11.4834 7.71391 11.5228 7.29981 11.1574C6.8857 10.792 6.84624 10.16 7.21167 9.74593C7.70867 9.18272 8.22868 8.63755 8.77091 8.1119C9.31313 7.58626 9.87419 7.08343 10.4526 6.60415C10.8778 6.25176 11.5082 6.31082 11.8606 6.73607ZM46.4551 7.05272C46.8152 6.63399 47.4466 6.58648 47.8654 6.94659C49.0078 7.92913 50.072 8.99926 51.0482 10.1472C51.406 10.5679 51.3549 11.199 50.9342 11.5568C50.5135 11.9146 49.8824 11.8635 49.5246 11.4428C48.6158 10.3741 47.6249 9.37773 46.5613 8.46295C46.1425 8.10283 46.095 7.47145 46.4551 7.05272ZM5.87825 13.0464C6.34405 13.3432 6.4811 13.9613 6.18437 14.4271C5.4306 15.6104 4.77016 16.8506 4.20911 18.1365C3.98824 18.6427 3.39884 18.874 2.89264 18.6531C2.38644 18.4322 2.15513 17.8428 2.376 17.3366C2.97861 15.9555 3.68797 14.6234 4.49756 13.3526C4.7943 12.8868 5.41245 12.7497 5.87825 13.0464ZM52.321 13.4715C52.7921 13.1834 53.4077 13.3317 53.6958 13.8029C54.0877 14.4437 54.4556 15.1011 54.7983 15.7741C55.141 16.447 55.4564 17.1313 55.7441 17.8251C55.9557 18.3353 55.7136 18.9203 55.2035 19.1319C54.6933 19.3435 54.1083 19.1014 53.8967 18.5913C53.6288 17.9453 53.3352 17.3082 53.0161 16.6817C52.697 16.0551 52.3545 15.443 51.9896 14.8464C51.7015 14.3752 51.8498 13.7597 52.321 13.4715ZM2.11868 20.887C2.65303 21.0267 2.973 21.573 2.83337 22.1074C2.65656 22.784 2.50564 23.469 2.38135 24.1611C2.25705 24.8531 2.16017 25.5478 2.09048 26.2437C2.03545 26.7932 1.54535 27.1941 0.995811 27.1391C0.446275 27.084 0.0454024 26.5939 0.100437 26.0444C0.175287 25.297 0.279348 24.5508 0.412845 23.8075C0.546342 23.0642 0.70844 22.3285 0.898346 21.6017C1.03798 21.0674 1.58434 20.7474 2.11868 20.887ZM55.9364 21.3796C56.4732 21.2498 57.0136 21.5797 57.1434 22.1165C57.4977 23.5811 57.7372 25.0712 57.8599 26.573C57.9049 27.1235 57.4951 27.6062 56.9446 27.6511C56.3942 27.6961 55.9115 27.2863 55.8665 26.7359C55.7523 25.3376 55.5293 23.9503 55.1995 22.5867C55.0697 22.0499 55.3996 21.5094 55.9364 21.3796ZM0.944048 29.5027C1.49547 29.4718 1.96754 29.8937 1.99846 30.4451C2.077 31.8459 2.26459 33.2384 2.55951 34.61C2.67561 35.15 2.33201 35.6818 1.79207 35.7979C1.25212 35.914 0.720296 35.5704 0.604197 35.0304C0.287433 33.5573 0.0859495 32.0616 0.00159612 30.5571C-0.0293209 30.0057 0.392629 29.5336 0.944048 29.5027ZM56.9531 30.0153C57.5039 30.0563 57.9171 30.536 57.8761 31.0868C57.8204 31.8359 57.7354 32.5845 57.6209 33.3309C57.5371 33.8768 57.0267 34.2515 56.4808 34.1677C55.9349 34.084 55.5602 33.5736 55.644 33.0277C55.7506 32.3327 55.8297 31.6357 55.8817 30.9383C55.9227 30.3875 56.4024 29.9743 56.9531 30.0153ZM2.46744 38.0635C2.98282 37.8651 3.56153 38.122 3.76002 38.6373C4.01135 39.2899 4.28862 39.9343 4.59162 40.5688C4.89461 41.2033 5.22142 41.8239 5.57097 42.4296C5.84702 42.908 5.68302 43.5195 5.20468 43.7956C4.72633 44.0716 4.11477 43.9077 3.83872 43.4293C3.46328 42.7787 3.11226 42.1121 2.78684 41.4306C2.46141 40.7491 2.16361 40.0571 1.89365 39.3561C1.69516 38.8407 1.95205 38.262 2.46744 38.0635ZM6.54217 45.7451C6.97188 45.3981 7.60148 45.4652 7.94842 45.8949C8.82974 46.9865 9.79483 48.0078 10.8348 48.9494C11.2442 49.3201 11.2756 49.9524 10.905 50.3618C10.5343 50.7713 9.90191 50.8027 9.4925 50.432C8.37547 49.4206 7.3389 48.3237 6.39231 47.1513C6.04537 46.7216 6.11246 46.092 6.54217 45.7451ZM12.7757 51.8074C13.0784 51.3454 13.6982 51.2163 14.1602 51.5189C14.7452 51.9021 15.3464 52.2635 15.9628 52.6019C16.5791 52.9402 17.2067 53.2535 17.8441 53.5413C18.3474 53.7686 18.5712 54.3609 18.3439 54.8642C18.1166 55.3676 17.5243 55.5914 17.021 55.3641C16.3364 55.0549 15.6623 54.7185 15.0003 54.355C14.3383 53.9916 13.6926 53.6035 13.0642 53.1919C12.6023 52.8892 12.4731 52.2694 12.7757 51.8074ZM20.5678 55.6666C20.7142 55.1341 21.2646 54.8211 21.7971 54.9675C23.1498 55.3395 24.5296 55.6055 25.9236 55.7631C26.4724 55.8251 26.867 56.3203 26.805 56.8691C26.7429 57.4179 26.2478 57.8125 25.699 57.7504C24.2017 57.5812 22.7198 57.2955 21.2668 56.8959C20.7343 56.7495 20.4213 56.1991 20.5678 55.6666ZM33.3328 56.6078C33.3996 57.156 33.0093 57.6546 32.461 57.7213C31.7114 57.8126 30.9605 57.8743 30.2101 57.9068C29.6583 57.9307 29.1916 57.5028 29.1677 56.951C29.1439 56.3992 29.5718 55.9326 30.1236 55.9087C30.8222 55.8784 31.5213 55.821 32.2193 55.736C32.7675 55.6693 33.2661 56.0596 33.3328 56.6078Z" fill="#D500E6"/>
<path fill-rule="evenodd" clip-rule="evenodd" d="M32.6293 10.9597C30.8483 9.58187 29.0598 9.31862 27.379 9.93933C25.5939 10.5986 23.7186 12.3366 22.1777 15.2729C20.6495 18.1852 19.6275 21.9535 19.3121 26.0684C18.9971 30.178 19.4095 34.3432 20.472 37.973C21.5407 41.6235 23.1724 44.4167 25.0086 46.0982C26.8028 47.7412 28.6169 48.1896 30.2766 47.7749L30.7614 49.7153C28.3268 50.3235 25.845 49.576 23.6579 47.5731C21.4716 45.571 19.688 42.4134 18.5526 38.5349C17.4172 34.6565 16.9859 30.2478 17.3179 25.9156C17.65 21.5834 18.7291 17.5406 20.4068 14.3436C22.0846 11.1462 24.2784 8.95235 26.6862 8.06318C29.0935 7.17415 31.5974 7.63275 33.8531 9.37787C36.1081 11.1225 38.0037 14.0667 39.2788 17.8055C40.5539 21.5441 41.146 25.8935 40.9734 30.2549L38.975 30.1759C39.1388 26.0346 38.5736 21.9335 37.3859 18.4511C36.1902 14.9453 34.4763 12.3887 32.6293 10.9597Z" fill="black"/>
<path fill-rule="evenodd" clip-rule="evenodd" d="M50.2555 29.7715H9.27734V27.7715H50.2555V29.7715Z" fill="black"/>
<path fill-rule="evenodd" clip-rule="evenodd" d="M28.1055 49.9215L28.1055 8.94336L30.1055 8.94336L30.1055 49.9215L28.1055 49.9215Z" fill="black"/>
<path fill-rule="evenodd" clip-rule="evenodd" d="M37.2476 11.4375C33.7021 9.77242 29.7314 9.2346 25.8707 9.89655C22.0101 10.5585 18.4453 12.3884 15.6571 15.1395C12.8688 17.8906 10.9913 21.4305 10.2776 25.2819C9.56391 29.1333 10.0484 33.1109 11.6658 36.6784C13.2832 40.2458 15.9556 43.2315 19.3227 45.2328C22.6898 47.2341 26.5896 48.1548 30.4963 47.8706L30.6414 49.8653C26.3267 50.1792 22.0196 49.1624 18.3008 46.9521C14.5821 44.7418 11.6305 41.4442 9.84425 37.5042C8.05797 33.5642 7.52286 29.1711 8.31108 24.9175C9.09931 20.6638 11.173 16.7542 14.2524 13.7158C17.3318 10.6774 21.2689 8.65642 25.5327 7.92532C29.7966 7.19423 34.182 7.78822 38.0978 9.6272C42.0135 11.4662 45.2711 14.4617 47.4313 18.2098C49.5916 21.9578 50.5505 26.2782 50.1788 30.5883L48.1862 30.4164C48.5227 26.514 47.6545 22.6021 45.6985 19.2085C43.7426 15.8148 40.793 13.1026 37.2476 11.4375Z" fill="black"/>
<path fill-rule="evenodd" clip-rule="evenodd" d="M58.2814 33.4027C58.2814 33.4027 63.6788 58.1102 43.9628 62.9336H43.955C24.2351 58.1102 29.6325 33.4027 29.6325 33.4027L43.955 27.9336L58.2814 33.4027ZM43.9551 30.0744L56.5123 34.8681C56.6124 35.5074 56.7331 36.4111 56.8235 37.5036C57.0128 39.7912 57.0649 42.8564 56.5421 46.0348C56.0186 49.2175 54.9343 52.4202 52.923 55.0775C51.0083 57.6073 48.185 59.7368 43.9589 60.8701C39.7316 59.7368 36.9076 57.6072 34.9924 55.0773C32.9806 52.42 31.896 49.2173 31.3722 46.0346C30.8492 42.8563 30.9012 39.7911 31.0904 37.5035C31.1808 36.411 31.3016 35.5073 31.4016 34.868L43.9551 30.0744Z" fill="black"/>
<path fill-rule="evenodd" clip-rule="evenodd" d="M43.957 38.9336C42.3002 38.9336 40.957 40.2767 40.957 41.9336C40.957 43.0428 41.5584 44.0126 42.4578 44.5329L42.957 44.8217V50.9336C42.957 51.4859 43.4047 51.9336 43.957 51.9336C44.5093 51.9336 44.957 51.4859 44.957 50.9336V44.8217L45.4563 44.5329C46.3556 44.0126 46.957 43.0428 46.957 41.9336C46.957 40.2767 45.6139 38.9336 43.957 38.9336ZM38.957 41.9336C38.957 39.1722 41.1956 36.9336 43.957 36.9336C46.7185 36.9336 48.957 39.1722 48.957 41.9336C48.957 43.5705 48.17 45.0227 46.957 45.9338V50.9336C46.957 52.5904 45.6139 53.9336 43.957 53.9336C42.3002 53.9336 40.957 52.5904 40.957 50.9336V45.9338C39.7441 45.0227 38.957 43.5705 38.957 41.9336Z" fill="black"/>
</svg>
