<svg width="61" height="57" viewBox="0 0 61 57" fill="none" xmlns="http://www.w3.org/2000/svg">
<path d="M55.7321 45.0066C54.9623 43.6733 53.0377 43.6733 52.2679 45.0066L48.8038 51.0066C48.034 52.3399 48.9963 54.0066 50.5359 54.0066H57.4641C59.0037 54.0066 59.966 52.3399 59.1962 51.0066L55.7321 45.0066Z" stroke="#D500E6" stroke-opacity="0.5" stroke-width="2"/>
<rect opacity="0.5" x="49" y="26.0066" width="10" height="10" rx="2" stroke="#D500E6" stroke-width="2"/>
<path opacity="0.5" d="M9 13.0066C9 15.2157 10.7909 17.0066 13 17.0066C15.2091 17.0066 17 15.2157 17 13.0066C17 10.7975 15.2091 9.00659 13 9.00659C10.7909 9.00659 9 10.7975 9 13.0066Z" stroke="#D500E6" stroke-width="2"/>
<path opacity="0.5" d="M49 13.0066C49 10.2452 51.2386 8.00659 54 8.00659C56.7614 8.00659 59 10.2452 59 13.0066C59 15.768 56.7614 18.0066 54 18.0066C51.2386 18.0066 49 15.768 49 13.0066Z" stroke="#D500E6" stroke-width="2"/>
<path d="M29 13.0066L29 29.0066C29 30.1112 29.8954 31.0066 31 31.0066L50 31.0066" stroke="black" stroke-width="2"/>
<path d="M37 32.0066L37 48.0066C37 49.1112 37.8955 50.0066 39 50.0066L52 50.0066" stroke="black" stroke-width="2"/>
<path d="M54 10.0066C52.3431 10.0066 51 11.3497 51 13.0066C51 14.6634 52.3431 16.0066 54 16.0066C55.6569 16.0066 57 14.6634 57 13.0066C57 11.3497 55.6569 10.0066 54 10.0066Z" stroke="black" stroke-width="2"/>
<path d="M23 13.0066L29 13.0066" stroke="black" stroke-width="2"/>
<path d="M51 13.0066L28 13.0066" stroke="black" stroke-width="2"/>
<path fill-rule="evenodd" clip-rule="evenodd" d="M25.999 10.5085C25.999 10.2324 25.7752 10.0085 25.499 10.0085L22.5432 10.0085C22.3664 9.44529 22.1412 8.90351 21.8723 8.38808L23.9606 6.29981C24.1558 6.10455 24.1558 5.78797 23.9606 5.59271L20.425 2.05717C20.2298 1.86191 19.9132 1.86191 19.7179 2.05717L17.633 4.14206C17.114 3.87024 16.5681 3.64268 16.0004 3.46438L16.0004 0.506591C16.0004 0.230449 15.7765 0.00659111 15.5004 0.00659112L10.5004 0.00659134C10.2243 0.00659135 10.0004 0.230449 10.0004 0.506591L10.0004 3.46438C9.43412 3.64224 8.88955 3.86911 8.37165 4.14004L6.28291 2.0513C6.08765 1.85603 5.77107 1.85603 5.57581 2.0513L2.04027 5.58683C1.84501 5.78209 1.84501 6.09868 2.04027 6.29394L4.13053 8.3842C3.86077 8.90079 3.63481 9.44388 3.45759 10.0085L0.499023 10.0085C0.22288 10.0085 -0.000977252 10.2324 -0.00097724 10.5085L-0.000977021 15.5085C-0.000977009 15.7847 0.22288 16.0085 0.499023 16.0085L3.45883 16.0085C3.63704 16.5755 3.86439 17.1208 4.1359 17.6392L2.04026 19.7348C1.845 19.9301 1.845 20.2467 2.04026 20.442L5.5758 23.9775C5.77106 24.1727 6.08764 24.1727 6.2829 23.9775L8.38191 21.8785C8.89674 22.147 9.43786 22.3721 10.0004 22.5488L10.0004 25.5066C10.0004 25.7827 10.2243 26.0066 10.5004 26.0066L15.5004 26.0066C15.7765 26.0066 16.0004 25.7827 16.0004 25.5066L16.0004 22.5488C16.5644 22.3716 17.1068 22.1459 17.6228 21.8765L19.7179 23.9716C19.9132 24.1669 20.2298 24.1669 20.425 23.9716L23.9606 20.4361C24.1558 20.2408 24.1558 19.9242 23.9606 19.729L21.8669 17.6353C22.1376 17.118 22.3642 16.5741 22.542 16.0085L25.499 16.0085C25.7752 16.0085 25.999 15.7847 25.999 15.5085L25.999 10.5085ZM20.0004 13.0066C20.0004 9.14058 16.8664 6.00657 13.0004 6.00657C9.13442 6.00657 6.00042 9.14058 6.00042 13.0066C6.00042 16.8726 9.13442 20.0066 13.0004 20.0066C16.8664 20.0066 20.0004 16.8726 20.0004 13.0066Z" fill="black"/>
<path fill-rule="evenodd" clip-rule="evenodd" d="M17.6041 25.9073C17.3279 25.9073 17.1041 26.1312 17.1041 26.4073V28.1976C16.6802 28.3238 16.2732 28.4891 15.8872 28.6893L14.7309 27.533C14.5356 27.3377 14.2191 27.3377 14.0238 27.533L11.9025 29.6543C11.7072 29.8496 11.7072 30.1661 11.9025 30.3614L13.0078 31.4667C12.7525 31.9181 12.546 32.4006 12.3952 32.9072H10.6055C10.3293 32.9072 10.1055 33.1311 10.1055 33.4072V36.4072C10.1055 36.6833 10.3293 36.9072 10.6055 36.9072H12.3951C12.5346 37.3759 12.7218 37.824 12.9512 38.2459L11.6808 39.5162C11.4856 39.7115 11.4856 40.0281 11.6808 40.2233L13.8022 42.3447C13.9974 42.5399 14.314 42.5399 14.5093 42.3447L15.7834 41.0705C16.2 41.2955 16.6421 41.4796 17.1041 41.6171V43.4073C17.1041 43.6835 17.3279 43.9073 17.6041 43.9073H20.6041C20.8802 43.9073 21.1041 43.6835 21.1041 43.4073V41.6179C21.6111 41.467 22.0941 41.2603 22.5459 41.0049L23.9233 42.3822C24.1186 42.5775 24.4351 42.5775 24.6304 42.3822L26.7517 40.2609C26.947 40.0656 26.947 39.7491 26.7517 39.5538L25.3233 38.1254C25.5237 37.739 25.6892 37.3315 25.8154 36.9072H27.6055C27.8816 36.9072 28.1055 36.6833 28.1055 36.4072V33.4072C28.1055 33.1311 27.8816 32.9072 27.6055 32.9072H25.8153C25.6777 32.4448 25.4936 32.0025 25.2684 31.5855L26.5301 30.3238C26.7254 30.1286 26.7254 29.812 26.5301 29.6167L24.4088 27.4954C24.2135 27.3002 23.8969 27.3002 23.7017 27.4954L22.4438 28.7533C22.0216 28.5238 21.5731 28.3364 21.1041 28.1969V26.4073C21.1041 26.1312 20.8802 25.9073 20.6041 25.9073H17.6041ZM19.1055 38.9073C21.3146 38.9073 23.1055 37.1165 23.1055 34.9073C23.1055 32.6982 21.3146 30.9073 19.1055 30.9073C16.8963 30.9073 15.1055 32.6982 15.1055 34.9073C15.1055 37.1165 16.8963 38.9073 19.1055 38.9073Z" fill="black"/>
<circle opacity="0.5" cx="19.1045" cy="34.9076" r="2" fill="#D500E6"/>
<path d="M13 15.0066C11.8954 15.0066 11 14.1112 11 13.0066C11 11.902 11.8954 11.0066 13 11.0066C14.1046 11.0066 15 11.902 15 13.0066C15 14.1112 14.1046 15.0066 13 15.0066Z" stroke="black" stroke-width="2"/>
<mask id="path-14-inside-1_1259_2121" fill="white">
<rect x="50" y="27.0066" width="8" height="8" rx="1"/>
</mask>
<rect x="50" y="27.0066" width="8" height="8" rx="1" stroke="black" stroke-width="4" mask="url(#path-14-inside-1_1259_2121)"/>
<path d="M54 46.0066L57.4641 52.0066H50.5359L54 46.0066Z" stroke="black" stroke-width="2"/>
</svg>
