<svg width="50" height="55" viewBox="0 0 50 55" fill="none" xmlns="http://www.w3.org/2000/svg">
<path fill-rule="evenodd" clip-rule="evenodd" d="M19.346 28.6086L18.7815 28.0429C18.7753 28.0367 18.7692 28.0306 18.763 28.0243C17.2213 26.4627 17.2274 23.9469 18.7815 22.3928C20.3412 20.8332 22.8696 20.8326 24.4299 22.3912C24.4305 22.3917 24.431 22.3923 24.4316 22.3928L24.9967 22.9579L25.5611 22.3935C25.5617 22.393 25.5622 22.3924 25.5628 22.3918C27.1231 20.8333 29.6515 20.8338 31.2112 22.3935C32.7714 23.9537 32.7714 26.4834 31.2112 28.0436L24.9961 34.2587L19.346 28.6086ZM24.9961 31.4303L29.797 26.6294C30.5761 25.8502 30.5761 24.5869 29.797 23.8077C29.0178 23.0285 27.7545 23.0285 26.9753 23.8077L24.9967 25.7864L23.0174 23.807C22.2382 23.0279 20.9749 23.0279 20.1957 23.807C19.4165 24.5862 19.4165 25.8495 20.1957 26.6287L22.1752 28.6082L24.9961 31.4303Z" fill="#D500E6"/>
<path opacity="0.5" fill-rule="evenodd" clip-rule="evenodd" d="M19.346 28.6086L18.7815 28.0429C18.7753 28.0367 18.7692 28.0306 18.763 28.0243C17.2213 26.4627 17.2274 23.9469 18.7815 22.3928C20.3412 20.8332 22.8696 20.8326 24.4299 22.3912C24.4305 22.3917 24.431 22.3923 24.4316 22.3928L24.9967 22.9579L25.5611 22.3935C25.5617 22.393 25.5622 22.3924 25.5628 22.3918C27.1231 20.8333 29.6515 20.8338 31.2112 22.3935C32.7714 23.9537 32.7714 26.4834 31.2112 28.0436L24.9961 34.2587L19.346 28.6086ZM24.9968 20.272C22.6618 18.6675 19.4429 18.903 17.3673 20.9786C15.3169 23.029 15.0621 26.1952 16.6031 28.5228L16.5174 28.6085L24.9961 37.0871L32.6254 29.4578C34.9667 27.1165 34.9667 23.3206 32.6254 20.9793C30.5501 18.904 27.3318 18.6682 24.9968 20.272Z" fill="#D500E6"/>
<path fill-rule="evenodd" clip-rule="evenodd" d="M33.1133 46.0381C35.476 41.3969 36.9961 34.8457 36.9961 27.5C36.9961 20.1543 35.476 13.6031 33.1133 8.96193C30.6947 4.21116 27.7154 2 24.9961 2C22.2768 2 19.2975 4.21116 16.8789 8.96193C14.5162 13.6031 12.9961 20.1543 12.9961 27.5C12.9961 34.8457 14.5162 41.3969 16.8789 46.0381C19.2975 50.7888 22.2768 53 24.9961 53C27.7154 53 30.6947 50.7888 33.1133 46.0381ZM24.9961 55C32.7281 55 38.9961 42.6878 38.9961 27.5C38.9961 12.3122 32.7281 0 24.9961 0C17.2641 0 10.9961 12.3122 10.9961 27.5C10.9961 42.6878 17.2641 55 24.9961 55Z" fill="black"/>
<path fill-rule="evenodd" clip-rule="evenodd" d="M37.1036 11.1125C31.8681 11.3988 25.3893 13.3794 18.98 17.0798C12.5707 20.7802 7.61597 25.4008 4.75027 29.7917C1.81582 34.2879 1.38213 37.9889 2.74367 40.3472C4.10522 42.7055 7.52722 44.1804 12.8883 43.8872C18.1238 43.6009 24.6027 41.6203 31.012 37.9198C37.4213 34.2194 42.376 29.5989 45.2416 25.208C48.1761 20.7117 48.6098 17.0107 47.2482 14.6525C45.8867 12.2942 42.4647 10.8193 37.1036 11.1125ZM48.9803 13.6525C45.1055 6.94106 31.2261 7.70008 17.98 15.3478C4.73378 22.9955 -2.86321 34.6358 1.01162 41.3472C4.88645 48.0586 18.7658 47.2996 32.012 39.6519C45.2581 32.0042 52.8551 20.3639 48.9803 13.6525Z" fill="black"/>
<path fill-rule="evenodd" clip-rule="evenodd" d="M45.2416 29.7917C42.376 25.4008 37.4213 20.7802 31.012 17.0798C24.6027 13.3794 18.1238 11.3988 12.8883 11.1125C7.52722 10.8193 4.10522 12.2942 2.74367 14.6525C1.38213 17.0107 1.81582 20.7117 4.75027 25.208C7.61597 29.5989 12.5707 34.2194 18.98 37.9198C25.3893 41.6202 31.8681 43.6009 37.1036 43.8872C42.4647 44.1804 45.8867 42.7055 47.2482 40.3472C48.6098 37.9889 48.1761 34.2879 45.2416 29.7917ZM48.9803 41.3472C52.8551 34.6358 45.2581 22.9954 32.012 15.3478C18.7658 7.70008 4.88645 6.94106 1.01162 13.6525C-2.86321 20.3639 4.73378 32.0042 17.98 39.6519C31.2261 47.2996 45.1055 48.0586 48.9803 41.3472Z" fill="black"/>
</svg>
